Exo2-OldDefaultItalic.ufo
<glyph name="quotedbl" format="2">
  <advance width="361"/>
  <unicode hex="0022"/>
  <outline>
    <contour>
      <point x="354" y="690" type="line"/>
      <point x="268" y="690" type="line"/>
      <point x="244" y="473" type="line"/>
      <point x="317" y="473" type="line"/>
    </contour>
    <contour>
      <point x="204" y="690" type="line"/>
      <point x="118" y="690" type="line"/>
      <point x="94" y="473" type="line"/>
      <point x="166" y="473" type="line"/>
    </contour>
  </outline>
</glyph>
<glyph name="percent" format="2">
  <advance width="900"/>
  <unicode hex="0025"/>
  <outline>
    <contour>
      <point x="763" y="690" type="line"/>
      <point x="681" y="690" type="line"/>
      <point x="149" y="0" type="line"/>
      <point x="231" y="0" type="line"/>
    </contour>
    <contour>
      <point x="257" y="637" type="curve" smooth="yes"/>
      <point x="319" y="637"/>
      <point x="331" y="605"/>
      <point x="316" y="502" type="curve" smooth="yes"/>
      <point x="301" y="394"/>
      <point x="284" y="359"/>
      <point x="206" y="359" type="curve" smooth="yes"/>
      <point x="146" y="359"/>
      <point x="134" y="390"/>
      <point x="149" y="494" type="curve" smooth="yes"/>
      <point x="164" y="601"/>
      <point x="181" y="637"/>
    </contour>
    <contour>
      <point x="254" y="703" type="curve" smooth="yes"/>
      <point x="136" y="703"/>
      <point x="90" y="649"/>
      <point x="69" y="502" type="curve" smooth="yes"/>
      <point x="48" y="352"/>
      <point x="85" y="293"/>
      <point x="209" y="293" type="curve" smooth="yes"/>
      <point x="329" y="293"/>
      <point x="375" y="347"/>
      <point x="396" y="494" type="curve" smooth="yes"/>
      <point x="417" y="644"/>
      <point x="380" y="703"/>
    </contour>
    <contour>
      <point x="706" y="333" type="curve" smooth="yes"/>
      <point x="768" y="333"/>
      <point x="780" y="301"/>
      <point x="765" y="198" type="curve" smooth="yes"/>
      <point x="750" y="90"/>
      <point x="733" y="55"/>
      <point x="655" y="55" type="curve" smooth="yes"/>
      <point x="595" y="55"/>
      <point x="583" y="86"/>
      <point x="598" y="190" type="curve" smooth="yes"/>
      <point x="613" y="297"/>
      <point x="630" y="333"/>
    </contour>
    <contour>
      <point x="703" y="399" type="curve" smooth="yes"/>
      <point x="585" y="399"/>
      <point x="539" y="345"/>
      <point x="518" y="198" type="curve" smooth="yes"/>
      <point x="497" y="48"/>
      <point x="534" y="-11"/>
      <point x="658" y="-11" type="curve" smooth="yes"/>
      <point x="778" y="-11"/>
      <point x="824" y="43"/>
      <point x="845" y="190" type="curve" smooth="yes"/>
      <point x="866" y="340"/>
      <point x="829" y="399"/>
    </contour>
  </outline>
</glyph>
<glyph name="quotesingle" format="2">
  <advance width="211"/>
  <unicode hex="0027"/>
  <outline>
    <contour>
      <point x="204" y="690" type="line"/>
      <point x="118" y="690" type="line"/>
      <point x="94" y="473" type="line"/>
      <point x="166" y="473" type="line"/>
    </contour>
  </outline>
</glyph>
<glyph name="parenleft" format="2">
  <advance width="358"/>
  <unicode hex="0028"/>
  <outline>
    <contour>
      <point x="386" y="791" type="line"/>
      <point x="189" y="724"/>
      <point x="87" y="575"/>
      <point x="50" y="316" type="curve" smooth="yes"/>
      <point x="14" y="61"/>
      <point x="79" y="-96"/>
      <point x="258" y="-164" type="curve"/>
      <point x="272" y="-117" type="line"/>
      <point x="153" y="-52"/>
      <point x="124" y="92"/>
      <point x="154" y="309" type="curve" smooth="yes"/>
      <point x="186" y="544"/>
      <point x="262" y="679"/>
      <point x="398" y="740" type="curve"/>
    </contour>
  </outline>
</glyph>
<glyph name="comma" format="2">
  <advance width="235"/>
  <unicode hex="002C"/>
  <outline>
    <contour>
      <point x="112" y="130" type="curve" smooth="yes"/>
      <point x="81" y="130" type="line" smooth="yes"/>
      <point x="48" y="130"/>
      <point x="39" y="122"/>
      <point x="33" y="93" type="curve" smooth="yes"/>
      <point x="25" y="36" type="line" smooth="yes"/>
      <point x="23" y="15"/>
      <point x="34" y="0"/>
      <point x="58" y="2" type="curve"/>
      <point x="49" y="-46"/>
      <point x="36" y="-80"/>
      <point x="23" y="-121" type="curve"/>
      <point x="75" y="-139" type="line"/>
      <point x="105" y="-89"/>
      <point x="131" y="-30"/>
      <point x="138" y="25" type="curve" smooth="yes"/>
      <point x="146" y="89" type="line" smooth="yes"/>
      <point x="151" y="118"/>
      <point x="141" y="130"/>
    </contour>
  </outline>
</glyph>
<glyph name="period" format="2">
  <advance width="232"/>
  <unicode hex="002E"/>
  <outline>
    <contour>
      <point x="109" y="130" type="curve" smooth="yes"/>
      <point x="74" y="130" type="line" smooth="yes"/>
      <point x="49" y="130"/>
      <point x="36" y="119"/>
      <point x="33" y="94" type="curve" smooth="yes"/>
      <point x="25" y="41" type="line" smooth="yes"/>
      <point x="21" y="13"/>
      <point x="33" y="0"/>
      <point x="62" y="0" type="curve" smooth="yes"/>
      <point x="97" y="0" type="line" smooth="yes"/>
      <point x="122" y="0"/>
      <point x="135" y="12"/>
      <point x="138" y="37" type="curve" smooth="yes"/>
      <point x="145" y="89" type="line" smooth="yes"/>
      <point x="149" y="117"/>
      <point x="138" y="130"/>
    </contour>
  </outline>
</glyph>
<glyph name="one" format="2">
  <advance width="403"/>
  <unicode hex="0031"/>
  <outline>
    <contour>
      <point x="353" y="690" type="line"/>
      <point x="241" y="690" type="line"/>
      <point x="61" y="620" type="line"/>
      <point x="63" y="537" type="line"/>
      <point x="231" y="588" type="line"/>
      <point x="224" y="566"/>
      <point x="221" y="545"/>
      <point x="218" y="523" type="curve" smooth="yes"/>
      <point x="145" y="0" type="line"/>
      <point x="256" y="0" type="line"/>
    </contour>
  </outline>
</glyph>
<glyph name="two" format="2">
  <advance width="560"/>
  <unicode hex="0032"/>
  <outline>
    <contour>
      <point x="324" y="702" type="curve" smooth="yes"/>
      <point x="263" y="702"/>
      <point x="205" y="698"/>
      <point x="108" y="677" type="curve"/>
      <point x="108" y="590" type="line"/>
      <point x="196" y="602"/>
      <point x="244" y="604"/>
      <point x="312" y="604" type="curve" smooth="yes"/>
      <point x="377" y="604"/>
      <point x="413" y="599"/>
      <point x="413" y="557" type="curve" smooth="yes"/>
      <point x="413" y="482"/>
      <point x="336" y="401"/>
      <point x="255" y="326" type="curve" smooth="yes"/>
      <point x="40" y="119" type="line" smooth="yes"/>
      <point x="28" y="107"/>
      <point x="24" y="91"/>
      <point x="21" y="72" type="curve" smooth="yes"/>
      <point x="11" y="0" type="line"/>
      <point x="471" y="0" type="line"/>
      <point x="486" y="108" type="line"/>
      <point x="270" y="108" type="line" smooth="yes"/>
      <point x="239" y="108"/>
      <point x="198" y="107"/>
      <point x="166" y="103" type="curve"/>
      <point x="376" y="304" type="line" smooth="yes"/>
      <point x="463" y="387"/>
      <point x="526" y="466"/>
      <point x="526" y="571" type="curve" smooth="yes"/>
      <point x="526" y="679"/>
      <point x="438" y="702"/>
    </contour>
  </outline>
</glyph>
<glyph name="three" format="2">
  <advance width="552"/>
  <unicode hex="0033"/>
  <outline>
    <contour>
      <point x="311" y="703" type="curve" smooth="yes"/>
      <point x="261" y="703"/>
      <point x="189" y="697"/>
      <point x="113" y="685" type="curve"/>
      <point x="114" y="598" type="line"/>
      <point x="164" y="602"/>
      <point x="239" y="605"/>
      <point x="285" y="605" type="curve" smooth="yes"/>
      <point x="380" y="605"/>
      <point x="405" y="592"/>
      <point x="405" y="547" type="curve" smooth="yes"/>
      <point x="405" y="450"/>
      <point x="364" y="405"/>
      <point x="275" y="405" type="curve" smooth="yes"/>
      <point x="150" y="405" type="line"/>
      <point x="139" y="321" type="line"/>
      <point x="268" y="318" type="line" smooth="yes"/>
      <point x="347" y="316"/>
      <point x="376" y="284"/>
      <point x="376" y="239" type="curve" smooth="yes"/>
      <point x="376" y="145"/>
      <point x="317" y="94"/>
      <point x="209" y="86" type="curve" smooth="yes"/>
      <point x="148" y="81"/>
      <point x="95" y="89"/>
      <point x="24" y="92" type="curve"/>
      <point x="11" y="5" type="line"/>
      <point x="90" y="-9"/>
      <point x="157" y="-14"/>
      <point x="215" y="-13" type="curve" smooth="yes"/>
      <point x="390" y="-10"/>
      <point x="487" y="77"/>
      <point x="487" y="237" type="curve" smooth="yes"/>
      <point x="487" y="307"/>
      <point x="451" y="348"/>
      <point x="388" y="359" type="curve"/>
      <point x="389" y="363" type="line"/>
      <point x="467" y="369"/>
      <point x="511" y="470"/>
      <point x="511" y="561" type="curve" smooth="yes"/>
      <point x="511" y="652"/>
      <point x="457" y="703"/>
    </contour>
  </outline>
</glyph>
<glyph name="five" format="2">
  <advance width="536"/>
  <unicode hex="0035"/>
  <outline>
    <contour>
      <point x="523" y="690" type="line"/>
      <point x="145" y="690" type="line"/>
      <point x="89" y="401" type="line" smooth="yes"/>
      <point x="83" y="372"/>
      <point x="102" y="348"/>
      <point x="131" y="346" type="curve" smooth="yes"/>
      <point x="215" y="339" type="line" smooth="yes"/>
      <point x="326" y="330"/>
      <point x="367" y="307"/>
      <point x="367" y="245" type="curve" smooth="yes"/>
      <point x="367" y="142"/>
      <point x="306" y="94"/>
      <point x="197" y="87" type="curve" smooth="yes"/>
      <point x="150" y="84"/>
      <point x="92" y="89"/>
      <point x="31" y="103" type="curve"/>
      <point x="12" y="12" type="line"/>
      <point x="87" y="-8"/>
      <point x="164" y="-15"/>
      <point x="222" y="-12" type="curve" smooth="yes"/>
      <point x="382" y="-3"/>
      <point x="475" y="93"/>
      <point x="475" y="248" type="curve" smooth="yes"/>
      <point x="475" y="364"/>
      <point x="399" y="414"/>
      <point x="267" y="428" type="curve" smooth="yes"/>
      <point x="190" y="436" type="line"/>
      <point x="221" y="595" type="line"/>
      <point x="504" y="595" type="line"/>
    </contour>
  </outline>
</glyph>
<glyph name="six" format="2">
  <advance width="572"/>
  <unicode hex="0036"/>
  <outline>
    <contour>
      <point x="373" y="702" type="curve" smooth="yes"/>
      <point x="192" y="702"/>
      <point x="109" y="642"/>
      <point x="66" y="337" type="curve" smooth="yes"/>
      <point x="29" y="73"/>
      <point x="74" y="-12"/>
      <point x="255" y="-12" type="curve" smooth="yes"/>
      <point x="438" y="-12"/>
      <point x="518" y="105"/>
      <point x="518" y="314" type="curve" smooth="yes"/>
      <point x="518" y="401"/>
      <point x="464" y="453"/>
      <point x="352" y="453" type="curve" smooth="yes"/>
      <point x="256" y="453"/>
      <point x="205" y="415"/>
      <point x="126" y="319" type="curve"/>
      <point x="126" y="246" type="line"/>
      <point x="205" y="330"/>
      <point x="260" y="363"/>
      <point x="326" y="363" type="curve" smooth="yes"/>
      <point x="401" y="363"/>
      <point x="414" y="337"/>
      <point x="414" y="282" type="curve" smooth="yes"/>
      <point x="414" y="159"/>
      <point x="370" y="83"/>
      <point x="269" y="83" type="curve" smooth="yes"/>
      <point x="138" y="83"/>
      <point x="148" y="143"/>
      <point x="174" y="334" type="curve" smooth="yes"/>
      <point x="205" y="561"/>
      <point x="257" y="608"/>
      <point x="369" y="608" type="curve" smooth="yes"/>
      <point x="435" y="608"/>
      <point x="466" y="608"/>
      <point x="513" y="605" type="curve"/>
      <point x="532" y="686" type="line"/>
      <point x="475" y="702"/>
      <point x="402" y="702"/>
    </contour>
  </outline>
</glyph>
<glyph name="less" format="2">
  <advance width="522"/>
  <unicode hex="003C"/>
  <outline>
    <contour>
      <point x="488" y="510" type="line"/>
      <point x="53" y="341" type="line"/>
      <point x="41" y="257" type="line"/>
      <point x="428" y="86" type="line"/>
      <point x="440" y="168" type="line"/>
      <point x="139" y="296" type="line"/>
      <point x="476" y="421" type="line"/>
    </contour>
  </outline>
</glyph>
<glyph name="equal" format="2">
  <advance width="584"/>
  <unicode hex="003D"/>
  <outline>
    <contour>
      <point x="535" y="439" type="line"/>
      <point x="89" y="439" type="line"/>
      <point x="78" y="360" type="line"/>
      <point x="524" y="360" type="line"/>
    </contour>
    <contour>
      <point x="506" y="228" type="line"/>
      <point x="60" y="228" type="line"/>
      <point x="49" y="149" type="line"/>
      <point x="495" y="149" type="line"/>
    </contour>
  </outline>
</glyph>
<glyph name="greater" format="2">
  <advance width="523"/>
  <unicode hex="003E"/>
  <outline>
    <contour>
      <point x="96" y="512" type="line"/>
      <point x="84" y="430" type="line"/>
      <point x="385" y="304" type="line"/>
      <point x="48" y="177" type="line"/>
      <point x="36" y="88" type="line"/>
      <point x="471" y="257" type="line"/>
      <point x="483" y="341" type="line"/>
    </contour>
  </outline>
</glyph>
<glyph name="question" format="2">
  <advance width="500"/>
  <unicode hex="003F"/>
  <outline>
    <contour>
      <point x="310" y="712" type="curve" smooth="yes"/>
      <point x="191" y="712"/>
      <point x="156" y="703"/>
      <point x="84" y="690" type="curve"/>
      <point x="84" y="613" type="line"/>
      <point x="151" y="618"/>
      <point x="183" y="621"/>
      <point x="285" y="621" type="curve" smooth="yes"/>
      <point x="365" y="621"/>
      <point x="392" y="606"/>
      <point x="383" y="541" type="curve" smooth="yes"/>
      <point x="369" y="440"/>
      <point x="201" y="393"/>
      <point x="181" y="212" type="curve"/>
      <point x="271" y="212" type="line"/>
      <point x="303" y="383"/>
      <point x="479" y="405"/>
      <point x="499" y="553" type="curve" smooth="yes"/>
      <point x="514" y="661"/>
      <point x="440" y="712"/>
    </contour>
    <contour>
      <point x="225" y="130" type="curve" smooth="yes"/>
      <point x="198" y="130" type="line" smooth="yes"/>
      <point x="173" y="130"/>
      <point x="160" y="118"/>
      <point x="157" y="93" type="curve" smooth="yes"/>
      <point x="149" y="41" type="line" smooth="yes"/>
      <point x="145" y="13"/>
      <point x="157" y="0"/>
      <point x="186" y="0" type="curve" smooth="yes"/>
      <point x="213" y="0" type="line" smooth="yes"/>
      <point x="238" y="0"/>
      <point x="251" y="12"/>
      <point x="254" y="37" type="curve" smooth="yes"/>
      <point x="261" y="89" type="line" smooth="yes"/>
      <point x="265" y="117"/>
      <point x="254" y="130"/>
    </contour>
  </outline>
</glyph>
<glyph name="at" format="2">
  <advance width="784"/>
  <unicode hex="0040"/>
  <outline>
    <contour>
      <point x="435" y="653" type="curve" smooth="yes"/>
      <point x="332" y="652"/>
      <point x="220" y="649"/>
      <point x="114" y="643" type="curve"/>
      <point x="105" y="563" type="line"/>
      <point x="432" y="563" type="line" smooth="yes"/>
      <point x="632" y="563"/>
      <point x="653" y="561"/>
      <point x="620" y="328" type="curve" smooth="yes"/>
      <point x="597" y="150"/>
      <point x="576" y="84"/>
      <point x="502" y="84" type="curve" smooth="yes"/>
      <point x="477" y="84"/>
      <point x="470" y="96"/>
      <point x="473" y="126" type="curve" smooth="yes"/>
      <point x="520" y="427" type="line"/>
      <point x="415" y="427" type="line"/>
      <point x="371" y="161" type="line" smooth="yes"/>
      <point x="356" y="60"/>
      <point x="385" y="-7"/>
      <point x="493" y="-7" type="curve" smooth="yes"/>
      <point x="634" y="-7"/>
      <point x="690" y="56"/>
      <point x="721" y="320" type="curve" smooth="yes"/>
      <point x="762" y="613"/>
      <point x="702" y="655"/>
    </contour>
    <contour>
      <point x="286" y="455" type="curve" smooth="yes"/>
      <point x="162" y="455"/>
      <point x="85" y="429"/>
      <point x="52" y="231" type="curve" smooth="yes"/>
      <point x="21" y="45"/>
      <point x="77" y="-12"/>
      <point x="183" y="-12" type="curve" smooth="yes"/>
      <point x="310" y="-12"/>
      <point x="373" y="84"/>
      <point x="425" y="167" type="curve"/>
      <point x="402" y="212" type="line"/>
      <point x="321" y="120"/>
      <point x="275" y="79"/>
      <point x="206" y="79" type="curve" smooth="yes"/>
      <point x="152" y="79"/>
      <point x="135" y="97"/>
      <point x="156" y="224" type="curve" smooth="yes"/>
      <point x="177" y="351"/>
      <point x="198" y="368"/>
      <point x="323" y="368" type="curve" smooth="yes"/>
      <point x="348" y="368"/>
      <point x="389" y="367"/>
      <point x="472" y="365" type="curve"/>
      <point x="520" y="427" type="line"/>
      <point x="436" y="443"/>
      <point x="365" y="455"/>
    </contour>
  </outline>
</glyph>
<glyph name="B" format="2">
  <advance width="621"/>
  <unicode hex="0042"/>
  <outline>
    <contour>
      <point x="367" y="698" type="curve" smooth="yes"/>
      <point x="265" y="698"/>
      <point x="208" y="697"/>
      <point x="136" y="690" type="curve"/>
      <point x="142" y="601" type="line"/>
      <point x="188" y="605"/>
      <point x="256" y="604"/>
      <point x="361" y="604" type="curve" smooth="yes"/>
      <point x="456" y="604"/>
      <point x="483" y="589"/>
      <point x="472" y="508" type="curve" smooth="yes"/>
      <point x="460" y="423"/>
      <point x="424" y="400"/>
      <point x="335" y="400" type="curve" smooth="yes"/>
      <point x="109" y="400" type="line"/>
      <point x="97" y="315" type="line"/>
      <point x="330" y="315" type="line" smooth="yes"/>
      <point x="431" y="314"/>
      <point x="457" y="290"/>
      <point x="444" y="196" type="curve" smooth="yes"/>
      <point x="432" y="108"/>
      <point x="398" y="86"/>
      <point x="294" y="86" type="curve" smooth="yes"/>
      <point x="181" y="86"/>
      <point x="93" y="87"/>
      <point x="63" y="89" type="curve"/>
      <point x="39" y="0" type="line"/>
      <point x="121" y="-7"/>
      <point x="185" y="-8"/>
      <point x="311" y="-8" type="curve" smooth="yes"/>
      <point x="467" y="-8"/>
      <point x="530" y="25"/>
      <point x="552" y="168" type="curve" smooth="yes"/>
      <point x="568" y="274"/>
      <point x="542" y="346"/>
      <point x="440" y="354" type="curve"/>
      <point x="441" y="359" type="line"/>
      <point x="526" y="367"/>
      <point x="565" y="416"/>
      <point x="579" y="514" type="curve" smooth="yes"/>
      <point x="599" y="657"/>
      <point x="531" y="698"/>
    </contour>
    <contour>
      <point x="245" y="690" type="line"/>
      <point x="136" y="690" type="line"/>
      <point x="39" y="0" type="line"/>
      <point x="148" y="0" type="line"/>
    </contour>
  </outline>
</glyph>
<glyph name="D" format="2">
  <advance width="664"/>
  <unicode hex="0044"/>
  <anchor x="284" y="-12" name="bottom"/>
  <anchor x="169" y="345" name="center"/>
  <anchor x="377" y="732" name="top"/>
  <outline>
    <contour>
      <point x="361" y="699" type="curve" smooth="yes"/>
      <point x="308" y="699"/>
      <point x="204" y="695"/>
      <point x="136" y="690" type="curve"/>
      <point x="176" y="601" type="line"/>
      <point x="224" y="601"/>
      <point x="324" y="603"/>
      <point x="358" y="603" type="curve" smooth="yes"/>
      <point x="500" y="603"/>
      <point x="531" y="568"/>
      <point x="499" y="349" type="curve" smooth="yes"/>
      <point x="466" y="121"/>
      <point x="419" y="88"/>
      <point x="267" y="88" type="curve" smooth="yes"/>
      <point x="230" y="88"/>
      <point x="148" y="90"/>
      <point x="96" y="92" type="curve"/>
      <point x="39" y="0" type="line"/>
      <point x="114" y="-5"/>
      <point x="206" y="-9"/>
      <point x="268" y="-9" type="curve" smooth="yes"/>
      <point x="481" y="-9"/>
      <point x="571" y="29"/>
      <point x="615" y="341" type="curve" smooth="yes"/>
      <point x="653" y="612"/>
      <point x="581" y="699"/>
    </contour>
    <contour>
      <point x="247" y="690" type="line"/>
      <point x="136" y="690" type="line"/>
      <point x="39" y="0" type="line"/>
      <point x="150" y="0" type="line"/>
    </contour>
  </outline>
</glyph>
<glyph name="E" format="2">
  <advance width="562"/>
  <unicode hex="0045"/>
  <guideline x="135" y="538" angle="0"/>
  <anchor x="259" y="0" name="bottom"/>
  <anchor x="478" y="6" name="ogonek"/>
  <anchor x="374" y="751" name="top"/>
  <outline>
    <contour>
      <point x="269" y="692" type="curve" smooth="yes"/>
      <point x="176" y="692"/>
      <point x="123" y="646"/>
      <point x="112" y="567" type="curve" smooth="yes"/>
      <point x="54" y="149" type="line" smooth="yes"/>
      <point x="41" y="55"/>
      <point x="88" y="-2"/>
      <point x="204" y="-2" type="curve" smooth="yes"/>
      <point x="293" y="-2"/>
      <point x="394" y="-2"/>
      <point x="478" y="6" type="curve"/>
      <point x="481" y="93" type="line"/>
      <point x="217" y="93" type="line" smooth="yes"/>
      <point x="173" y="93"/>
      <point x="161" y="107"/>
      <point x="167" y="152" type="curve" smooth="yes"/>
      <point x="219" y="534" type="line" smooth="yes"/>
      <point x="225" y="582"/>
      <point x="241" y="597"/>
      <point x="282" y="597" type="curve" smooth="yes"/>
      <point x="552" y="597" type="line"/>
      <point x="567" y="684" type="line"/>
      <point x="478" y="692"/>
      <point x="371" y="692"/>
    </contour>
    <contour>
      <point x="108" y="404" type="line"/>
      <point x="95" y="319" type="line"/>
      <point x="476" y="319" type="line"/>
      <point x="487" y="404" type="line"/>
    </contour>
  </outline>
</glyph>
<glyph name="F" format="2">
  <advance width="540"/>
  <unicode hex="0046"/>
  <outline>
    <contour>
      <point x="273" y="692" type="curve" smooth="yes"/>
      <point x="182" y="692"/>
      <point x="128" y="647"/>
      <point x="115" y="561" type="curve" smooth="yes"/>
      <point x="37" y="0" type="line"/>
      <point x="148" y="0" type="line"/>
      <point x="223" y="534" type="line" smooth="yes"/>
      <point x="230" y="585"/>
      <point x="245" y="597"/>
      <point x="296" y="597" type="curve" smooth="yes"/>
      <point x="545" y="597" type="line"/>
      <point x="561" y="683" type="line"/>
      <point x="475" y="692"/>
      <point x="372" y="692"/>
    </contour>
    <contour>
      <point x="109" y="391" type="line"/>
      <point x="96" y="306" type="line"/>
      <point x="468" y="306" type="line"/>
      <point x="480" y="391" type="line"/>
    </contour>
  </outline>
</glyph>
<glyph name="M" format="2">
  <advance width="884"/>
  <unicode hex="004D"/>
  <guideline x="341" y="437" angle="0"/>
  <anchor x="407" y="0" name="bottom"/>
  <outline>
    <contour>
      <point x="797" y="690" type="curve" smooth="yes"/>
      <point x="678" y="689" type="line" smooth="yes"/>
      <point x="652" y="689"/>
      <point x="637" y="678"/>
      <point x="627" y="653" type="curve" smooth="yes"/>
      <point x="467" y="258" type="line" smooth="yes"/>
      <point x="455" y="229"/>
      <point x="444" y="201"/>
      <point x="432" y="167" type="curve"/>
      <point x="415" y="167" type="line"/>
      <point x="413" y="199"/>
      <point x="411" y="229"/>
      <point x="406" y="261" type="curve" smooth="yes"/>
      <point x="349" y="650" type="line" smooth="yes"/>
      <point x="345" y="675"/>
      <point x="333" y="690"/>
      <point x="308" y="690" type="curve" smooth="yes"/>
      <point x="191" y="690" type="line" smooth="yes"/>
      <point x="162" y="690"/>
      <point x="148" y="676"/>
      <point x="143" y="647" type="curve" smooth="yes"/>
      <point x="26" y="0" type="line"/>
      <point x="137" y="0" type="line"/>
      <point x="241" y="598" type="line"/>
      <point x="260" y="598" type="line"/>
      <point x="327" y="125" type="line" smooth="yes"/>
      <point x="331" y="100"/>
      <point x="346" y="85"/>
      <point x="372" y="85" type="curve" smooth="yes"/>
      <point x="465" y="85" type="line" smooth="yes"/>
      <point x="491" y="85"/>
      <point x="506" y="96"/>
      <point x="516" y="121" type="curve" smooth="yes"/>
      <point x="710" y="598" type="line"/>
      <point x="728" y="598" type="line"/>
      <point x="665" y="0" type="line"/>
      <point x="776" y="0" type="line"/>
      <point x="838" y="643" type="line" smooth="yes"/>
      <point x="841" y="672"/>
      <point x="826" y="690"/>
    </contour>
  </outline>
</glyph>
<glyph name="T" format="2">
  <advance width="579"/>
  <unicode hex="0054"/>
  <anchor x="244" y="0" name="bottom"/>
  <anchor x="297" y="345" name="center"/>
  <anchor x="351" y="732" name="top"/>
  <outline>
    <contour>
      <point x="400" y="690" type="line"/>
      <point x="289" y="690" type="line"/>
      <point x="192" y="0" type="line"/>
      <point x="303" y="0" type="line"/>
    </contour>
    <contour>
      <point x="615" y="690" type="line"/>
      <point x="75" y="690" type="line"/>
      <point x="61" y="591" type="line"/>
      <point x="602" y="591" type="line"/>
    </contour>
  </outline>
</glyph>
<glyph name="U" format="2">
  <advance width="663"/>
  <unicode hex="0055"/>
  <anchor x="296" y="0" name="bottom"/>
  <anchor x="330" y="-9" name="ogonek"/>
  <anchor x="391" y="732" name="top"/>
  <outline>
    <contour>
      <point x="644" y="690" type="line"/>
      <point x="532" y="690" type="line"/>
      <point x="474" y="271" type="line" smooth="yes"/>
      <point x="454" y="133"/>
      <point x="407" y="86"/>
      <point x="297" y="86" type="curve" smooth="yes"/>
      <point x="191" y="86"/>
      <point x="163" y="129"/>
      <point x="182" y="266" type="curve" smooth="yes"/>
      <point x="242" y="690" type="line"/>
      <point x="130" y="690" type="line"/>
      <point x="72" y="271" type="line" smooth="yes"/>
      <point x="43" y="66"/>
      <point x="122" y="-13"/>
      <point x="300" y="-13" type="curve" smooth="yes"/>
      <point x="474" y="-13"/>
      <point x="555" y="62"/>
      <point x="584" y="266" type="curve" smooth="yes"/>
    </contour>
  </outline>
</glyph>
<glyph name="V" format="2">
  <advance width="612"/>
  <unicode hex="0056"/>
  <outline>
    <contour>
      <point x="655" y="690" type="line"/>
      <point x="537" y="690" type="line"/>
      <point x="316" y="163" type="line" smooth="yes"/>
      <point x="305" y="138"/>
      <point x="294" y="108"/>
      <point x="286" y="83" type="curve"/>
      <point x="261" y="83" type="line"/>
      <point x="259" y="108"/>
      <point x="255" y="134"/>
      <point x="252" y="159" type="curve" smooth="yes"/>
      <point x="178" y="690" type="line"/>
      <point x="65" y="690" type="line"/>
      <point x="176" y="33" type="line" smooth="yes"/>
      <point x="179" y="15"/>
      <point x="193" y="0"/>
      <point x="213" y="0" type="curve" smooth="yes"/>
      <point x="318" y="0" type="line" smooth="yes"/>
      <point x="338" y="0"/>
      <point x="352" y="10"/>
      <point x="360" y="29" type="curve" smooth="yes"/>
    </contour>
  </outline>
</glyph>
<glyph name="W" format="2">
  <advance width="949"/>
  <unicode hex="0057"/>
  <guideline x="436" y="447" angle="0"/>
  <anchor x="535" y="731" name="top"/>
  <outline>
    <contour>
      <point x="977" y="690" type="line"/>
      <point x="860" y="690" type="line"/>
      <point x="702" y="175" type="line" smooth="yes"/>
      <point x="693" y="145"/>
      <point x="683" y="111"/>
      <point x="675" y="82" type="curve"/>
      <point x="652" y="82" type="line"/>
      <point x="653" y="111"/>
      <point x="651" y="142"/>
      <point x="649" y="172" type="curve" smooth="yes"/>
      <point x="618" y="652" type="line" smooth="yes"/>
      <point x="617" y="673"/>
      <point x="602" y="690"/>
      <point x="581" y="690" type="curve" smooth="yes"/>
      <point x="466" y="690" type="line" smooth="yes"/>
      <point x="443" y="690"/>
      <point x="428" y="677"/>
      <point x="421" y="656" type="curve" smooth="yes"/>
      <point x="265" y="177" type="line" smooth="yes"/>
      <point x="256" y="148"/>
      <point x="245" y="115"/>
      <point x="235" y="82" type="curve"/>
      <point x="213" y="82" type="line"/>
      <point x="213" y="115"/>
      <point x="213" y="145"/>
      <point x="212" y="173" type="curve" smooth="yes"/>
      <point x="196" y="690" type="line"/>
      <point x="82" y="690" type="line"/>
      <point x="118" y="34" type="line" smooth="yes"/>
      <point x="119" y="15"/>
      <point x="137" y="0"/>
      <point x="158" y="0" type="curve" smooth="yes"/>
      <point x="276" y="0" type="line" smooth="yes"/>
      <point x="297" y="0"/>
      <point x="313" y="11"/>
      <point x="320" y="31" type="curve" smooth="yes"/>
      <point x="481" y="527" type="line" smooth="yes"/>
      <point x="489" y="552"/>
      <point x="498" y="582"/>
      <point x="506" y="608" type="curve"/>
      <point x="526" y="608" type="line"/>
      <point x="526" y="582"/>
      <point x="529" y="557"/>
      <point x="530" y="531" type="curve" smooth="yes"/>
      <point x="556" y="35" type="line" smooth="yes"/>
      <point x="557" y="15"/>
      <point x="574" y="0"/>
      <point x="595" y="0" type="curve" smooth="yes"/>
      <point x="714" y="0" type="line" smooth="yes"/>
      <point x="735" y="0"/>
      <point x="751" y="10"/>
      <point x="758" y="30" type="curve" smooth="yes"/>
    </contour>
  </outline>
</glyph>
<glyph name="X" format="2">
  <advance width="616"/>
  <unicode hex="0058"/>
  <outline>
    <contour>
      <point x="203" y="690" type="line"/>
      <point x="90" y="690" type="line"/>
      <point x="214" y="356" type="line"/>
      <point x="-23" y="0" type="line"/>
      <point x="105" y="0" type="line"/>
      <point x="325" y="345" type="line"/>
    </contour>
    <contour>
      <point x="385" y="400" type="line"/>
      <point x="258" y="400" type="line"/>
      <point x="246" y="315" type="line"/>
      <point x="373" y="315" type="line"/>
    </contour>
    <contour>
      <point x="642" y="690" type="line"/>
      <point x="520" y="690" type="line"/>
      <point x="309" y="369" type="line"/>
      <point x="443" y="0" type="line"/>
      <point x="557" y="0" type="line"/>
      <point x="421" y="356" type="line"/>
    </contour>
  </outline>
</glyph>
<glyph name="Z" format="2">
  <advance width="566"/>
  <unicode hex="005A"/>
  <anchor x="253" y="0" name="bottom"/>
  <anchor x="336" y="732" name="top"/>
  <outline>
    <contour>
      <point x="436" y="597" type="line"/>
      <point x="18" y="94" type="line"/>
      <point x="139" y="93" type="line"/>
      <point x="557" y="596" type="line"/>
    </contour>
    <contour>
      <point x="494" y="94" type="line"/>
      <point x="18" y="94" type="line"/>
      <point x="5" y="0" type="line"/>
      <point x="481" y="0" type="line"/>
    </contour>
    <contour>
      <point x="571" y="690" type="line"/>
      <point x="108" y="690" type="line"/>
      <point x="94" y="596" type="line"/>
      <point x="557" y="596" type="line"/>
    </contour>
  </outline>
</glyph>
<glyph name="bracketleft" format="2">
  <advance width="331"/>
  <unicode hex="005B"/>
  <outline>
    <contour>
      <point x="361" y="768" type="line"/>
      <point x="210" y="768" type="line" smooth="yes"/>
      <point x="173" y="768"/>
      <point x="147" y="745"/>
      <point x="142" y="708" type="curve" smooth="yes"/>
      <point x="28" y="-101" type="line" smooth="yes"/>
      <point x="22" y="-146"/>
      <point x="48" y="-165"/>
      <point x="84" y="-165" type="curve" smooth="yes"/>
      <point x="230" y="-165" type="line"/>
      <point x="240" y="-96" type="line"/>
      <point x="143" y="-96" type="line" smooth="yes"/>
      <point x="134" y="-96"/>
      <point x="131" y="-91"/>
      <point x="132" y="-81" type="curve" smooth="yes"/>
      <point x="239" y="680" type="line" smooth="yes"/>
      <point x="241" y="690"/>
      <point x="252" y="699"/>
      <point x="261" y="699" type="curve" smooth="yes"/>
      <point x="351" y="699" type="line"/>
    </contour>
  </outline>
</glyph>
<glyph name="backslash" format="2">
  <advance width="518"/>
  <unicode hex="005C"/>
  <outline>
    <contour>
      <point x="158" y="690" type="line"/>
      <point x="76" y="690" type="line"/>
      <point x="365" y="-68" type="line"/>
      <point x="447" y="-68" type="line"/>
    </contour>
  </outline>
</glyph>
<glyph name="bracketright" format="2">
  <advance width="331"/>
  <unicode hex="005D"/>
  <outline>
    <contour>
      <point x="248" y="768" type="curve" smooth="yes"/>
      <point x="103" y="768" type="line"/>
      <point x="93" y="699" type="line"/>
      <point x="189" y="699" type="line" smooth="yes"/>
      <point x="199" y="699"/>
      <point x="202" y="694"/>
      <point x="201" y="684" type="curve" smooth="yes"/>
      <point x="94" y="-77" type="line" smooth="yes"/>
      <point x="92" y="-87"/>
      <point x="81" y="-96"/>
      <point x="71" y="-96" type="curve" smooth="yes"/>
      <point x="-19" y="-96" type="line"/>
      <point x="-28" y="-165" type="line"/>
      <point x="123" y="-165" type="line" smooth="yes"/>
      <point x="159" y="-165"/>
      <point x="186" y="-141"/>
      <point x="191" y="-105" type="curve" smooth="yes"/>
      <point x="305" y="704" type="line" smooth="yes"/>
      <point x="310" y="740"/>
      <point x="285" y="768"/>
    </contour>
  </outline>
</glyph>
<glyph name="asciicircum" format="2">
  <advance width="438"/>
  <unicode hex="005E"/>
  <outline>
    <contour>
      <point x="309" y="610" type="line"/>
      <point x="231" y="610" type="line"/>
      <point x="51" y="394" type="line"/>
      <point x="92" y="369" type="line"/>
      <point x="262" y="540" type="line"/>
      <point x="270" y="540" type="line"/>
      <point x="385" y="369" type="line"/>
      <point x="430" y="394" type="line"/>
    </contour>
  </outline>
</glyph>
<glyph name="c" format="2">
  <advance width="488"/>
  <unicode hex="0063"/>
  <anchor x="230" y="-12" name="bottom"/>
  <anchor x="300" y="553" name="top"/>
  <outline>
    <contour>
      <point x="306" y="502" type="curve" smooth="yes"/>
      <point x="137" y="502"/>
      <point x="68" y="436"/>
      <point x="41" y="249" type="curve" smooth="yes"/>
      <point x="14" y="63"/>
      <point x="70" y="-12"/>
      <point x="245" y="-12" type="curve" smooth="yes"/>
      <point x="302" y="-12"/>
      <point x="367" y="-4"/>
      <point x="420" y="15" type="curve"/>
      <point x="413" y="88" type="line"/>
      <point x="361" y="80"/>
      <point x="298" y="78"/>
      <point x="265" y="78" type="curve" smooth="yes"/>
      <point x="163" y="78"/>
      <point x="136" y="100"/>
      <point x="153" y="241" type="curve" smooth="yes"/>
      <point x="170" y="385"/>
      <point x="215" y="412"/>
      <point x="323" y="412" type="curve" smooth="yes"/>
      <point x="355" y="412"/>
      <point x="407" y="411"/>
      <point x="454" y="409" type="curve"/>
      <point x="470" y="475" type="line"/>
      <point x="424" y="495"/>
      <point x="355" y="502"/>
    </contour>
  </outline>
</glyph>
<glyph name="e" format="2">
  <advance width="541"/>
  <unicode hex="0065"/>
  <anchor x="247" y="-13" name="bottom"/>
  <anchor x="450" y="19" name="ogonek"/>
  <anchor x="319" y="553" name="top"/>
  <outline>
    <contour>
      <point x="316" y="502" type="curve" smooth="yes"/>
      <point x="134" y="502"/>
      <point x="68" y="446"/>
      <point x="43" y="259" type="curve" smooth="yes"/>
      <point x="19" y="77"/>
      <point x="79" y="-12"/>
      <point x="250" y="-12" type="curve" smooth="yes"/>
      <point x="309" y="-12"/>
      <point x="397" y="-5"/>
      <point x="453" y="18" type="curve"/>
      <point x="446" y="90" type="line"/>
      <point x="388" y="83"/>
      <point x="319" y="78"/>
      <point x="266" y="78" type="curve" smooth="yes"/>
      <point x="180" y="78"/>
      <point x="132" y="104"/>
      <point x="155" y="259" type="curve" smooth="yes"/>
      <point x="174" y="385"/>
      <point x="204" y="412"/>
      <point x="298" y="412" type="curve" smooth="yes"/>
      <point x="374" y="412"/>
      <point x="403" y="413"/>
      <point x="397" y="352" type="curve" smooth="yes"/>
      <point x="390" y="297"/>
      <point x="364" y="280"/>
      <point x="308" y="277" type="curve" smooth="yes"/>
      <point x="86" y="257" type="line"/>
      <point x="74" y="178" type="line"/>
      <point x="309" y="198" type="line" smooth="yes"/>
      <point x="430" y="206"/>
      <point x="489" y="243"/>
      <point x="504" y="343" type="curve" smooth="yes"/>
      <point x="516" y="437"/>
      <point x="482" y="502"/>
    </contour>
  </outline>
</glyph>
<glyph name="f" format="2">
  <advance width="387"/>
  <unicode hex="0066"/>
  <outline>
    <contour>
      <point x="315" y="718" type="curve" smooth="yes"/>
      <point x="219" y="718"/>
      <point x="165" y="665"/>
      <point x="152" y="574" type="curve" smooth="yes"/>
      <point x="66" y="-36" type="line" smooth="yes"/>
      <point x="57" y="-97"/>
      <point x="33" y="-109"/>
      <point x="-25" y="-109" type="curve" smooth="yes"/>
      <point x="-99" y="-109" type="line"/>
      <point x="-117" y="-189" type="line"/>
      <point x="-63" y="-195"/>
      <point x="-23" y="-197"/>
      <point x="9" y="-197" type="curve" smooth="yes"/>
      <point x="105" y="-197"/>
      <point x="159" y="-144"/>
      <point x="172" y="-53" type="curve" smooth="yes"/>
      <point x="258" y="557" type="line" smooth="yes"/>
      <point x="267" y="618"/>
      <point x="291" y="630"/>
      <point x="349" y="630" type="curve" smooth="yes"/>
      <point x="443" y="630" type="line"/>
      <point x="461" y="710" type="line"/>
      <point x="421" y="716"/>
      <point x="351" y="718"/>
    </contour>
    <contour>
      <point x="395" y="489" type="line"/>
      <point x="143" y="489" type="line"/>
      <point x="51" y="484" type="line"/>
      <point x="41" y="406" type="line"/>
      <point x="384" y="406" type="line"/>
    </contour>
  </outline>
</glyph>
<glyph name="g" format="2">
  <advance width="577"/>
  <unicode hex="0067"/>
  <anchor x="332" y="553" name="top"/>
  <outline>
    <contour>
      <point x="425" y="474" type="line"/>
      <point x="374" y="122" type="line"/>
      <point x="404" y="110" type="line"/>
      <point x="375" y="70"/>
      <point x="368" y="28"/>
      <point x="360" y="-9" type="curve" smooth="yes"/>
      <point x="342" y="-94"/>
      <point x="260" y="-117"/>
      <point x="174" y="-117" type="curve" smooth="yes"/>
      <point x="93" y="-117"/>
      <point x="60" y="-116"/>
      <point x="23" y="-115" type="curve"/>
      <point x="12" y="-186" type="line"/>
      <point x="65" y="-205"/>
      <point x="150" y="-207"/>
      <point x="170" y="-207" type="curve" smooth="yes"/>
      <point x="368" y="-207"/>
      <point x="454" y="-119"/>
      <point x="469" y="15" type="curve" smooth="yes"/>
      <point x="533" y="474" type="line"/>
    </contour>
    <contour>
      <point x="274" y="502" type="curve" smooth="yes"/>
      <point x="162" y="502"/>
      <point x="77" y="479"/>
      <point x="45" y="251" type="curve" smooth="yes"/>
      <point x="15" y="40"/>
      <point x="76" y="-12"/>
      <point x="174" y="-12" type="curve" smooth="yes"/>
      <point x="306" y="-12"/>
      <point x="401" y="81"/>
      <point x="438" y="167" type="curve"/>
      <point x="415" y="212" type="line"/>
      <point x="331" y="127"/>
      <point x="276" y="81"/>
      <point x="201" y="81" type="curve" smooth="yes"/>
      <point x="147" y="81"/>
      <point x="134" y="103"/>
      <point x="154" y="244" type="curve" smooth="yes"/>
      <point x="175" y="395"/>
      <point x="198" y="412"/>
      <point x="317" y="412" type="curve" smooth="yes"/>
      <point x="345" y="412"/>
      <point x="411" y="411"/>
      <point x="485" y="409" type="curve"/>
      <point x="533" y="474" type="line"/>
      <point x="463" y="490"/>
      <point x="355" y="502"/>
    </contour>
  </outline>
</glyph>
<glyph name="j" format="2">
  <advance width="256"/>
  <unicode hex="006A"/>
  <outline>
    <contour>
      <point x="209" y="489" type="line"/>
      <point x="102" y="489" type="line"/>
      <point x="33" y="3" type="line" smooth="yes"/>
      <point x="24" y="-59"/>
      <point x="0" y="-104"/>
      <point x="-46" y="-152" type="curve"/>
      <point x="12" y="-202" type="line"/>
      <point x="81" y="-159"/>
      <point x="129" y="-84"/>
      <point x="140" y="-2" type="curve" smooth="yes"/>
    </contour>
    <contour>
      <point x="208" y="699" type="curve" smooth="yes"/>
      <point x="157" y="699" type="line"/>
      <point x="136" y="699"/>
      <point x="127" y="689"/>
      <point x="125" y="670" type="curve" smooth="yes"/>
      <point x="117" y="615" type="line"/>
      <point x="114" y="594"/>
      <point x="125" y="582"/>
      <point x="146" y="582" type="curve" smooth="yes"/>
      <point x="197" y="582" type="line"/>
      <point x="218" y="582"/>
      <point x="227" y="590"/>
      <point x="230" y="611" type="curve" smooth="yes"/>
      <point x="237" y="666" type="line"/>
      <point x="240" y="685"/>
      <point x="229" y="699"/>
    </contour>
  </outline>
</glyph>
<glyph name="k" format="2">
  <advance width="533"/>
  <unicode hex="006B"/>
  <guideline x="463" y="273" angle="82"/>
  <anchor x="251" y="0" name="bottom"/>
  <outline>
    <contour>
      <point x="236" y="700" type="line"/>
      <point x="128" y="700" type="line"/>
      <point x="30" y="0" type="line"/>
      <point x="137" y="0" type="line"/>
      <point x="166" y="195" type="line"/>
      <point x="162" y="211"/>
      <point x="158" y="227"/>
      <point x="154" y="243" type="curve"/>
      <point x="174" y="291"/>
      <point x="187" y="333"/>
      <point x="193" y="381" type="curve" smooth="yes"/>
    </contour>
    <contour>
      <point x="511" y="489" type="curve"/>
      <point x="401" y="489" type="line"/>
      <point x="374" y="384"/>
      <point x="245" y="299"/>
      <point x="133" y="244" type="curve"/>
      <point x="142" y="156" type="line"/>
      <point x="284" y="223"/>
      <point x="453" y="294"/>
    </contour>
    <contour>
      <point x="342" y="289" type="curve"/>
      <point x="258" y="257" type="line"/>
      <point x="362" y="0" type="line"/>
      <point x="477" y="0" type="line"/>
      <point x="385" y="213" type="line" smooth="yes"/>
      <point x="374" y="239"/>
      <point x="359" y="267"/>
    </contour>
  </outline>
</glyph>
<glyph name="l" format="2">
  <advance width="303"/>
  <unicode hex="006C"/>
  <anchor x="153" y="0" name="bottom"/>
  <anchor x="193" y="753" name="top"/>
  <outline>
    <contour>
      <point x="236" y="700" type="line"/>
      <point x="129" y="700" type="line"/>
      <point x="48" y="125" type="line" smooth="yes"/>
      <point x="36" y="39"/>
      <point x="80" y="-10"/>
      <point x="160" y="-10" type="curve" smooth="yes"/>
      <point x="184" y="-10"/>
      <point x="236" y="-6"/>
      <point x="257" y="4" type="curve"/>
      <point x="253" y="88" type="line"/>
      <point x="208" y="88" type="line" smooth="yes"/>
      <point x="164" y="88"/>
      <point x="151" y="102"/>
      <point x="158" y="146" type="curve" smooth="yes"/>
    </contour>
  </outline>
</glyph>
<glyph name="m" format="2">
  <advance width="871"/>
  <unicode hex="006D"/>
  <guideline x="259" y="303" angle="0"/>
  <anchor x="396" y="0" name="bottom"/>
  <outline>
    <contour>
      <point x="181" y="489" type="line"/>
      <point x="98" y="489" type="line"/>
      <point x="29" y="0" type="line"/>
      <point x="136" y="0" type="line"/>
      <point x="184" y="347" type="line"/>
      <point x="176" y="362" type="line"/>
    </contour>
    <contour>
      <point x="386" y="502" type="curve" smooth="yes"/>
      <point x="315" y="502"/>
      <point x="250" y="465"/>
      <point x="168" y="378" type="curve"/>
      <point x="171" y="302" type="line"/>
      <point x="260" y="384"/>
      <point x="296" y="411"/>
      <point x="345" y="411" type="curve" smooth="yes"/>
      <point x="390" y="411"/>
      <point x="398" y="388"/>
      <point x="391" y="337" type="curve" smooth="yes"/>
      <point x="344" y="0" type="line"/>
      <point x="448" y="0" type="line"/>
      <point x="499" y="365" type="line" smooth="yes"/>
      <point x="511" y="448"/>
      <point x="471" y="502"/>
    </contour>
    <contour>
      <point x="700" y="502" type="curve" smooth="yes"/>
      <point x="630" y="502"/>
      <point x="568" y="467"/>
      <point x="486" y="379" type="curve"/>
      <point x="488" y="303" type="line"/>
      <point x="578" y="388"/>
      <point x="612" y="411"/>
      <point x="657" y="411" type="curve" smooth="yes"/>
      <point x="693" y="411"/>
      <point x="711" y="396"/>
      <point x="703" y="337" type="curve" smooth="yes"/>
      <point x="656" y="0" type="line"/>
      <point x="763" y="0" type="line"/>
      <point x="814" y="365" type="line" smooth="yes"/>
      <point x="826" y="448"/>
      <point x="786" y="502"/>
    </contour>
  </outline>
</glyph>
<glyph name="o" format="2">
  <advance width="567"/>
  <unicode hex="006F"/>
  <anchor x="239" y="-13" name="bottom"/>
  <anchor x="288" y="0" name="ogonek"/>
  <anchor x="319" y="553" name="top"/>
  <outline>
    <contour>
      <point x="308" y="502" type="curve" smooth="yes"/>
      <point x="138" y="502"/>
      <point x="66" y="432"/>
      <point x="41" y="248" type="curve" smooth="yes"/>
      <point x="15" y="59"/>
      <point x="83" y="-13"/>
      <point x="248" y="-13" type="curve" smooth="yes"/>
      <point x="414" y="-13"/>
      <point x="487" y="55"/>
      <point x="513" y="240" type="curve" smooth="yes"/>
      <point x="540" y="429"/>
      <point x="475" y="502"/>
    </contour>
    <contour>
      <point x="308" y="412" type="curve" smooth="yes"/>
      <point x="400" y="412"/>
      <point x="421" y="377"/>
      <point x="402" y="248" type="curve" smooth="yes"/>
      <point x="384" y="116"/>
      <point x="346" y="77"/>
      <point x="248" y="77" type="curve" smooth="yes"/>
      <point x="155" y="77"/>
      <point x="135" y="112"/>
      <point x="153" y="240" type="curve" smooth="yes"/>
      <point x="173" y="379"/>
      <point x="212" y="412"/>
    </contour>
  </outline>
</glyph>
<glyph name="s" format="2">
  <advance width="509"/>
  <unicode hex="0073"/>
  <anchor x="206" y="-11" name="bottom"/>
  <anchor x="296" y="553" name="top"/>
  <outline>
    <contour>
      <point x="264" y="502" type="curve" smooth="yes"/>
      <point x="134" y="504"/>
      <point x="66" y="476"/>
      <point x="56" y="383" type="curve" smooth="yes"/>
      <point x="48" y="315"/>
      <point x="79" y="274"/>
      <point x="151" y="239" type="curve" smooth="yes"/>
      <point x="278" y="179" type="line" smooth="yes"/>
      <point x="320" y="159"/>
      <point x="343" y="154"/>
      <point x="338" y="122" type="curve" smooth="yes"/>
      <point x="332" y="88"/>
      <point x="303" y="79"/>
      <point x="179" y="79" type="curve" smooth="yes"/>
      <point x="137" y="79"/>
      <point x="71" y="80"/>
      <point x="29" y="83" type="curve"/>
      <point x="17" y="4" type="line"/>
      <point x="88" y="-3"/>
      <point x="95" y="-11"/>
      <point x="209" y="-11" type="curve" smooth="yes"/>
      <point x="348" y="-11"/>
      <point x="428" y="1"/>
      <point x="443" y="113" type="curve" smooth="yes"/>
      <point x="453" y="187"/>
      <point x="423" y="219"/>
      <point x="345" y="256" type="curve" smooth="yes"/>
      <point x="217" y="316" type="line" smooth="yes"/>
      <point x="179" y="334"/>
      <point x="156" y="343"/>
      <point x="160" y="376" type="curve" smooth="yes"/>
      <point x="164" y="410"/>
      <point x="192" y="412"/>
      <point x="267" y="412" type="curve" smooth="yes"/>
      <point x="343" y="412"/>
      <point x="401" y="410"/>
      <point x="463" y="408" type="curve"/>
      <point x="476" y="485" type="line"/>
      <point x="421" y="494"/>
      <point x="334" y="501"/>
    </contour>
  </outline>
</glyph>
<glyph name="u" format="2">
  <advance width="571"/>
  <unicode hex="0075"/>
  <anchor x="249" y="-11" name="bottom"/>
  <anchor x="460" y="0" name="ogonek"/>
  <anchor x="326" y="558" name="top"/>
  <outline>
    <contour>
      <point x="203" y="489" type="line"/>
      <point x="95" y="489" type="line"/>
      <point x="44" y="124" type="line" smooth="yes"/>
      <point x="32" y="41"/>
      <point x="71" y="-13"/>
      <point x="162" y="-13" type="curve" smooth="yes"/>
      <point x="242" y="-13"/>
      <point x="312" y="29"/>
      <point x="397" y="114" type="curve"/>
      <point x="386" y="188" type="line"/>
      <point x="303" y="115"/>
      <point x="258" y="79"/>
      <point x="200" y="79" type="curve" smooth="yes"/>
      <point x="158" y="79"/>
      <point x="147" y="98"/>
      <point x="155" y="152" type="curve" smooth="yes"/>
    </contour>
    <contour>
      <point x="528" y="489" type="line"/>
      <point x="421" y="489" type="line"/>
      <point x="375" y="149" type="line"/>
      <point x="383" y="135" type="line"/>
      <point x="377" y="0" type="line"/>
      <point x="460" y="0" type="line"/>
    </contour>
  </outline>
</glyph>
<glyph name="v" format="2">
  <advance width="541"/>
  <unicode hex="0076"/>
  <outline>
    <contour>
      <point x="529" y="489" type="curve"/>
      <point x="417" y="489" type="line"/>
      <point x="402" y="394"/>
      <point x="389" y="336"/>
      <point x="358" y="255" type="curve" smooth="yes"/>
      <point x="332" y="183"/>
      <point x="309" y="137"/>
      <point x="293" y="115" type="curve" smooth="yes"/>
      <point x="274" y="89"/>
      <point x="259" y="84"/>
      <point x="233" y="84" type="curve" smooth="yes"/>
      <point x="219" y="84" type="line"/>
      <point x="152" y="489" type="line"/>
      <point x="40" y="489" type="line"/>
      <point x="133" y="28" type="line" smooth="yes"/>
      <point x="136" y="12"/>
      <point x="149" y="0"/>
      <point x="167" y="0" type="curve" smooth="yes"/>
      <point x="258" y="0" type="line" smooth="yes"/>
      <point x="318" y="0"/>
      <point x="343" y="22"/>
      <point x="371" y="62" type="curve" smooth="yes"/>
      <point x="392" y="92"/>
      <point x="423" y="151"/>
      <point x="447" y="212" type="curve" smooth="yes"/>
      <point x="476" y="285"/>
      <point x="513" y="402"/>
    </contour>
  </outline>
</glyph>
<glyph name="y" format="2">
  <advance width="550"/>
  <unicode hex="0079"/>
  <anchor x="431" y="-11" name="bottom"/>
  <anchor x="294" y="553" name="top"/>
  <outline>
    <contour>
      <point x="537" y="489" type="curve"/>
      <point x="425" y="489" type="line"/>
      <point x="398" y="333"/>
      <point x="361" y="233"/>
      <point x="310" y="122" type="curve" smooth="yes"/>
      <point x="224" y="-64"/>
      <point x="139" y="-104"/>
      <point x="34" y="-127" type="curve"/>
      <point x="54" y="-204" type="line"/>
      <point x="192" y="-181"/>
      <point x="292" y="-127"/>
      <point x="403" y="89" type="curve" smooth="yes"/>
      <point x="473" y="225"/>
      <point x="506" y="346"/>
    </contour>
    <contour>
      <point x="152" y="489" type="line"/>
      <point x="39" y="489" type="line"/>
      <point x="132" y="48" type="line" smooth="yes"/>
      <point x="138" y="19"/>
      <point x="162" y="0"/>
      <point x="193" y="0" type="curve" smooth="yes"/>
      <point x="253" y="0" type="line"/>
      <point x="302" y="84" type="line"/>
      <point x="242" y="84" type="line" smooth="yes"/>
      <point x="232" y="84"/>
      <point x="225" y="90"/>
      <point x="223" y="100" type="curve" smooth="yes"/>
    </contour>
  </outline>
</glyph>
<glyph name="z" format="2">
  <advance width="511"/>
  <unicode hex="007A"/>
  <anchor x="221" y="0" name="bottom"/>
  <anchor x="287" y="553" name="top"/>
  <outline>
    <contour>
      <point x="356" y="403" type="line"/>
      <point x="16" y="87" type="line"/>
      <point x="138" y="86" type="line"/>
      <point x="478" y="402" type="line"/>
    </contour>
    <contour>
      <point x="437" y="87" type="line"/>
      <point x="17" y="87" type="line"/>
      <point x="5" y="0" type="line"/>
      <point x="425" y="0" type="line"/>
    </contour>
    <contour>
      <point x="489" y="489" type="line"/>
      <point x="77" y="489" type="line"/>
      <point x="65" y="402" type="line"/>
      <point x="477" y="402" type="line"/>
    </contour>
  </outline>
</glyph>
<glyph name="braceright" format="2">
  <advance width="327"/>
  <unicode hex="007D"/>
  <outline>
    <contour>
      <point x="104" y="768" type="curve"/>
      <point x="100" y="701" type="line"/>
      <point x="166" y="701"/>
      <point x="180" y="683"/>
      <point x="172" y="626" type="curve" smooth="yes"/>
      <point x="148" y="457" type="line" smooth="yes"/>
      <point x="135" y="374"/>
      <point x="154" y="342"/>
      <point x="224" y="329" type="curve"/>
      <point x="141" y="305"/>
      <point x="120" y="277"/>
      <point x="109" y="207" type="curve" smooth="yes"/>
      <point x="77" y="-20" type="line" smooth="yes"/>
      <point x="69" y="-77"/>
      <point x="44" y="-98"/>
      <point x="-22" y="-98" type="curve"/>
      <point x="-26" y="-165" type="line"/>
      <point x="116" y="-178"/>
      <point x="165" y="-127"/>
      <point x="178" y="-32" type="curve" smooth="yes"/>
      <point x="213" y="217" type="line" smooth="yes"/>
      <point x="220" y="268"/>
      <point x="241" y="274"/>
      <point x="286" y="290" type="curve"/>
      <point x="296" y="364" type="line"/>
      <point x="247" y="379"/>
      <point x="240" y="377"/>
      <point x="248" y="438" type="curve" smooth="yes"/>
      <point x="275" y="631" type="line" smooth="yes"/>
      <point x="287" y="719"/>
      <point x="240" y="782"/>
    </contour>
  </outline>
</glyph>
<glyph name="asciitilde" format="2">
  <advance width="518"/>
  <unicode hex="007E"/>
  <outline>
    <contour>
      <point x="151" y="354" type="curve" smooth="yes"/>
      <point x="104" y="356"/>
      <point x="62" y="317"/>
      <point x="61" y="225" type="curve"/>
      <point x="115" y="221" type="line"/>
      <point x="120" y="261"/>
      <point x="132" y="279"/>
      <point x="168" y="275" type="curve" smooth="yes"/>
      <point x="216" y="269"/>
      <point x="292" y="223"/>
      <point x="366" y="220" type="curve" smooth="yes"/>
      <point x="416" y="217"/>
      <point x="455" y="259"/>
      <point x="455" y="347" type="curve"/>
      <point x="402" y="351" type="line"/>
      <point x="396" y="312"/>
      <point x="384" y="295"/>
      <point x="348" y="299" type="curve" smooth="yes"/>
      <point x="299" y="305"/>
      <point x="218" y="351"/>
    </contour>
  </outline>
</glyph>
<glyph name="cent" format="2">
  <advance width="506"/>
  <unicode hex="00A2"/>
  <outline>
    <contour>
      <point x="320" y="604" type="curve" smooth="yes"/>
      <point x="151" y="604"/>
      <point x="82" y="538"/>
      <point x="55" y="351" type="curve" smooth="yes"/>
      <point x="28" y="165"/>
      <point x="84" y="90"/>
      <point x="259" y="90" type="curve" smooth="yes"/>
      <point x="316" y="90"/>
      <point x="381" y="98"/>
      <point x="434" y="117" type="curve"/>
      <point x="427" y="190" type="line"/>
      <point x="375" y="182"/>
      <point x="312" y="180"/>
      <point x="279" y="180" type="curve" smooth="yes"/>
      <point x="177" y="180"/>
      <point x="150" y="202"/>
      <point x="167" y="343" type="curve" smooth="yes"/>
      <point x="184" y="487"/>
      <point x="229" y="514"/>
      <point x="337" y="514" type="curve" smooth="yes"/>
      <point x="369" y="514"/>
      <point x="421" y="513"/>
      <point x="468" y="511" type="curve"/>
      <point x="484" y="577" type="line"/>
      <point x="438" y="597"/>
      <point x="369" y="604"/>
    </contour>
    <contour>
      <point x="276" y="141" type="line"/>
      <point x="226" y="141" type="line"/>
      <point x="193" y="0" type="line"/>
      <point x="243" y="0" type="line"/>
    </contour>
    <contour>
      <point x="370" y="545" type="line"/>
      <point x="320" y="545" type="line"/>
      <point x="228" y="139" type="line"/>
      <point x="278" y="139" type="line"/>
    </contour>
    <contour>
      <point x="407" y="690" type="line"/>
      <point x="357" y="690" type="line"/>
      <point x="321" y="543" type="line"/>
      <point x="371" y="543" type="line"/>
    </contour>
  </outline>
</glyph>
<glyph name="sterling" format="2">
  <advance width="572"/>
  <unicode hex="00A3"/>
  <outline>
    <contour>
      <point x="366" y="702" type="curve" smooth="yes"/>
      <point x="240" y="702"/>
      <point x="167" y="677"/>
      <point x="153" y="521" type="curve" smooth="yes"/>
      <point x="133" y="272" type="line" smooth="yes"/>
      <point x="127" y="195"/>
      <point x="101" y="127"/>
      <point x="28" y="96" type="curve"/>
      <point x="15" y="0" type="line"/>
      <point x="484" y="0" type="line"/>
      <point x="497" y="95" type="line"/>
      <point x="213" y="95" type="line" smooth="yes"/>
      <point x="190" y="95"/>
      <point x="167" y="95"/>
      <point x="145" y="89" type="curve"/>
      <point x="207" y="134"/>
      <point x="234" y="175"/>
      <point x="242" y="268" type="curve" smooth="yes"/>
      <point x="260" y="514" type="line" smooth="yes"/>
      <point x="266" y="587"/>
      <point x="297" y="606"/>
      <point x="371" y="606" type="curve" smooth="yes"/>
      <point x="472" y="606"/>
      <point x="495" y="605"/>
      <point x="543" y="603" type="curve"/>
      <point x="556" y="692" type="line"/>
      <point x="483" y="699"/>
      <point x="410" y="702"/>
    </contour>
    <contour>
      <point x="450" y="396" type="line"/>
      <point x="69" y="396" type="line"/>
      <point x="60" y="332" type="line"/>
      <point x="438" y="332" type="line"/>
    </contour>
  </outline>
</glyph>
<glyph name="brokenbar" format="2">
  <advance width="250"/>
  <unicode hex="00A6"/>
  <outline>
    <contour>
      <point x="232" y="781" type="line"/>
      <point x="155" y="781" type="line"/>
      <point x="98" y="381" type="line"/>
      <point x="176" y="381" type="line"/>
    </contour>
    <contour>
      <point x="155" y="231" type="line"/>
      <point x="77" y="231" type="line"/>
      <point x="21" y="-169" type="line"/>
      <point x="99" y="-169" type="line"/>
    </contour>
  </outline>
</glyph>
<glyph name="section" format="2">
  <advance width="545"/>
  <unicode hex="00A7"/>
  <outline>
    <contour>
      <point x="86" y="375" type="line"/>
      <point x="43" y="262"/>
      <point x="50" y="192"/>
      <point x="143" y="139" type="curve" smooth="yes"/>
      <point x="283" y="55" type="line" smooth="yes"/>
      <point x="314" y="36"/>
      <point x="335" y="17"/>
      <point x="328" y="-24" type="curve" smooth="yes"/>
      <point x="320" y="-74"/>
      <point x="272" y="-78"/>
      <point x="196" y="-78" type="curve" smooth="yes"/>
      <point x="125" y="-77"/>
      <point x="80" y="-76"/>
      <point x="18" y="-72" type="curve"/>
      <point x="4" y="-156" type="line"/>
      <point x="76" y="-164"/>
      <point x="164" y="-167"/>
      <point x="224" y="-168" type="curve" smooth="yes"/>
      <point x="347" y="-168"/>
      <point x="425" y="-153"/>
      <point x="442" y="-36" type="curve" smooth="yes"/>
      <point x="454" y="55"/>
      <point x="413" y="92"/>
      <point x="361" y="124" type="curve" smooth="yes"/>
      <point x="208" y="219" type="line" smooth="yes"/>
      <point x="150" y="255"/>
      <point x="146" y="292"/>
      <point x="163" y="375" type="curve"/>
    </contour>
    <contour>
      <point x="313" y="703" type="curve" smooth="yes"/>
      <point x="185" y="703"/>
      <point x="111" y="682"/>
      <point x="96" y="572" type="curve" smooth="yes"/>
      <point x="83" y="482"/>
      <point x="124" y="446"/>
      <point x="177" y="413" type="curve" smooth="yes"/>
      <point x="329" y="318" type="line" smooth="yes"/>
      <point x="386" y="282"/>
      <point x="392" y="239"/>
      <point x="375" y="156" type="curve"/>
      <point x="452" y="156" type="line"/>
      <point x="494" y="268"/>
      <point x="489" y="339"/>
      <point x="398" y="395" type="curve" smooth="yes"/>
      <point x="255" y="482" type="line" smooth="yes"/>
      <point x="224" y="501"/>
      <point x="203" y="520"/>
      <point x="210" y="561" type="curve" smooth="yes"/>
      <point x="218" y="609"/>
      <point x="256" y="613"/>
      <point x="343" y="612" type="curve" smooth="yes"/>
      <point x="430" y="611"/>
      <point x="464" y="611"/>
      <point x="520" y="607" type="curve"/>
      <point x="534" y="691" type="line"/>
      <point x="469" y="698"/>
      <point x="375" y="702"/>
    </contour>
  </outline>
</glyph>
<glyph name="ordfeminine" format="2">
  <advance width="447"/>
  <unicode hex="00AA"/>
  <outline>
    <contour>
      <point x="236" y="610" type="curve" smooth="yes"/>
      <point x="160" y="610"/>
      <point x="94" y="600"/>
      <point x="74" y="442" type="curve" smooth="yes"/>
      <point x="57" y="310"/>
      <point x="96" y="265"/>
      <point x="171" y="265" type="curve" smooth="yes"/>
      <point x="268" y="265"/>
      <point x="330" y="331"/>
      <point x="349" y="382" type="curve"/>
      <point x="330" y="414" type="line"/>
      <point x="274" y="365"/>
      <point x="231" y="337"/>
      <point x="188" y="337" type="curve" smooth="yes"/>
      <point x="154" y="337"/>
      <point x="144" y="348"/>
      <point x="156" y="437" type="curve" smooth="yes"/>
      <point x="169" y="536"/>
      <point x="182" y="543"/>
      <point x="265" y="543" type="curve" smooth="yes"/>
      <point x="277" y="543"/>
      <point x="330" y="543"/>
      <point x="382" y="542" type="curve"/>
      <point x="418" y="590" type="line"/>
      <point x="369" y="602"/>
      <point x="289" y="610"/>
    </contour>
    <contour>
      <point x="338" y="590" type="line"/>
      <point x="303" y="346" type="line"/>
      <point x="308" y="339" type="line"/>
      <point x="308" y="272" type="line"/>
      <point x="374" y="272" type="line"/>
      <point x="418" y="590" type="line"/>
    </contour>
  </outline>
</glyph>
<glyph name="degree" format="2">
  <advance width="357"/>
  <unicode hex="00B0"/>
  <outline>
    <contour>
      <point x="225" y="703" type="curve" smooth="yes"/>
      <point x="148" y="703"/>
      <point x="92" y="652"/>
      <point x="86" y="579" type="curve" smooth="yes"/>
      <point x="80" y="508"/>
      <point x="123" y="445"/>
      <point x="209" y="445" type="curve" smooth="yes"/>
      <point x="286" y="445"/>
      <point x="342" y="496"/>
      <point x="349" y="570" type="curve" smooth="yes"/>
      <point x="356" y="643"/>
      <point x="309" y="703"/>
    </contour>
    <contour>
      <point x="222" y="640" type="curve" smooth="yes"/>
      <point x="265" y="640"/>
      <point x="285" y="611"/>
      <point x="282" y="573" type="curve" smooth="yes"/>
      <point x="279" y="534"/>
      <point x="253" y="508"/>
      <point x="213" y="508" type="curve" smooth="yes"/>
      <point x="173" y="508"/>
      <point x="148" y="535"/>
      <point x="152" y="577" type="curve" smooth="yes"/>
      <point x="156" y="616"/>
      <point x="184" y="640"/>
    </contour>
  </outline>
</glyph>
<glyph name="plusminus" format="2">
  <advance width="581"/>
  <unicode hex="00B1"/>
  <outline>
    <contour>
      <point x="365" y="531" type="line"/>
      <point x="283" y="531" type="line"/>
      <point x="236" y="195" type="line"/>
      <point x="317" y="195" type="line"/>
    </contour>
    <contour>
      <point x="492" y="140" type="line"/>
      <point x="46" y="140" type="line"/>
      <point x="35" y="61" type="line"/>
      <point x="481" y="61" type="line"/>
    </contour>
    <contour>
      <point x="529" y="403" type="line"/>
      <point x="83" y="403" type="line"/>
      <point x="72" y="323" type="line"/>
      <point x="518" y="323" type="line"/>
    </contour>
  </outline>
</glyph>
<glyph name="twosuperior" format="2">
  <advance width="433"/>
  <unicode hex="00B2"/>
  <outline>
    <contour>
      <point x="280" y="781" type="curve" smooth="yes"/>
      <point x="247" y="781"/>
      <point x="200" y="779"/>
      <point x="135" y="767" type="curve"/>
      <point x="130" y="704" type="line"/>
      <point x="188" y="709"/>
      <point x="221" y="710"/>
      <point x="264" y="710" type="curve" smooth="yes"/>
      <point x="304" y="710"/>
      <point x="330" y="707"/>
      <point x="330" y="682" type="curve" smooth="yes"/>
      <point x="330" y="642"/>
      <point x="278" y="592"/>
      <point x="232" y="554" type="curve" smooth="yes"/>
      <point x="98" y="442" type="line" smooth="yes"/>
      <point x="87" y="432"/>
      <point x="82" y="421"/>
      <point x="80" y="407" type="curve" smooth="yes"/>
      <point x="73" y="360" type="line"/>
      <point x="391" y="360" type="line"/>
      <point x="403" y="434" type="line"/>
      <point x="256" y="435" type="line" smooth="yes"/>
      <point x="232" y="435"/>
      <point x="215" y="435"/>
      <point x="191" y="432" type="curve"/>
      <point x="324" y="545" type="line" smooth="yes"/>
      <point x="377" y="590"/>
      <point x="424" y="641"/>
      <point x="424" y="703" type="curve" smooth="yes"/>
      <point x="424" y="767"/>
      <point x="374" y="781"/>
    </contour>
  </outline>
</glyph>
<glyph name="threesuperior" format="2">
  <advance width="415"/>
  <unicode hex="00B3"/>
  <outline>
    <contour>
      <point x="275" y="782" type="curve" smooth="yes"/>
      <point x="229" y="782"/>
      <point x="186" y="778"/>
      <point x="138" y="771" type="curve"/>
      <point x="133" y="710" type="line"/>
      <point x="165" y="712"/>
      <point x="210" y="713"/>
      <point x="255" y="713" type="curve" smooth="yes"/>
      <point x="311" y="713"/>
      <point x="330" y="705"/>
      <point x="330" y="678" type="curve" smooth="yes"/>
      <point x="330" y="628"/>
      <point x="303" y="606"/>
      <point x="249" y="606" type="curve" smooth="yes"/>
      <point x="164" y="606" type="line"/>
      <point x="156" y="544" type="line"/>
      <point x="241" y="544" type="line" smooth="yes"/>
      <point x="298" y="544"/>
      <point x="312" y="525"/>
      <point x="312" y="500" type="curve" smooth="yes"/>
      <point x="312" y="439"/>
      <point x="278" y="421"/>
      <point x="213" y="421" type="curve" smooth="yes"/>
      <point x="168" y="421"/>
      <point x="135" y="422"/>
      <point x="85" y="425" type="curve"/>
      <point x="72" y="363" type="line"/>
      <point x="119" y="357"/>
      <point x="171" y="352"/>
      <point x="227" y="352" type="curve" smooth="yes"/>
      <point x="337" y="352"/>
      <point x="396" y="391"/>
      <point x="396" y="503" type="curve" smooth="yes"/>
      <point x="396" y="545"/>
      <point x="376" y="571"/>
      <point x="322" y="579" type="curve"/>
      <point x="322" y="581" type="line"/>
      <point x="387" y="588"/>
      <point x="415" y="644"/>
      <point x="415" y="709" type="curve" smooth="yes"/>
      <point x="415" y="761"/>
      <point x="374" y="782"/>
    </contour>
  </outline>
</glyph>
<glyph name="paragraph" format="2">
  <advance width="588"/>
  <unicode hex="00B6"/>
  <outline>
    <contour>
      <point x="391" y="702" type="curve" smooth="yes"/>
      <point x="173" y="702"/>
      <point x="80" y="637"/>
      <point x="54" y="454" type="curve" smooth="yes"/>
      <point x="31" y="286"/>
      <point x="92" y="213"/>
      <point x="259" y="200" type="curve"/>
      <point x="379" y="634" type="line"/>
      <point x="419" y="634"/>
      <point x="494" y="632"/>
      <point x="540" y="623" type="curve"/>
      <point x="552" y="685" type="line"/>
      <point x="505" y="697"/>
      <point x="438" y="702"/>
    </contour>
    <contour>
      <point x="394" y="685" type="line"/>
      <point x="314" y="685" type="line"/>
      <point x="189" y="-210" type="line"/>
      <point x="268" y="-210" type="line"/>
    </contour>
    <contour>
      <point x="552" y="685" type="line"/>
      <point x="472" y="685" type="line"/>
      <point x="376" y="0" type="line"/>
      <point x="456" y="0" type="line"/>
    </contour>
  </outline>
</glyph>
<glyph name="ordmasculine" format="2">
  <advance width="439"/>
  <unicode hex="00BA"/>
  <outline>
    <contour>
      <point x="256" y="610" type="curve" smooth="yes"/>
      <point x="136" y="610"/>
      <point x="88" y="566"/>
      <point x="71" y="441" type="curve" smooth="yes"/>
      <point x="53" y="313"/>
      <point x="100" y="265"/>
      <point x="220" y="265" type="curve" smooth="yes"/>
      <point x="337" y="265"/>
      <point x="388" y="308"/>
      <point x="405" y="433" type="curve" smooth="yes"/>
      <point x="424" y="562"/>
      <point x="380" y="610"/>
    </contour>
    <contour>
      <point x="256" y="544" type="curve" smooth="yes"/>
      <point x="320" y="544"/>
      <point x="334" y="523"/>
      <point x="323" y="441" type="curve" smooth="yes"/>
      <point x="311" y="356"/>
      <point x="287" y="331"/>
      <point x="222" y="331" type="curve" smooth="yes"/>
      <point x="156" y="331"/>
      <point x="142" y="352"/>
      <point x="153" y="433" type="curve" smooth="yes"/>
      <point x="166" y="519"/>
      <point x="183" y="544"/>
    </contour>
  </outline>
</glyph>
<glyph name="onequarter" format="2">
  <advance width="868"/>
  <unicode hex="00BC"/>
  <outline>
    <contour>
      <point x="705" y="690" type="line"/>
      <point x="628" y="690" type="line"/>
      <point x="96" y="0" type="line"/>
      <point x="173" y="0" type="line"/>
    </contour>
    <contour>
      <point x="282" y="690" type="line"/>
      <point x="199" y="690" type="line"/>
      <point x="80" y="648" type="line"/>
      <point x="81" y="590" type="line"/>
      <point x="191" y="618" type="line"/>
      <point x="186" y="603"/>
      <point x="184" y="589"/>
      <point x="182" y="575" type="curve" smooth="yes"/>
      <point x="140" y="276" type="line"/>
      <point x="224" y="276" type="line"/>
    </contour>
    <contour>
      <point x="695" y="414" type="line"/>
      <point x="613" y="414" type="line"/>
      <point x="458" y="164" type="line" smooth="yes"/>
      <point x="430" y="118"/>
      <point x="459" y="91"/>
      <point x="494" y="91" type="curve" smooth="yes"/>
      <point x="746" y="91" type="line"/>
      <point x="807" y="98" type="line"/>
      <point x="816" y="156" type="line"/>
      <point x="559" y="156" type="line" smooth="yes"/>
      <point x="545" y="156"/>
      <point x="543" y="163"/>
      <point x="549" y="174" type="curve" smooth="yes"/>
    </contour>
    <contour>
      <point x="787" y="334" type="line"/>
      <point x="722" y="334" type="line"/>
      <point x="698" y="268" type="line"/>
      <point x="662" y="0" type="line"/>
      <point x="740" y="0" type="line"/>
    </contour>
  </outline>
</glyph>
<glyph name="AE" format="2">
  <advance width="915"/>
  <unicode hex="00C6"/>
  <anchor x="579" y="732" name="top"/>
  <outline>
    <contour>
      <point x="615" y="691" type="curve" smooth="yes"/>
      <point x="476" y="691"/>
      <point x="417" y="666"/>
      <point x="355" y="575" type="curve" smooth="yes"/>
      <point x="-47" y="0" type="line"/>
      <point x="71" y="0" type="line"/>
      <point x="455" y="556" type="line" smooth="yes"/>
      <point x="476" y="587"/>
      <point x="497" y="607"/>
      <point x="515" y="618" type="curve"/>
      <point x="520" y="618" type="line"/>
      <point x="502" y="605"/>
      <point x="487" y="576"/>
      <point x="484" y="549" type="curve" smooth="yes"/>
      <point x="428" y="149" type="line" smooth="yes"/>
      <point x="413" y="52"/>
      <point x="469" y="-2"/>
      <point x="563" y="-2" type="curve" smooth="yes"/>
      <point x="652" y="-2"/>
      <point x="743" y="-1"/>
      <point x="831" y="6" type="curve"/>
      <point x="836" y="93" type="line"/>
      <point x="583" y="93" type="line" smooth="yes"/>
      <point x="539" y="93"/>
      <point x="527" y="108"/>
      <point x="533" y="153" type="curve" smooth="yes"/>
      <point x="585" y="533" type="line" smooth="yes"/>
      <point x="592" y="581"/>
      <point x="617" y="597"/>
      <point x="655" y="597" type="curve" smooth="yes"/>
      <point x="906" y="597" type="line"/>
      <point x="921" y="684" type="line"/>
      <point x="828" y="690"/>
      <point x="742" y="691"/>
    </contour>
    <contour>
      <point x="477" y="301" type="line"/>
      <point x="175" y="303" type="line"/>
      <point x="155" y="206" type="line"/>
      <point x="464" y="206" type="line"/>
    </contour>
    <contour>
      <point x="476" y="405" type="line"/>
      <point x="463" y="318" type="line"/>
      <point x="830" y="318" type="line"/>
      <point x="841" y="405" type="line"/>
    </contour>
  </outline>
</glyph>
<glyph name="Eth" format="2">
  <advance width="664"/>
  <unicode hex="00D0"/>
  <outline>
    <contour>
      <point x="350" y="395" type="line"/>
      <point x="34" y="395" type="line"/>
      <point x="26" y="335" type="line"/>
      <point x="342" y="335" type="line"/>
    </contour>
    <component base="D"/>
  </outline>
</glyph>
<glyph name="Thorn" format="2">
  <advance width="592"/>
  <unicode hex="00DE"/>
  <outline>
    <contour>
      <point x="357" y="572" type="curve" smooth="yes"/>
      <point x="245" y="572"/>
      <point x="197" y="571"/>
      <point x="119" y="563" type="curve"/>
      <point x="123" y="473" type="line"/>
      <point x="152" y="476"/>
      <point x="238" y="477"/>
      <point x="353" y="477" type="curve" smooth="yes"/>
      <point x="443" y="477"/>
      <point x="463" y="454"/>
      <point x="449" y="352" type="curve" smooth="yes"/>
      <point x="434" y="247"/>
      <point x="399" y="221"/>
      <point x="305" y="220" type="curve" smooth="yes"/>
      <point x="232" y="220"/>
      <point x="152" y="220"/>
      <point x="80" y="220" type="curve"/>
      <point x="73" y="153" type="line"/>
      <point x="98" y="142"/>
      <point x="202" y="125"/>
      <point x="319" y="125" type="curve" smooth="yes"/>
      <point x="468" y="125"/>
      <point x="535" y="169"/>
      <point x="560" y="344" type="curve" smooth="yes"/>
      <point x="585" y="522"/>
      <point x="511" y="572"/>
    </contour>
    <contour>
      <point x="247" y="690" type="line"/>
      <point x="136" y="690" type="line"/>
      <point x="39" y="0" type="line"/>
      <point x="150" y="0" type="line"/>
    </contour>
  </outline>
</glyph>
<glyph name="divide" format="2">
  <advance width="559"/>
  <unicode hex="00F7"/>
  <outline>
    <contour>
      <point x="509" y="334" type="line"/>
      <point x="63" y="334" type="line"/>
      <point x="51" y="255" type="line"/>
      <point x="497" y="255" type="line"/>
    </contour>
    <contour>
      <point x="272" y="176" type="curve" smooth="yes"/>
      <point x="245" y="176" type="line" smooth="yes"/>
      <point x="221" y="176"/>
      <point x="208" y="164"/>
      <point x="205" y="139" type="curve" smooth="yes"/>
      <point x="199" y="96" type="line" smooth="yes"/>
      <point x="195" y="68"/>
      <point x="206" y="55"/>
      <point x="234" y="55" type="curve" smooth="yes"/>
      <point x="261" y="55" type="line" smooth="yes"/>
      <point x="286" y="55"/>
      <point x="299" y="66"/>
      <point x="302" y="91" type="curve" smooth="yes"/>
      <point x="309" y="135" type="line" smooth="yes"/>
      <point x="313" y="163"/>
      <point x="301" y="176"/>
    </contour>
    <contour>
      <point x="323" y="533" type="curve" smooth="yes"/>
      <point x="296" y="533" type="line" smooth="yes"/>
      <point x="271" y="533"/>
      <point x="258" y="521"/>
      <point x="255" y="496" type="curve" smooth="yes"/>
      <point x="249" y="452" type="line" smooth="yes"/>
      <point x="245" y="425"/>
      <point x="257" y="412"/>
      <point x="285" y="412" type="curve" smooth="yes"/>
      <point x="312" y="412" type="line" smooth="yes"/>
      <point x="337" y="412"/>
      <point x="350" y="423"/>
      <point x="353" y="448" type="curve" smooth="yes"/>
      <point x="359" y="492" type="line" smooth="yes"/>
      <point x="363" y="520"/>
      <point x="352" y="533"/>
    </contour>
  </outline>
</glyph>
<glyph name="thorn" format="2">
  <advance width="576"/>
  <unicode hex="00FE"/>
  <outline>
    <contour>
      <point x="389" y="501" type="curve" smooth="yes"/>
      <point x="260" y="501"/>
      <point x="164" y="410"/>
      <point x="126" y="322" type="curve"/>
      <point x="149" y="277" type="line"/>
      <point x="232" y="361"/>
      <point x="288" y="408"/>
      <point x="363" y="408" type="curve" smooth="yes"/>
      <point x="415" y="408"/>
      <point x="428" y="388"/>
      <point x="408" y="245" type="curve" smooth="yes"/>
      <point x="387" y="94"/>
      <point x="365" y="77"/>
      <point x="244" y="77" type="curve" smooth="yes"/>
      <point x="221" y="77"/>
      <point x="153" y="78"/>
      <point x="79" y="80" type="curve"/>
      <point x="51" y="15" type="line"/>
      <point x="115" y="-1"/>
      <point x="217" y="-13"/>
      <point x="285" y="-13" type="curve" smooth="yes"/>
      <point x="404" y="-13"/>
      <point x="488" y="12"/>
      <point x="519" y="238" type="curve" smooth="yes"/>
      <point x="548" y="449"/>
      <point x="490" y="501"/>
    </contour>
    <contour>
      <point x="235" y="700" type="line"/>
      <point x="128" y="700" type="line"/>
      <point x="2" y="-197" type="line"/>
      <point x="109" y="-197" type="line"/>
      <point x="127" y="-66" type="line" smooth="yes"/>
      <point x="134" y="-26"/>
      <point x="137" y="10"/>
      <point x="140" y="49" type="curve"/>
      <point x="146" y="63" type="line"/>
      <point x="194" y="415" type="line"/>
      <point x="191" y="425" type="line"/>
      <point x="202" y="464"/>
      <point x="208" y="500"/>
      <point x="213" y="540" type="curve"/>
    </contour>
  </outline>
</glyph>
<glyph name="dcroat" format="2">
  <advance width="576"/>
  <unicode hex="0111"/>
  <outline>
    <contour>
      <point x="624" y="629" type="line"/>
      <point x="306" y="629" type="line"/>
      <point x="298" y="571" type="line"/>
      <point x="616" y="571" type="line"/>
    </contour>
    <component base="d"/>
  </outline>
</glyph>
<glyph name="Hbar" format="2">
  <advance width="670"/>
  <unicode hex="0126"/>
  <outline>
    <contour>
      <point x="700" y="574" type="line"/>
      <point x="57" y="574" type="line"/>
      <point x="49" y="517" type="line"/>
      <point x="693" y="517" type="line"/>
    </contour>
    <component base="H"/>
  </outline>
</glyph>
<glyph name="hbar" format="2">
  <advance width="582"/>
  <unicode hex="0127"/>
  <outline>
    <contour>
      <point x="367" y="629" type="line"/>
      <point x="50" y="629" type="line"/>
      <point x="42" y="571" type="line"/>
      <point x="359" y="571" type="line"/>
    </contour>
    <component base="h"/>
  </outline>
</glyph>
<glyph name="idotless" format="2">
  <advance width="257"/>
  <unicode hex="0131"/>
  <anchor x="86" y="0" name="bottom"/>
  <anchor x="132" y="0" name="ogonek"/>
  <anchor x="166" y="553" name="top"/>
  <outline>
    <contour>
      <point x="210" y="489" type="line"/>
      <point x="102" y="489" type="line"/>
      <point x="33" y="0" type="line"/>
      <point x="141" y="0" type="line"/>
    </contour>
  </outline>
</glyph>
<glyph name="OE" format="2">
  <advance width="931"/>
  <unicode hex="0152"/>
  <guideline x="367" y="278" angle="290"/>
  <guideline x="361" y="401" angle="70"/>
  <outline>
    <contour>
      <point x="384" y="703" type="curve" smooth="yes"/>
      <point x="182" y="703"/>
      <point x="101" y="620"/>
      <point x="63" y="349" type="curve" smooth="yes"/>
      <point x="24" y="75"/>
      <point x="88" y="-13"/>
      <point x="297" y="-13" type="curve" smooth="yes"/>
      <point x="372" y="-13"/>
      <point x="414" y="-3"/>
      <point x="475" y="25" type="curve"/>
      <point x="441" y="106" type="line"/>
      <point x="397" y="94"/>
      <point x="370" y="86"/>
      <point x="299" y="86" type="curve" smooth="yes"/>
      <point x="179" y="86"/>
      <point x="151" y="146"/>
      <point x="179" y="341" type="curve" smooth="yes"/>
      <point x="207" y="542"/>
      <point x="258" y="604"/>
      <point x="384" y="604" type="curve" smooth="yes"/>
      <point x="446" y="604"/>
      <point x="472" y="596"/>
      <point x="512" y="588" type="curve"/>
      <point x="561" y="669" type="line"/>
      <point x="505" y="693"/>
      <point x="465" y="703"/>
    </contour>
    <contour>
      <point x="477" y="405" type="line"/>
      <point x="464" y="318" type="line"/>
      <point x="845" y="318" type="line"/>
      <point x="856" y="405" type="line"/>
    </contour>
    <contour>
      <point x="638" y="692" type="curve" smooth="yes"/>
      <point x="545" y="692"/>
      <point x="492" y="646"/>
      <point x="481" y="567" type="curve" smooth="yes"/>
      <point x="423" y="149" type="line" smooth="yes"/>
      <point x="410" y="55"/>
      <point x="457" y="-2"/>
      <point x="573" y="-2" type="curve" smooth="yes"/>
      <point x="662" y="-2"/>
      <point x="763" y="-2"/>
      <point x="847" y="6" type="curve"/>
      <point x="850" y="93" type="line"/>
      <point x="586" y="93" type="line" smooth="yes"/>
      <point x="542" y="93"/>
      <point x="530" y="107"/>
      <point x="536" y="152" type="curve" smooth="yes"/>
      <point x="588" y="534" type="line" smooth="yes"/>
      <point x="594" y="582"/>
      <point x="610" y="597"/>
      <point x="651" y="597" type="curve" smooth="yes"/>
      <point x="921" y="597" type="line"/>
      <point x="936" y="684" type="line"/>
      <point x="847" y="692"/>
      <point x="740" y="692"/>
    </contour>
  </outline>
</glyph>
<glyph name="oe" format="2">
  <advance width="900"/>
  <unicode hex="0153"/>
  <outline>
    <contour>
      <point x="308" y="502" type="curve" smooth="yes"/>
      <point x="138" y="502"/>
      <point x="66" y="432"/>
      <point x="41" y="248" type="curve" smooth="yes"/>
      <point x="15" y="59"/>
      <point x="83" y="-13"/>
      <point x="248" y="-13" type="curve" smooth="yes"/>
      <point x="414" y="-13"/>
      <point x="487" y="55"/>
      <point x="513" y="240" type="curve" smooth="yes"/>
      <point x="540" y="429"/>
      <point x="475" y="502"/>
    </contour>
    <contour>
      <point x="308" y="412" type="curve" smooth="yes"/>
      <point x="400" y="412"/>
      <point x="421" y="377"/>
      <point x="402" y="248" type="curve" smooth="yes"/>
      <point x="384" y="116"/>
      <point x="346" y="77"/>
      <point x="248" y="77" type="curve" smooth="yes"/>
      <point x="155" y="77"/>
      <point x="135" y="112"/>
      <point x="153" y="240" type="curve" smooth="yes"/>
      <point x="173" y="379"/>
      <point x="212" y="412"/>
    </contour>
    <contour>
      <point x="677" y="502" type="curve" smooth="yes"/>
      <point x="495" y="502"/>
      <point x="429" y="446"/>
      <point x="404" y="259" type="curve" smooth="yes"/>
      <point x="380" y="77"/>
      <point x="440" y="-12"/>
      <point x="611" y="-12" type="curve" smooth="yes"/>
      <point x="667" y="-12"/>
      <point x="756" y="-5"/>
      <point x="809" y="18" type="curve"/>
      <point x="802" y="90" type="line"/>
      <point x="747" y="83"/>
      <point x="677" y="78"/>
      <point x="627" y="78" type="curve" smooth="yes"/>
      <point x="541" y="78"/>
      <point x="493" y="104"/>
      <point x="516" y="259" type="curve" smooth="yes"/>
      <point x="535" y="385"/>
      <point x="565" y="412"/>
      <point x="659" y="412" type="curve" smooth="yes"/>
      <point x="735" y="412"/>
      <point x="764" y="413"/>
      <point x="758" y="352" type="curve" smooth="yes"/>
      <point x="751" y="297"/>
      <point x="725" y="280"/>
      <point x="669" y="277" type="curve" smooth="yes"/>
      <point x="447" y="257" type="line"/>
      <point x="435" y="178" type="line"/>
      <point x="670" y="198" type="line" smooth="yes"/>
      <point x="791" y="206"/>
      <point x="850" y="243"/>
      <point x="865" y="343" type="curve" smooth="yes"/>
      <point x="877" y="437"/>
      <point x="843" y="502"/>
    </contour>
  </outline>
</glyph>
<glyph name="Tbar" format="2">
  <advance width="579"/>
  <unicode hex="0166"/>
  <outline>
    <contour>
      <point x="500" y="394" type="line"/>
      <point x="117" y="394" type="line"/>
      <point x="109" y="334" type="line"/>
      <point x="492" y="334" type="line"/>
    </contour>
    <component base="T"/>
  </outline>
</glyph>
<glyph name="tbar" format="2">
  <advance width="391"/>
  <unicode hex="0167"/>
  <outline>
    <contour>
      <point x="343" y="306" type="line"/>
      <point x="49" y="306" type="line"/>
      <point x="41" y="246" type="line"/>
      <point x="335" y="246" type="line"/>
    </contour>
    <component base="t"/>
  </outline>
</glyph>
<glyph name="florin" format="2">
  <advance width="450"/>
  <unicode hex="0192"/>
  <outline>
    <contour>
      <point x="379" y="701" type="curve" smooth="yes"/>
      <point x="281" y="701"/>
      <point x="225" y="648"/>
      <point x="204" y="557" type="curve" smooth="yes"/>
      <point x="76" y="9" type="line" smooth="yes"/>
      <point x="64" y="-42"/>
      <point x="37" y="-63"/>
      <point x="-17" y="-63" type="curve" smooth="yes"/>
      <point x="-81" y="-63" type="line"/>
      <point x="-103" y="-144" type="line"/>
      <point x="-73" y="-150"/>
      <point x="-19" y="-152"/>
      <point x="10" y="-152" type="curve" smooth="yes"/>
      <point x="113" y="-152"/>
      <point x="160" y="-99"/>
      <point x="181" y="-8" type="curve" smooth="yes"/>
      <point x="309" y="540" type="line" smooth="yes"/>
      <point x="322" y="599"/>
      <point x="349" y="612"/>
      <point x="401" y="612" type="curve" smooth="yes"/>
      <point x="471" y="612" type="line"/>
      <point x="493" y="693" type="line"/>
      <point x="464" y="698"/>
      <point x="409" y="701"/>
    </contour>
    <contour>
      <point x="410" y="403" type="line"/>
      <point x="174" y="403" type="line"/>
      <point x="65" y="394" type="line"/>
      <point x="50" y="320" type="line"/>
      <point x="391" y="320" type="line"/>
    </contour>
  </outline>
</glyph>
<glyph name="schwa" format="2">
  <advance width="541"/>
  <unicode hex="0259"/>
  <outline>
    <contour>
      <point x="225" y="-12" type="curve" smooth="yes"/>
      <point x="407" y="-12"/>
      <point x="473" y="44"/>
      <point x="498" y="231" type="curve" smooth="yes"/>
      <point x="522" y="413"/>
      <point x="462" y="502"/>
      <point x="291" y="502" type="curve" smooth="yes"/>
      <point x="232" y="502"/>
      <point x="144" y="495"/>
      <point x="88" y="472" type="curve"/>
      <point x="95" y="400" type="line"/>
      <point x="153" y="407"/>
      <point x="222" y="412"/>
      <point x="275" y="412" type="curve" smooth="yes"/>
      <point x="361" y="412"/>
      <point x="409" y="386"/>
      <point x="386" y="231" type="curve" smooth="yes"/>
      <point x="367" y="105"/>
      <point x="337" y="78"/>
      <point x="243" y="78" type="curve" smooth="yes"/>
      <point x="167" y="78"/>
      <point x="138" y="77"/>
      <point x="144" y="138" type="curve" smooth="yes"/>
      <point x="151" y="193"/>
      <point x="177" y="210"/>
      <point x="233" y="213" type="curve" smooth="yes"/>
      <point x="455" y="233" type="line"/>
      <point x="467" y="312" type="line"/>
      <point x="232" y="292" type="line" smooth="yes"/>
      <point x="111" y="284"/>
      <point x="52" y="247"/>
      <point x="37" y="147" type="curve" smooth="yes"/>
      <point x="25" y="53"/>
      <point x="59" y="-12"/>
    </contour>
  </outline>
</glyph>
<glyph name="ringhalfright" format="2">
  <advance width="180"/>
  <unicode hex="02BE"/>
  <anchor x="123" y="547" name="_top"/>
  <outline>
    <contour>
      <point x="78" y="582" type="curve"/>
      <point x="71" y="529" type="line"/>
      <point x="146" y="527"/>
      <point x="194" y="579"/>
      <point x="194" y="646" type="curve" smooth="yes"/>
      <point x="194" y="702"/>
      <point x="156" y="741"/>
      <point x="101" y="745" type="curve"/>
      <point x="93" y="693" type="line"/>
      <point x="122" y="690"/>
      <point x="136" y="670"/>
      <point x="136" y="641" type="curve" smooth="yes"/>
      <point x="136" y="607"/>
      <point x="116" y="582"/>
    </contour>
  </outline>
</glyph>
<glyph name="firsttonechinese" format="2">
  <advance width="400"/>
  <unicode hex="02C9"/>
  <anchor x="244" y="556" name="_top"/>
  <outline>
    <contour>
      <point x="404" y="681" type="line"/>
      <point x="118" y="681" type="line"/>
      <point x="107" y="603" type="line"/>
      <point x="393" y="603" type="line"/>
    </contour>
  </outline>
</glyph>
<glyph name="dotaccent" format="2">
  <advance width="226"/>
  <unicode hex="02D9"/>
  <anchor x="156" y="551" name="_top"/>
  <outline>
    <contour>
      <point x="189" y="689" type="curve" smooth="yes"/>
      <point x="155" y="689" type="line" smooth="yes"/>
      <point x="135" y="689"/>
      <point x="126" y="680"/>
      <point x="123" y="660" type="curve" smooth="yes"/>
      <point x="116" y="605" type="line" smooth="yes"/>
      <point x="113" y="585"/>
      <point x="125" y="572"/>
      <point x="145" y="572" type="curve" smooth="yes"/>
      <point x="179" y="572" type="line" smooth="yes"/>
      <point x="199" y="572"/>
      <point x="208" y="581"/>
      <point x="211" y="601" type="curve" smooth="yes"/>
      <point x="219" y="656" type="line" smooth="yes"/>
      <point x="222" y="676"/>
      <point x="209" y="689"/>
    </contour>
  </outline>
</glyph>
<glyph name="ogonek" format="2">
  <advance width="251"/>
  <unicode hex="02DB"/>
  <anchor x="153" y="0" name="_ogonek"/>
  <outline>
    <contour>
      <point x="104" y="3" type="line"/>
      <point x="42" y="-40"/>
      <point x="9" y="-80"/>
      <point x="-7" y="-111" type="curve" smooth="yes"/>
      <point x="-44" y="-183"/>
      <point x="4" y="-248"/>
      <point x="145" y="-194" type="curve"/>
      <point x="132" y="-148" type="line"/>
      <point x="72" y="-166"/>
      <point x="45" y="-156"/>
      <point x="71" y="-113" type="curve" smooth="yes"/>
      <point x="97" y="-69"/>
      <point x="122" y="-34"/>
      <point x="153" y="0" type="curve"/>
    </contour>
  </outline>
</glyph>
<glyph name="hungarumlaut" format="2">
  <advance width="471"/>
  <unicode hex="02DD"/>
  <anchor x="239" y="540" name="_top"/>
  <outline>
    <contour>
      <point x="237" y="734" type="line"/>
      <point x="97" y="561" type="line"/>
      <point x="141" y="526" type="line"/>
      <point x="302" y="688" type="line"/>
    </contour>
    <contour>
      <point x="410" y="734" type="line"/>
      <point x="271" y="561" type="line"/>
      <point x="314" y="526" type="line"/>
      <point x="475" y="688" type="line"/>
    </contour>
  </outline>
</glyph>
<glyph name="acutecomb" format="2">
  <unicode hex="0301"/>
  <anchor x="-166" y="540" name="_top"/>
  <outline>
    <contour>
      <point x="-33" y="729" type="line"/>
      <point x="-233" y="582" type="line"/>
      <point x="-202" y="533" type="line"/>
      <point x="17" y="646" type="line"/>
    </contour>
  </outline>
</glyph>
<glyph name="circumflexcomb" format="2">
  <unicode hex="0302"/>
  <anchor x="-178" y="546" name="_top"/>
  <outline>
    <contour>
      <point x="-119" y="716" type="line"/>
      <point x="-195" y="716" type="line"/>
      <point x="-342" y="585" type="line"/>
      <point x="-312" y="539" type="line"/>
      <point x="-162" y="637" type="line"/>
      <point x="-154" y="637" type="line"/>
      <point x="-33" y="536" type="line"/>
      <point x="6" y="578" type="line"/>
    </contour>
  </outline>
</glyph>
<glyph name="macroncomb" format="2">
  <unicode hex="0304"/>
  <anchor x="-173" y="556" name="_top"/>
  <outline>
    <contour>
      <point x="-13" y="681" type="line"/>
      <point x="-299" y="681" type="line"/>
      <point x="-310" y="603" type="line"/>
      <point x="-24" y="603" type="line"/>
    </contour>
  </outline>
</glyph>
<glyph name="brevecomb" format="2">
  <unicode hex="0306"/>
  <anchor x="-151" y="544" name="_top"/>
  <outline>
    <contour>
      <point x="-29" y="702" type="line"/>
      <point x="-34" y="659"/>
      <point x="-77" y="632"/>
      <point x="-145" y="632" type="curve" smooth="yes"/>
      <point x="-204" y="632"/>
      <point x="-238" y="655"/>
      <point x="-232" y="698" type="curve"/>
      <point x="-286" y="694" type="line"/>
      <point x="-304" y="614"/>
      <point x="-249" y="554"/>
      <point x="-144" y="554" type="curve" smooth="yes"/>
      <point x="-46" y="554"/>
      <point x="19" y="610"/>
      <point x="24" y="690" type="curve"/>
    </contour>
  </outline>
</glyph>
<glyph name="dblgravecomb" format="2">
  <unicode hex="030F"/>
  <anchor x="-152" y="540" name="_top"/>
  <outline>
    <contour>
      <point x="-150" y="734" type="line"/>
      <point x="-215" y="688" type="line"/>
      <point x="-54" y="526" type="line"/>
      <point x="-10" y="561" type="line"/>
    </contour>
    <contour>
      <point x="-323" y="734" type="line"/>
      <point x="-388" y="688" type="line"/>
      <point x="-227" y="526" type="line"/>
      <point x="-184" y="561" type="line"/>
    </contour>
  </outline>
</glyph>
<glyph name="breveinvertedcomb" format="2">
  <unicode hex="0311"/>
  <anchor x="-147" y="544" name="_top"/>
  <outline>
    <contour>
      <point x="-251" y="554" type="line"/>
      <point x="-246" y="597"/>
      <point x="-203" y="624"/>
      <point x="-135" y="624" type="curve" smooth="yes"/>
      <point x="-76" y="624"/>
      <point x="-42" y="601"/>
      <point x="-48" y="558" type="curve"/>
      <point x="6" y="562" type="line"/>
      <point x="24" y="642"/>
      <point x="-31" y="702"/>
      <point x="-136" y="702" type="curve" smooth="yes"/>
      <point x="-234" y="702"/>
      <point x="-299" y="646"/>
      <point x="-304" y="566" type="curve"/>
    </contour>
  </outline>
</glyph>
<glyph name="commaturnedabovecomb" format="2">
  <unicode hex="0312"/>
  <anchor x="-94" y="540" name="_top"/>
  <outline>
    <contour>
      <point x="-101" y="520" type="curve" smooth="yes"/>
      <point x="-77" y="520" type="line" smooth="yes"/>
      <point x="-52" y="520"/>
      <point x="-45" y="526"/>
      <point x="-41" y="548" type="curve" smooth="yes"/>
      <point x="-34" y="591" type="line" smooth="yes"/>
      <point x="-31" y="607"/>
      <point x="-42" y="618"/>
      <point x="-60" y="617" type="curve"/>
      <point x="-54" y="651"/>
      <point x="-43" y="686"/>
      <point x="-32" y="714" type="curve"/>
      <point x="-72" y="727" type="line"/>
      <point x="-94" y="691"/>
      <point x="-114" y="645"/>
      <point x="-120" y="599" type="curve" smooth="yes"/>
      <point x="-126" y="552" type="line" smooth="yes"/>
      <point x="-129" y="529"/>
      <point x="-122" y="520"/>
    </contour>
  </outline>
</glyph>
<glyph name="horncomb" format="2">
  <unicode hex="031B"/>
  <anchor x="-158" y="561" name="_top"/>
  <outline>
    <contour>
      <point x="-226" y="400" type="line"/>
      <point x="-144" y="396"/>
      <point x="-58" y="454"/>
      <point x="-38" y="539" type="curve"/>
      <point x="-111" y="552" type="line"/>
      <point x="-124" y="501"/>
      <point x="-164" y="456"/>
      <point x="-221" y="452" type="curve"/>
    </contour>
  </outline>
</glyph>
<glyph name="dieresisbelowcomb" format="2">
  <unicode hex="0324"/>
  <anchor x="-242" y="0" name="_bottom"/>
  <outline>
    <contour>
      <point x="-318" y="-49" type="curve" smooth="yes"/>
      <point x="-350" y="-49" type="line" smooth="yes"/>
      <point x="-371" y="-49"/>
      <point x="-381" y="-58"/>
      <point x="-384" y="-78" type="curve" smooth="yes"/>
      <point x="-393" y="-134" type="line" smooth="yes"/>
      <point x="-396" y="-153"/>
      <point x="-386" y="-161"/>
      <point x="-367" y="-161" type="curve" smooth="yes"/>
      <point x="-331" y="-161" type="line" smooth="yes"/>
      <point x="-312" y="-161"/>
      <point x="-303" y="-152"/>
      <point x="-300" y="-133" type="curve" smooth="yes"/>
      <point x="-291" y="-78" type="line" smooth="yes"/>
      <point x="-288" y="-58"/>
      <point x="-294" y="-49"/>
    </contour>
    <contour>
      <point x="-152" y="-49" type="curve" smooth="yes"/>
      <point x="-184" y="-49" type="line" smooth="yes"/>
      <point x="-205" y="-49"/>
      <point x="-215" y="-58"/>
      <point x="-218" y="-78" type="curve" smooth="yes"/>
      <point x="-227" y="-134" type="line" smooth="yes"/>
      <point x="-230" y="-153"/>
      <point x="-220" y="-161"/>
      <point x="-201" y="-161" type="curve" smooth="yes"/>
      <point x="-165" y="-161" type="line" smooth="yes"/>
      <point x="-146" y="-161"/>
      <point x="-137" y="-152"/>
      <point x="-134" y="-133" type="curve" smooth="yes"/>
      <point x="-125" y="-78" type="line" smooth="yes"/>
      <point x="-122" y="-58"/>
      <point x="-128" y="-49"/>
    </contour>
  </outline>
</glyph>
<glyph name="cedillacomb" format="2">
  <unicode hex="0327"/>
  <anchor x="-144" y="0" name="_bottom"/>
  <outline>
    <contour>
      <point x="-201" y="-41" type="curve"/>
      <point x="-214" y="-91" type="line"/>
      <point x="-164" y="-91"/>
      <point x="-157" y="-94"/>
      <point x="-160" y="-111" type="curve" smooth="yes"/>
      <point x="-168" y="-151"/>
      <point x="-209" y="-178"/>
      <point x="-257" y="-177" type="curve"/>
      <point x="-277" y="-233" type="line"/>
      <point x="-179" y="-246"/>
      <point x="-99" y="-199"/>
      <point x="-84" y="-110" type="curve" smooth="yes"/>
      <point x="-72" y="-43"/>
      <point x="-113" y="-32"/>
    </contour>
  </outline>
</glyph>
<glyph name="Delta" format="2">
  <advance width="634"/>
  <unicode hex="0394"/>
  <outline>
    <contour>
      <point x="430" y="690" type="line"/>
      <point x="319" y="690" type="line"/>
      <point x="-11" y="43" type="line"/>
      <point x="-16" y="0" type="line"/>
      <point x="572" y="0" type="line"/>
      <point x="578" y="43" type="line"/>
    </contour>
    <contour>
      <point x="362" y="583" type="curve"/>
      <point x="364" y="553"/>
      <point x="367" y="529"/>
      <point x="372" y="503" type="curve" smooth="yes"/>
      <point x="458" y="90" type="line"/>
      <point x="129" y="90" type="line"/>
      <point x="329" y="501" type="line" smooth="yes"/>
      <point x="342" y="527"/>
      <point x="352" y="554"/>
    </contour>
  </outline>
</glyph>
<glyph name="Omega" format="2">
  <advance width="715"/>
  <unicode hex="03A9"/>
  <outline>
    <contour>
      <point x="409" y="703" type="curve" smooth="yes"/>
      <point x="207" y="703"/>
      <point x="112" y="596"/>
      <point x="83" y="383" type="curve" smooth="yes"/>
      <point x="63" y="252"/>
      <point x="106" y="165"/>
      <point x="180" y="90" type="curve"/>
      <point x="155" y="96"/>
      <point x="134" y="98"/>
      <point x="112" y="98" type="curve" smooth="yes"/>
      <point x="22" y="98" type="line"/>
      <point x="9" y="0" type="line"/>
      <point x="267" y="0" type="line"/>
      <point x="279" y="92" type="line"/>
      <point x="202" y="160"/>
      <point x="176" y="217"/>
      <point x="196" y="357" type="curve" smooth="yes"/>
      <point x="221" y="535"/>
      <point x="277" y="605"/>
      <point x="405" y="605" type="curve" smooth="yes"/>
      <point x="529" y="605"/>
      <point x="563" y="539"/>
      <point x="539" y="367" type="curve" smooth="yes"/>
      <point x="521" y="234"/>
      <point x="478" y="162"/>
      <point x="377" y="94" type="curve"/>
      <point x="366" y="0" type="line"/>
      <point x="625" y="0" type="line"/>
      <point x="638" y="98" type="line"/>
      <point x="542" y="98" type="line" smooth="yes"/>
      <point x="520" y="98"/>
      <point x="500" y="96"/>
      <point x="476" y="89" type="curve"/>
      <point x="588" y="161"/>
      <point x="636" y="233"/>
      <point x="656" y="373" type="curve" smooth="yes"/>
      <point x="687" y="592"/>
      <point x="607" y="703"/>
    </contour>
  </outline>
</glyph>
<glyph name="pi" format="2">
  <advance width="640"/>
  <unicode hex="03C0"/>
  <outline>
    <contour>
      <point x="556" y="489" type="line"/>
      <point x="448" y="489" type="line"/>
      <point x="380" y="0" type="line"/>
      <point x="487" y="0" type="line"/>
    </contour>
    <contour>
      <point x="247" y="489" type="line"/>
      <point x="140" y="489" type="line"/>
      <point x="71" y="0" type="line"/>
      <point x="179" y="0" type="line"/>
    </contour>
    <contour>
      <point x="643" y="489" type="line"/>
      <point x="52" y="489" type="line"/>
      <point x="40" y="403" type="line"/>
      <point x="631" y="403" type="line"/>
    </contour>
  </outline>
</glyph>
<glyph name="I-cy" format="2">
  <advance width="271"/>
  <unicode hex="0406"/>
  <anchor x="195" y="704" name="top"/>
  <outline>
    <contour>
      <point x="248" y="690" type="line"/>
      <point x="136" y="690" type="line"/>
      <point x="39" y="0" type="line"/>
      <point x="151" y="0" type="line"/>
    </contour>
  </outline>
</glyph>
<glyph name="Nje-cy" format="2">
  <advance width="975"/>
  <unicode hex="040A"/>
  <outline>
    <contour>
      <point x="717" y="422" type="curve" smooth="yes"/>
      <point x="496" y="422" type="line"/>
      <point x="483" y="331" type="line"/>
      <point x="710" y="331" type="line" smooth="yes"/>
      <point x="814" y="331"/>
      <point x="825" y="299"/>
      <point x="812" y="210" type="curve" smooth="yes"/>
      <point x="798" y="115"/>
      <point x="775" y="89"/>
      <point x="667" y="89" type="curve" smooth="yes"/>
      <point x="561" y="89"/>
      <point x="477" y="90"/>
      <point x="448" y="92" type="curve"/>
      <point x="423" y="0" type="line"/>
      <point x="502" y="-7"/>
      <point x="561" y="-8"/>
      <point x="684" y="-8" type="curve" smooth="yes"/>
      <point x="837" y="-8"/>
      <point x="901" y="38"/>
      <point x="923" y="200" type="curve" smooth="yes"/>
      <point x="946" y="366"/>
      <point x="885" y="422"/>
    </contour>
    <contour>
      <point x="249" y="690" type="line"/>
      <point x="137" y="690" type="line"/>
      <point x="40" y="0" type="line"/>
      <point x="152" y="0" type="line"/>
    </contour>
    <contour>
      <point x="492" y="421" type="line"/>
      <point x="203" y="421" type="line"/>
      <point x="190" y="330" type="line"/>
      <point x="479" y="330" type="line"/>
    </contour>
    <contour>
      <point x="630" y="690" type="line"/>
      <point x="520" y="690" type="line"/>
      <point x="423" y="0" type="line"/>
      <point x="533" y="0" type="line"/>
    </contour>
  </outline>
</glyph>
<glyph name="Tshe-cy" format="2">
  <advance width="764"/>
  <unicode hex="040B"/>
  <outline>
    <contour>
      <point x="615" y="690" type="line"/>
      <point x="75" y="690" type="line"/>
      <point x="61" y="591" type="line"/>
      <point x="602" y="591" type="line"/>
    </contour>
    <contour>
      <point x="400" y="690" type="line"/>
      <point x="289" y="690" type="line"/>
      <point x="192" y="0" type="line"/>
      <point x="303" y="0" type="line"/>
    </contour>
    <contour>
      <point x="568" y="446" type="curve" smooth="yes"/>
      <point x="507" y="446"/>
      <point x="416" y="421"/>
      <point x="330" y="363" type="curve"/>
      <point x="335" y="278" type="line"/>
      <point x="414" y="329"/>
      <point x="463" y="348"/>
      <point x="528" y="348" type="curve" smooth="yes"/>
      <point x="594" y="348"/>
      <point x="610" y="329"/>
      <point x="601" y="265" type="curve" smooth="yes"/>
      <point x="564" y="0" type="line"/>
      <point x="675" y="0" type="line"/>
      <point x="715" y="284" type="line" smooth="yes"/>
      <point x="730" y="393"/>
      <point x="682" y="446"/>
    </contour>
  </outline>
</glyph>
<glyph name="Dzhe-cy" format="2">
  <advance width="677"/>
  <unicode hex="040F"/>
  <outline>
    <contour>
      <point x="249" y="690" type="line"/>
      <point x="137" y="690" type="line"/>
      <point x="40" y="0" type="line"/>
      <point x="152" y="0" type="line"/>
    </contour>
    <contour>
      <point x="495" y="90" type="line"/>
      <point x="116" y="90" type="line"/>
      <point x="104" y="0" type="line"/>
      <point x="483" y="0" type="line"/>
    </contour>
    <contour>
      <point x="652" y="690" type="line"/>
      <point x="540" y="690" type="line"/>
      <point x="444" y="0" type="line"/>
      <point x="555" y="0" type="line"/>
    </contour>
    <contour>
      <point x="350" y="7" type="line"/>
      <point x="264" y="7" type="line"/>
      <point x="246" y="-151" type="line"/>
      <point x="323" y="-151" type="line"/>
    </contour>
  </outline>
</glyph>
<glyph name="Ge-cy" format="2">
  <advance width="516"/>
  <unicode hex="0413"/>
  <anchor x="354" y="732" name="top"/>
  <outline>
    <contour>
      <point x="263" y="692" type="curve" smooth="yes"/>
      <point x="186" y="692"/>
      <point x="127" y="647"/>
      <point x="114" y="553" type="curve" smooth="yes"/>
      <point x="37" y="0" type="line"/>
      <point x="148" y="0" type="line"/>
      <point x="222" y="528" type="line" smooth="yes"/>
      <point x="230" y="584"/>
      <point x="242" y="597"/>
      <point x="296" y="597" type="curve" smooth="yes"/>
      <point x="537" y="597" type="line"/>
      <point x="552" y="683" type="line"/>
      <point x="465" y="692"/>
      <point x="362" y="692"/>
    </contour>
  </outline>
</glyph>
<glyph name="De-cy" format="2">
  <advance width="704"/>
  <unicode hex="0414"/>
  <guideline x="163" y="538" angle="0"/>
  <outline>
    <contour>
      <point x="647" y="690" type="line"/>
      <point x="384" y="690" type="line" smooth="yes"/>
      <point x="296" y="690"/>
      <point x="238" y="639"/>
      <point x="223" y="555" type="curve" smooth="yes"/>
      <point x="183" y="361"/>
      <point x="126" y="169"/>
      <point x="-1" y="2" type="curve"/>
      <point x="122" y="2" type="line"/>
      <point x="238" y="153"/>
      <point x="292" y="342"/>
      <point x="329" y="530" type="curve" smooth="yes"/>
      <point x="338" y="578"/>
      <point x="364" y="600"/>
      <point x="410" y="600" type="curve" smooth="yes"/>
      <point x="523" y="600" type="line"/>
      <point x="439" y="0" type="line"/>
      <point x="550" y="0" type="line"/>
    </contour>
    <contour>
      <point x="78" y="7" type="line"/>
      <point x="-19" y="7" type="line"/>
      <point x="-42" y="-151" type="line"/>
      <point x="45" y="-151" type="line"/>
    </contour>
    <contour>
      <point x="648" y="90" type="line"/>
      <point x="-8" y="90" type="line"/>
      <point x="-20" y="0" type="line"/>
      <point x="636" y="0" type="line"/>
    </contour>
    <contour>
      <point x="637" y="7" type="line"/>
      <point x="541" y="7" type="line"/>
      <point x="528" y="-151" type="line"/>
      <point x="615" y="-151" type="line"/>
    </contour>
  </outline>
</glyph>
<glyph name="Ie-cy" format="2">
  <advance width="562"/>
  <unicode hex="0415"/>
  <anchor x="364" y="732" name="top"/>
  <outline>
    <contour>
      <point x="269" y="692" type="curve" smooth="yes"/>
      <point x="176" y="692"/>
      <point x="123" y="646"/>
      <point x="112" y="567" type="curve" smooth="yes"/>
      <point x="54" y="149" type="line" smooth="yes"/>
      <point x="41" y="55"/>
      <point x="88" y="-2"/>
      <point x="204" y="-2" type="curve" smooth="yes"/>
      <point x="293" y="-2"/>
      <point x="394" y="-2"/>
      <point x="478" y="6" type="curve"/>
      <point x="481" y="93" type="line"/>
      <point x="217" y="93" type="line" smooth="yes"/>
      <point x="173" y="93"/>
      <point x="161" y="107"/>
      <point x="167" y="152" type="curve" smooth="yes"/>
      <point x="219" y="534" type="line" smooth="yes"/>
      <point x="225" y="582"/>
      <point x="241" y="597"/>
      <point x="282" y="597" type="curve" smooth="yes"/>
      <point x="552" y="597" type="line"/>
      <point x="567" y="684" type="line"/>
      <point x="478" y="692"/>
      <point x="371" y="692"/>
    </contour>
    <contour>
      <point x="108" y="404" type="line"/>
      <point x="95" y="319" type="line"/>
      <point x="476" y="319" type="line"/>
      <point x="487" y="404" type="line"/>
    </contour>
  </outline>
</glyph>
<glyph name="Ze-cy" format="2">
  <advance width="550"/>
  <unicode hex="0417"/>
  <anchor x="241" y="0" name="bottom"/>
  <anchor x="308" y="732" name="top"/>
  <outline>
    <contour>
      <point x="300" y="698" type="curve" smooth="yes"/>
      <point x="228" y="698"/>
      <point x="166" y="694"/>
      <point x="102" y="681" type="curve"/>
      <point x="105" y="596" type="line"/>
      <point x="156" y="601"/>
      <point x="215" y="608"/>
      <point x="292" y="608" type="curve" smooth="yes"/>
      <point x="387" y="608"/>
      <point x="409" y="592"/>
      <point x="397" y="508" type="curve" smooth="yes"/>
      <point x="385" y="425"/>
      <point x="350" y="401"/>
      <point x="265" y="401" type="curve" smooth="yes"/>
      <point x="146" y="401" type="line"/>
      <point x="135" y="314" type="line"/>
      <point x="259" y="314" type="line" smooth="yes"/>
      <point x="356" y="314"/>
      <point x="383" y="289"/>
      <point x="370" y="196" type="curve" smooth="yes"/>
      <point x="357" y="105"/>
      <point x="320" y="83"/>
      <point x="223" y="83" type="curve" smooth="yes"/>
      <point x="145" y="83"/>
      <point x="71" y="90"/>
      <point x="12" y="98" type="curve"/>
      <point x="-2" y="18" type="line"/>
      <point x="67" y="0"/>
      <point x="140" y="-8"/>
      <point x="243" y="-8" type="curve" smooth="yes"/>
      <point x="406" y="-8"/>
      <point x="461" y="32"/>
      <point x="480" y="168" type="curve" smooth="yes"/>
      <point x="496" y="279"/>
      <point x="465" y="345"/>
      <point x="370" y="354" type="curve"/>
      <point x="371" y="359" type="line"/>
      <point x="457" y="367"/>
      <point x="494" y="416"/>
      <point x="508" y="514" type="curve" smooth="yes"/>
      <point x="528" y="655"/>
      <point x="449" y="698"/>
    </contour>
  </outline>
</glyph>
<glyph name="Ii-cy" format="2">
  <advance width="694"/>
  <unicode hex="0418"/>
  <anchor x="409" y="732" name="top"/>
  <outline>
    <contour>
      <point x="670" y="690" type="line"/>
      <point x="548" y="690" type="line"/>
      <point x="213" y="217" type="line" smooth="yes"/>
      <point x="197" y="194"/>
      <point x="180" y="169"/>
      <point x="163" y="135" type="curve"/>
      <point x="157" y="135" type="line"/>
      <point x="170" y="178"/>
      <point x="175" y="203"/>
      <point x="180" y="237" type="curve" smooth="yes"/>
      <point x="244" y="690" type="line"/>
      <point x="136" y="690" type="line"/>
      <point x="39" y="0" type="line"/>
      <point x="162" y="0" type="line"/>
      <point x="498" y="474" type="line" smooth="yes"/>
      <point x="514" y="496"/>
      <point x="530" y="527"/>
      <point x="545" y="555" type="curve"/>
      <point x="551" y="555" type="line"/>
      <point x="542" y="521"/>
      <point x="535" y="486"/>
      <point x="530" y="452" type="curve" smooth="yes"/>
      <point x="466" y="0" type="line"/>
      <point x="573" y="0" type="line"/>
    </contour>
  </outline>
</glyph>
<glyph name="Ka-cy" format="2">
  <advance width="606"/>
  <unicode hex="041A"/>
  <anchor x="370" y="732" name="top"/>
  <outline>
    <contour>
      <point x="620" y="690" type="curve"/>
      <point x="505" y="690" type="line"/>
      <point x="421" y="516"/>
      <point x="373" y="404"/>
      <point x="261" y="404" type="curve"/>
      <point x="255" y="315" type="line"/>
      <point x="376" y="315"/>
      <point x="385" y="215"/>
      <point x="428" y="0" type="curve"/>
      <point x="539" y="0" type="line"/>
      <point x="491" y="232"/>
      <point x="479" y="337"/>
      <point x="352" y="356" type="curve"/>
      <point x="353" y="360" type="line"/>
      <point x="477" y="374"/>
      <point x="529" y="493"/>
    </contour>
    <contour>
      <point x="247" y="690" type="line"/>
      <point x="136" y="690" type="line"/>
      <point x="39" y="0" type="line"/>
      <point x="150" y="0" type="line"/>
      <point x="184" y="244" type="line" smooth="yes"/>
      <point x="191" y="292"/>
      <point x="191" y="323"/>
      <point x="184" y="360" type="curve"/>
      <point x="202" y="399"/>
      <point x="211" y="435"/>
      <point x="217" y="480" type="curve" smooth="yes"/>
    </contour>
    <contour>
      <point x="303" y="404" type="line"/>
      <point x="175" y="404" type="line"/>
      <point x="163" y="315" type="line"/>
      <point x="291" y="315" type="line"/>
    </contour>
  </outline>
</glyph>
<glyph name="El-cy" format="2">
  <advance width="657"/>
  <unicode hex="041B"/>
  <guideline x="138" y="538" angle="0"/>
  <outline>
    <contour>
      <point x="618" y="690" type="line"/>
      <point x="372" y="690" type="line" smooth="yes"/>
      <point x="282" y="690"/>
      <point x="227" y="646"/>
      <point x="207" y="559" type="curve" smooth="yes"/>
      <point x="157" y="330"/>
      <point x="138" y="247"/>
      <point x="91" y="171" type="curve" smooth="yes"/>
      <point x="55" y="113"/>
      <point x="14" y="98"/>
      <point x="-24" y="88" type="curve"/>
      <point x="-20" y="-2" type="line"/>
      <point x="67" y="-7"/>
      <point x="142" y="39"/>
      <point x="193" y="132" type="curve" smooth="yes"/>
      <point x="243" y="223"/>
      <point x="264" y="318"/>
      <point x="313" y="530" type="curve" smooth="yes"/>
      <point x="324" y="582"/>
      <point x="344" y="600"/>
      <point x="395" y="600" type="curve" smooth="yes"/>
      <point x="606" y="600" type="line"/>
    </contour>
    <contour>
      <point x="632" y="690" type="line"/>
      <point x="521" y="690" type="line"/>
      <point x="424" y="0" type="line"/>
      <point x="535" y="0" type="line"/>
    </contour>
  </outline>
</glyph>
<glyph name="En-cy" format="2">
  <advance width="670"/>
  <unicode hex="041D"/>
  <outline>
    <contour>
      <point x="248" y="690" type="line"/>
      <point x="136" y="690" type="line"/>
      <point x="39" y="0" type="line"/>
      <point x="151" y="0" type="line"/>
    </contour>
    <contour>
      <point x="507" y="415" type="line"/>
      <point x="201" y="415" type="line"/>
      <point x="188" y="319" type="line"/>
      <point x="494" y="319" type="line"/>
    </contour>
    <contour>
      <point x="646" y="690" type="line"/>
      <point x="535" y="690" type="line"/>
      <point x="438" y="0" type="line"/>
      <point x="549" y="0" type="line"/>
    </contour>
  </outline>
</glyph>
<glyph name="Ef-cy" format="2">
  <advance width="819"/>
  <unicode hex="0424"/>
  <outline>
    <contour>
      <point x="454" y="639" type="curve" smooth="yes"/>
      <point x="188" y="639"/>
      <point x="83" y="571"/>
      <point x="53" y="355" type="curve" smooth="yes"/>
      <point x="21" y="134"/>
      <point x="112" y="62"/>
      <point x="385" y="62" type="curve" smooth="yes"/>
      <point x="655" y="62"/>
      <point x="758" y="130"/>
      <point x="788" y="346" type="curve" smooth="yes"/>
      <point x="819" y="567"/>
      <point x="722" y="639"/>
    </contour>
    <contour>
      <point x="453" y="546" type="curve" smooth="yes"/>
      <point x="648" y="546"/>
      <point x="697" y="507"/>
      <point x="676" y="355" type="curve" smooth="yes"/>
      <point x="653" y="198"/>
      <point x="587" y="155"/>
      <point x="386" y="155" type="curve" smooth="yes"/>
      <point x="191" y="155"/>
      <point x="144" y="194"/>
      <point x="165" y="346" type="curve" smooth="yes"/>
      <point x="187" y="503"/>
      <point x="252" y="546"/>
    </contour>
    <contour>
      <point x="530" y="734" type="line"/>
      <point x="418" y="734" type="line"/>
      <point x="402" y="612" type="line"/>
      <point x="403" y="589" type="line"/>
      <point x="337" y="124" type="line"/>
      <point x="328" y="98" type="line"/>
      <point x="311" y="-33" type="line"/>
      <point x="422" y="-33" type="line"/>
      <point x="440" y="98" type="line"/>
      <point x="439" y="124" type="line"/>
      <point x="505" y="589" type="line"/>
      <point x="514" y="612" type="line"/>
    </contour>
  </outline>
</glyph>
<glyph name="Tse-cy" format="2">
  <advance width="695"/>
  <unicode hex="0426"/>
  <outline>
    <contour>
      <point x="249" y="690" type="line"/>
      <point x="137" y="690" type="line"/>
      <point x="40" y="0" type="line"/>
      <point x="152" y="0" type="line"/>
    </contour>
    <contour>
      <point x="640" y="90" type="line"/>
      <point x="156" y="90" type="line"/>
      <point x="144" y="0" type="line"/>
      <point x="628" y="0" type="line"/>
    </contour>
    <contour>
      <point x="639" y="690" type="line"/>
      <point x="528" y="690" type="line"/>
      <point x="431" y="0" type="line"/>
      <point x="542" y="0" type="line"/>
    </contour>
    <contour>
      <point x="533" y="7" type="line"/>
      <point x="520" y="-151" type="line"/>
      <point x="607" y="-151" type="line"/>
      <point x="628" y="0" type="line"/>
    </contour>
  </outline>
</glyph>
<glyph name="Sha-cy" format="2">
  <advance width="938"/>
  <unicode hex="0428"/>
  <outline>
    <contour>
      <point x="245" y="690" type="line"/>
      <point x="136" y="690" type="line"/>
      <point x="39" y="0" type="line"/>
      <point x="148" y="0" type="line"/>
    </contour>
    <contour>
      <point x="750" y="90" type="line"/>
      <point x="152" y="90" type="line"/>
      <point x="140" y="0" type="line"/>
      <point x="738" y="0" type="line"/>
    </contour>
    <contour>
      <point x="579" y="690" type="line"/>
      <point x="471" y="690" type="line"/>
      <point x="374" y="0" type="line"/>
      <point x="482" y="0" type="line"/>
    </contour>
    <contour>
      <point x="914" y="690" type="line"/>
      <point x="805" y="690" type="line"/>
      <point x="708" y="0" type="line"/>
      <point x="817" y="0" type="line"/>
    </contour>
  </outline>
</glyph>
<glyph name="Iu-cy" format="2">
  <advance width="936"/>
  <unicode hex="042E"/>
  <outline>
    <contour>
      <point x="653" y="703" type="curve" smooth="yes"/>
      <point x="467" y="703"/>
      <point x="384" y="620"/>
      <point x="346" y="349" type="curve" smooth="yes"/>
      <point x="308" y="80"/>
      <point x="371" y="-13"/>
      <point x="565" y="-13" type="curve" smooth="yes"/>
      <point x="768" y="-13"/>
      <point x="849" y="70"/>
      <point x="888" y="341" type="curve" smooth="yes"/>
      <point x="926" y="615"/>
      <point x="838" y="703"/>
    </contour>
    <contour>
      <point x="249" y="690" type="line"/>
      <point x="137" y="690" type="line"/>
      <point x="40" y="0" type="line"/>
      <point x="152" y="0" type="line"/>
    </contour>
    <contour>
      <point x="401" y="403" type="line"/>
      <point x="200" y="403" type="line"/>
      <point x="188" y="313" type="line"/>
      <point x="389" y="313" type="line"/>
    </contour>
    <contour>
      <point x="652" y="604" type="curve" smooth="yes"/>
      <point x="772" y="604"/>
      <point x="799" y="544"/>
      <point x="772" y="349" type="curve" smooth="yes"/>
      <point x="744" y="150"/>
      <point x="693" y="86"/>
      <point x="567" y="86" type="curve" smooth="yes"/>
      <point x="452" y="86"/>
      <point x="426" y="146"/>
      <point x="454" y="341" type="curve" smooth="yes"/>
      <point x="482" y="540"/>
      <point x="531" y="604"/>
    </contour>
  </outline>
</glyph>
<glyph name="a-cy" format="2">
  <advance width="580"/>
  <unicode hex="0430"/>
  <anchor x="321" y="553" name="top"/>
  <outline>
    <contour>
      <point x="287" y="502" type="curve" smooth="yes"/>
      <point x="161" y="502"/>
      <point x="77" y="477"/>
      <point x="46" y="251" type="curve" smooth="yes"/>
      <point x="18" y="49"/>
      <point x="65" y="-12"/>
      <point x="179" y="-12" type="curve" smooth="yes"/>
      <point x="308" y="-12"/>
      <point x="401" y="79"/>
      <point x="439" y="167" type="curve"/>
      <point x="416" y="212" type="line"/>
      <point x="333" y="128"/>
      <point x="277" y="81"/>
      <point x="202" y="81" type="curve" smooth="yes"/>
      <point x="147" y="81"/>
      <point x="134" y="101"/>
      <point x="154" y="244" type="curve" smooth="yes"/>
      <point x="175" y="395"/>
      <point x="197" y="412"/>
      <point x="321" y="412" type="curve" smooth="yes"/>
      <point x="344" y="412"/>
      <point x="412" y="411"/>
      <point x="486" y="409" type="curve"/>
      <point x="534" y="474" type="line"/>
      <point x="464" y="490"/>
      <point x="361" y="502"/>
    </contour>
    <contour>
      <point x="426" y="474" type="line"/>
      <point x="375" y="122" type="line"/>
      <point x="386" y="113" type="line"/>
      <point x="382" y="0" type="line"/>
      <point x="467" y="0" type="line"/>
      <point x="534" y="474" type="line"/>
    </contour>
  </outline>
</glyph>
<glyph name="ge-cy" format="2">
  <advance width="522"/>
  <unicode hex="0433"/>
  <anchor x="267" y="553" name="top"/>
  <outline>
    <contour>
      <point x="275" y="502" type="curve" smooth="yes"/>
      <point x="207" y="499"/>
      <point x="140" y="490"/>
      <point x="73" y="470" type="curve"/>
      <point x="75" y="384" type="line"/>
      <point x="161" y="403"/>
      <point x="205" y="409"/>
      <point x="268" y="412" type="curve" smooth="yes"/>
      <point x="364" y="416"/>
      <point x="378" y="408"/>
      <point x="376" y="382" type="curve" smooth="yes"/>
      <point x="374" y="354"/>
      <point x="354" y="336"/>
      <point x="282" y="311" type="curve" smooth="yes"/>
      <point x="158" y="262" type="line" smooth="yes"/>
      <point x="77" y="230"/>
      <point x="31" y="194"/>
      <point x="23" y="123" type="curve" smooth="yes"/>
      <point x="12" y="28"/>
      <point x="83" y="-13"/>
      <point x="205" y="-13" type="curve" smooth="yes"/>
      <point x="257" y="-13"/>
      <point x="351" y="-6"/>
      <point x="446" y="31" type="curve"/>
      <point x="443" y="119" type="line"/>
      <point x="372" y="97"/>
      <point x="288" y="82"/>
      <point x="202" y="80" type="curve" smooth="yes"/>
      <point x="155" y="79"/>
      <point x="126" y="83"/>
      <point x="130" y="120" type="curve" smooth="yes"/>
      <point x="132" y="142"/>
      <point x="146" y="155"/>
      <point x="191" y="174" type="curve" smooth="yes"/>
      <point x="329" y="231" type="line" smooth="yes"/>
      <point x="369" y="246"/>
      <point x="466" y="278"/>
      <point x="479" y="384" type="curve" smooth="yes"/>
      <point x="493" y="501"/>
      <point x="383" y="507"/>
    </contour>
  </outline>
</glyph>
<glyph name="ze-cy" format="2">
  <advance width="502"/>
  <unicode hex="0437"/>
  <guideline x="223" y="192" angle="81"/>
  <anchor x="217" y="0" name="bottom"/>
  <anchor x="283" y="547" name="top"/>
  <outline>
    <contour>
      <point x="234" y="499" type="curve" smooth="yes"/>
      <point x="196" y="499"/>
      <point x="132" y="498"/>
      <point x="72" y="481" type="curve"/>
      <point x="75" y="400" type="line"/>
      <point x="115" y="405"/>
      <point x="179" y="409"/>
      <point x="236" y="409" type="curve" smooth="yes"/>
      <point x="336" y="409"/>
      <point x="349" y="401"/>
      <point x="343" y="357" type="curve" smooth="yes"/>
      <point x="335" y="304"/>
      <point x="308" y="288"/>
      <point x="229" y="288" type="curve" smooth="yes"/>
      <point x="107" y="288" type="line"/>
      <point x="98" y="212" type="line"/>
      <point x="225" y="210" type="line" smooth="yes"/>
      <point x="309" y="209"/>
      <point x="331" y="197"/>
      <point x="324" y="148" type="curve" smooth="yes"/>
      <point x="317" y="92"/>
      <point x="297" y="80"/>
      <point x="197" y="80" type="curve" smooth="yes"/>
      <point x="137" y="80"/>
      <point x="63" y="84"/>
      <point x="12" y="89" type="curve"/>
      <point x="-2" y="7" type="line"/>
      <point x="62" y="-6"/>
      <point x="135" y="-10"/>
      <point x="203" y="-10" type="curve" smooth="yes"/>
      <point x="353" y="-10"/>
      <point x="415" y="8"/>
      <point x="430" y="117" type="curve" smooth="yes"/>
      <point x="442" y="200"/>
      <point x="411" y="242"/>
      <point x="327" y="249" type="curve"/>
      <point x="328" y="252" type="line"/>
      <point x="408" y="259"/>
      <point x="437" y="292"/>
      <point x="447" y="363" type="curve" smooth="yes"/>
      <point x="462" y="474"/>
      <point x="388" y="499"/>
    </contour>
  </outline>
</glyph>
<glyph name="ii-cy" format="2">
  <advance width="575"/>
  <unicode hex="0438"/>
  <anchor x="323" y="553" name="top"/>
  <outline>
    <contour>
      <point x="205" y="489" type="line"/>
      <point x="97" y="489" type="line"/>
      <point x="46" y="124" type="line" smooth="yes"/>
      <point x="34" y="41"/>
      <point x="73" y="-13"/>
      <point x="164" y="-13" type="curve" smooth="yes"/>
      <point x="244" y="-13"/>
      <point x="314" y="29"/>
      <point x="399" y="114" type="curve"/>
      <point x="388" y="188" type="line"/>
      <point x="305" y="115"/>
      <point x="260" y="79"/>
      <point x="202" y="79" type="curve" smooth="yes"/>
      <point x="160" y="79"/>
      <point x="149" y="98"/>
      <point x="157" y="152" type="curve" smooth="yes"/>
    </contour>
    <contour>
      <point x="530" y="489" type="line"/>
      <point x="423" y="489" type="line"/>
      <point x="377" y="149" type="line"/>
      <point x="385" y="135" type="line"/>
      <point x="379" y="0" type="line"/>
      <point x="462" y="0" type="line"/>
    </contour>
  </outline>
</glyph>
<glyph name="ka-cy" format="2">
  <advance width="539"/>
  <unicode hex="043A"/>
  <anchor x="316" y="553" name="top"/>
  <outline>
    <contour>
      <point x="526" y="489" type="curve"/>
      <point x="411" y="489" type="line"/>
      <point x="346" y="355"/>
      <point x="316" y="295"/>
      <point x="227" y="295" type="curve"/>
      <point x="223" y="213" type="line"/>
      <point x="319" y="214"/>
      <point x="323" y="165"/>
      <point x="364" y="0" type="curve"/>
      <point x="470" y="0" type="line"/>
      <point x="426" y="182"/>
      <point x="421" y="241"/>
      <point x="312" y="252" type="curve"/>
      <point x="313" y="255" type="line"/>
      <point x="417" y="268"/>
      <point x="447" y="327"/>
    </contour>
    <contour>
      <point x="207" y="489" type="line"/>
      <point x="100" y="489" type="line"/>
      <point x="31" y="0" type="line"/>
      <point x="138" y="0" type="line"/>
      <point x="162" y="166" type="line" smooth="yes"/>
      <point x="167" y="203"/>
      <point x="162" y="228"/>
      <point x="159" y="255" type="curve"/>
      <point x="172" y="287"/>
      <point x="183" y="316"/>
      <point x="188" y="349" type="curve" smooth="yes"/>
    </contour>
    <contour>
      <point x="264" y="295" type="line"/>
      <point x="151" y="295" type="line"/>
      <point x="140" y="213" type="line"/>
      <point x="253" y="213" type="line"/>
    </contour>
  </outline>
</glyph>
<glyph name="el-cy" format="2">
  <advance width="572"/>
  <unicode hex="043B"/>
  <outline>
    <contour>
      <point x="514" y="489" type="line"/>
      <point x="295" y="489" type="line" smooth="yes"/>
      <point x="213" y="489"/>
      <point x="176" y="450"/>
      <point x="155" y="371" type="curve" smooth="yes"/>
      <point x="135" y="296"/>
      <point x="107" y="203"/>
      <point x="81" y="143" type="curve" smooth="yes"/>
      <point x="56" y="86"/>
      <point x="28" y="89"/>
      <point x="-14" y="82" type="curve"/>
      <point x="-6" y="-5" type="line"/>
      <point x="82" y="-9"/>
      <point x="142" y="15"/>
      <point x="177" y="104" type="curve" smooth="yes"/>
      <point x="204" y="172"/>
      <point x="234" y="262"/>
      <point x="254" y="344" type="curve" smooth="yes"/>
      <point x="266" y="391"/>
      <point x="285" y="406"/>
      <point x="323" y="406" type="curve" smooth="yes"/>
      <point x="503" y="406" type="line"/>
    </contour>
    <contour>
      <point x="527" y="489" type="line"/>
      <point x="420" y="489" type="line"/>
      <point x="351" y="0" type="line"/>
      <point x="458" y="0" type="line"/>
    </contour>
  </outline>
</glyph>
<glyph name="o-cy" format="2">
  <advance width="571"/>
  <unicode hex="043E"/>
  <anchor x="325" y="553" name="top"/>
  <outline>
    <contour>
      <point x="310" y="502" type="curve" smooth="yes"/>
      <point x="140" y="502"/>
      <point x="68" y="432"/>
      <point x="43" y="248" type="curve" smooth="yes"/>
      <point x="17" y="59"/>
      <point x="85" y="-13"/>
      <point x="250" y="-13" type="curve" smooth="yes"/>
      <point x="416" y="-13"/>
      <point x="489" y="55"/>
      <point x="515" y="240" type="curve" smooth="yes"/>
      <point x="542" y="429"/>
      <point x="477" y="502"/>
    </contour>
    <contour>
      <point x="310" y="412" type="curve" smooth="yes"/>
      <point x="402" y="412"/>
      <point x="423" y="377"/>
      <point x="404" y="248" type="curve" smooth="yes"/>
      <point x="386" y="116"/>
      <point x="348" y="77"/>
      <point x="250" y="77" type="curve" smooth="yes"/>
      <point x="157" y="77"/>
      <point x="137" y="112"/>
      <point x="155" y="240" type="curve" smooth="yes"/>
      <point x="175" y="379"/>
      <point x="214" y="412"/>
    </contour>
  </outline>
</glyph>
<glyph name="pe-cy" format="2">
  <advance width="586"/>
  <unicode hex="043F"/>
  <outline>
    <contour>
      <point x="411" y="502" type="curve" smooth="yes"/>
      <point x="337" y="502"/>
      <point x="264" y="462"/>
      <point x="174" y="379" type="curve"/>
      <point x="173" y="302" type="line"/>
      <point x="259" y="369"/>
      <point x="316" y="411"/>
      <point x="377" y="411" type="curve" smooth="yes"/>
      <point x="414" y="411"/>
      <point x="422" y="396"/>
      <point x="415" y="337" type="curve" smooth="yes"/>
      <point x="368" y="0" type="line"/>
      <point x="475" y="0" type="line"/>
      <point x="527" y="365" type="line" smooth="yes"/>
      <point x="540" y="455"/>
      <point x="491" y="502"/>
    </contour>
    <contour>
      <point x="186" y="489" type="line"/>
      <point x="100" y="489" type="line"/>
      <point x="31" y="0" type="line"/>
      <point x="139" y="0" type="line"/>
      <point x="186" y="347" type="line"/>
      <point x="181" y="362" type="line"/>
    </contour>
  </outline>
</glyph>
<glyph name="er-cy" format="2">
  <advance width="583"/>
  <unicode hex="0440"/>
  <outline>
    <contour>
      <point x="392" y="501" type="curve" smooth="yes"/>
      <point x="293" y="501"/>
      <point x="167" y="390"/>
      <point x="129" y="322" type="curve"/>
      <point x="152" y="277" type="line"/>
      <point x="235" y="361"/>
      <point x="321" y="408"/>
      <point x="366" y="408" type="curve" smooth="yes"/>
      <point x="419" y="408"/>
      <point x="433" y="388"/>
      <point x="413" y="245" type="curve" smooth="yes"/>
      <point x="392" y="92"/>
      <point x="370" y="75"/>
      <point x="247" y="75" type="curve" smooth="yes"/>
      <point x="224" y="75"/>
      <point x="156" y="76"/>
      <point x="82" y="78" type="curve"/>
      <point x="54" y="15" type="line"/>
      <point x="118" y="-1"/>
      <point x="220" y="-13"/>
      <point x="288" y="-13" type="curve" smooth="yes"/>
      <point x="407" y="-13"/>
      <point x="491" y="12"/>
      <point x="522" y="238" type="curve" smooth="yes"/>
      <point x="551" y="449"/>
      <point x="503" y="501"/>
    </contour>
    <contour>
      <point x="186" y="489" type="line"/>
      <point x="101" y="489" type="line"/>
      <point x="3" y="-197" type="line"/>
      <point x="111" y="-197" type="line"/>
      <point x="128" y="-93" type="line" smooth="yes"/>
      <point x="134" y="-55"/>
      <point x="135" y="-23"/>
      <point x="135" y="12" type="curve"/>
      <point x="145" y="28" type="line"/>
      <point x="193" y="379" type="line"/>
      <point x="182" y="388" type="line"/>
    </contour>
  </outline>
</glyph>
<glyph name="es-cy" format="2">
  <advance width="492"/>
  <unicode hex="0441"/>
  <outline>
    <contour>
      <point x="308" y="502" type="curve" smooth="yes"/>
      <point x="139" y="502"/>
      <point x="70" y="436"/>
      <point x="43" y="249" type="curve" smooth="yes"/>
      <point x="16" y="63"/>
      <point x="72" y="-12"/>
      <point x="247" y="-12" type="curve" smooth="yes"/>
      <point x="304" y="-12"/>
      <point x="369" y="-4"/>
      <point x="422" y="15" type="curve"/>
      <point x="415" y="88" type="line"/>
      <point x="363" y="80"/>
      <point x="300" y="78"/>
      <point x="267" y="78" type="curve" smooth="yes"/>
      <point x="165" y="78"/>
      <point x="138" y="100"/>
      <point x="155" y="241" type="curve" smooth="yes"/>
      <point x="172" y="385"/>
      <point x="217" y="412"/>
      <point x="325" y="412" type="curve" smooth="yes"/>
      <point x="357" y="412"/>
      <point x="409" y="411"/>
      <point x="456" y="409" type="curve"/>
      <point x="472" y="475" type="line"/>
      <point x="426" y="495"/>
      <point x="357" y="502"/>
    </contour>
  </outline>
</glyph>
<glyph name="te-cy" format="2">
  <advance width="875"/>
  <unicode hex="0442"/>
  <outline>
    <contour>
      <point x="183" y="489" type="line"/>
      <point x="100" y="489" type="line"/>
      <point x="31" y="0" type="line"/>
      <point x="138" y="0" type="line"/>
      <point x="186" y="347" type="line"/>
      <point x="178" y="362" type="line"/>
    </contour>
    <contour>
      <point x="388" y="502" type="curve" smooth="yes"/>
      <point x="317" y="502"/>
      <point x="252" y="465"/>
      <point x="170" y="378" type="curve"/>
      <point x="173" y="302" type="line"/>
      <point x="262" y="384"/>
      <point x="298" y="411"/>
      <point x="347" y="411" type="curve" smooth="yes"/>
      <point x="392" y="411"/>
      <point x="400" y="388"/>
      <point x="393" y="337" type="curve" smooth="yes"/>
      <point x="346" y="0" type="line"/>
      <point x="450" y="0" type="line"/>
      <point x="501" y="365" type="line" smooth="yes"/>
      <point x="513" y="448"/>
      <point x="473" y="502"/>
    </contour>
    <contour>
      <point x="702" y="502" type="curve" smooth="yes"/>
      <point x="632" y="502"/>
      <point x="570" y="467"/>
      <point x="488" y="379" type="curve"/>
      <point x="490" y="303" type="line"/>
      <point x="580" y="388"/>
      <point x="614" y="411"/>
      <point x="659" y="411" type="curve" smooth="yes"/>
      <point x="695" y="411"/>
      <point x="713" y="396"/>
      <point x="705" y="337" type="curve" smooth="yes"/>
      <point x="658" y="0" type="line"/>
      <point x="765" y="0" type="line"/>
      <point x="816" y="365" type="line" smooth="yes"/>
      <point x="828" y="448"/>
      <point x="788" y="502"/>
    </contour>
  </outline>
</glyph>
<glyph name="sha-cy" format="2">
  <advance width="854"/>
  <unicode hex="0448"/>
  <outline>
    <contour>
      <point x="202" y="489" type="line"/>
      <point x="95" y="489" type="line"/>
      <point x="44" y="124" type="line" smooth="yes"/>
      <point x="32" y="41"/>
      <point x="72" y="-13"/>
      <point x="158" y="-13" type="curve" smooth="yes"/>
      <point x="225" y="-13"/>
      <point x="284" y="22"/>
      <point x="362" y="110" type="curve"/>
      <point x="360" y="186" type="line"/>
      <point x="275" y="109"/>
      <point x="252" y="86"/>
      <point x="205" y="86" type="curve" smooth="yes"/>
      <point x="164" y="86"/>
      <point x="147" y="101"/>
      <point x="155" y="152" type="curve" smooth="yes"/>
    </contour>
    <contour>
      <point x="504" y="489" type="line"/>
      <point x="400" y="489" type="line"/>
      <point x="349" y="124" type="line" smooth="yes"/>
      <point x="337" y="41"/>
      <point x="377" y="-13"/>
      <point x="462" y="-13" type="curve" smooth="yes"/>
      <point x="530" y="-13"/>
      <point x="592" y="24"/>
      <point x="670" y="111" type="curve"/>
      <point x="667" y="187" type="line"/>
      <point x="583" y="113"/>
      <point x="558" y="86"/>
      <point x="506" y="86" type="curve" smooth="yes"/>
      <point x="458" y="86"/>
      <point x="450" y="107"/>
      <point x="457" y="152" type="curve" smooth="yes"/>
    </contour>
    <contour>
      <point x="809" y="489" type="line"/>
      <point x="702" y="489" type="line"/>
      <point x="654" y="142" type="line"/>
      <point x="662" y="127" type="line"/>
      <point x="657" y="0" type="line"/>
      <point x="740" y="0" type="line"/>
    </contour>
  </outline>
</glyph>
<glyph name="iu-cy" format="2">
  <advance width="804"/>
  <unicode hex="044E"/>
  <outline>
    <contour>
      <point x="541" y="502" type="curve" smooth="yes"/>
      <point x="384" y="502"/>
      <point x="315" y="448"/>
      <point x="287" y="249" type="curve" smooth="yes"/>
      <point x="259" y="50"/>
      <point x="316" y="-9"/>
      <point x="481" y="-9" type="curve" smooth="yes"/>
      <point x="651" y="-9"/>
      <point x="719" y="46"/>
      <point x="747" y="241" type="curve" smooth="yes"/>
      <point x="775" y="443"/>
      <point x="707" y="502"/>
    </contour>
    <contour>
      <point x="208" y="489" type="line"/>
      <point x="101" y="489" type="line"/>
      <point x="32" y="0" type="line"/>
      <point x="139" y="0" type="line"/>
    </contour>
    <contour>
      <point x="339" y="293" type="line"/>
      <point x="174" y="293" type="line"/>
      <point x="162" y="210" type="line"/>
      <point x="327" y="210" type="line"/>
    </contour>
    <contour>
      <point x="538" y="411" type="curve" smooth="yes"/>
      <point x="632" y="411"/>
      <point x="653" y="376"/>
      <point x="636" y="250" type="curve" smooth="yes"/>
      <point x="618" y="121"/>
      <point x="580" y="81"/>
      <point x="480" y="81" type="curve" smooth="yes"/>
      <point x="389" y="81"/>
      <point x="370" y="117"/>
      <point x="388" y="242" type="curve" smooth="yes"/>
      <point x="406" y="372"/>
      <point x="441" y="411"/>
    </contour>
  </outline>
</glyph>
<glyph name="dje-cy" format="2">
  <advance width="599"/>
  <unicode hex="0452"/>
  <outline>
    <contour>
      <point x="411" y="406" type="curve" smooth="yes"/>
      <point x="342" y="406"/>
      <point x="263" y="373"/>
      <point x="180" y="305" type="curve"/>
      <point x="185" y="230" type="line"/>
      <point x="261" y="284"/>
      <point x="309" y="310"/>
      <point x="361" y="310" type="curve" smooth="yes"/>
      <point x="415" y="310"/>
      <point x="428" y="294"/>
      <point x="421" y="242" type="curve" smooth="yes"/>
      <point x="387" y="3" type="line" smooth="yes"/>
      <point x="378" y="-59"/>
      <point x="354" y="-104"/>
      <point x="308" y="-152" type="curve"/>
      <point x="366" y="-202" type="line"/>
      <point x="435" y="-159"/>
      <point x="482" y="-84"/>
      <point x="494" y="-2" type="curve" smooth="yes"/>
      <point x="532" y="269" type="line" smooth="yes"/>
      <point x="544" y="358"/>
      <point x="503" y="406"/>
    </contour>
    <contour>
      <point x="256" y="700" type="line"/>
      <point x="149" y="700" type="line"/>
      <point x="50" y="0" type="line"/>
      <point x="158" y="0" type="line"/>
      <point x="193" y="269" type="line"/>
      <point x="185" y="281" type="line"/>
      <point x="199" y="315"/>
      <point x="210" y="365"/>
      <point x="217" y="417" type="curve" smooth="yes"/>
    </contour>
    <contour>
      <point x="415" y="550" type="line"/>
      <point x="60" y="550" type="line"/>
      <point x="52" y="480" type="line"/>
      <point x="407" y="480" type="line"/>
    </contour>
  </outline>
</glyph>
<glyph name="dze-cy" format="2">
  <advance width="513"/>
  <unicode hex="0455"/>
  <outline>
    <contour>
      <point x="266" y="502" type="curve" smooth="yes"/>
      <point x="136" y="504"/>
      <point x="68" y="476"/>
      <point x="58" y="383" type="curve" smooth="yes"/>
      <point x="50" y="315"/>
      <point x="81" y="274"/>
      <point x="153" y="239" type="curve" smooth="yes"/>
      <point x="280" y="179" type="line" smooth="yes"/>
      <point x="322" y="159"/>
      <point x="345" y="154"/>
      <point x="340" y="122" type="curve" smooth="yes"/>
      <point x="334" y="88"/>
      <point x="305" y="79"/>
      <point x="181" y="79" type="curve" smooth="yes"/>
      <point x="139" y="79"/>
      <point x="73" y="80"/>
      <point x="31" y="83" type="curve"/>
      <point x="19" y="4" type="line"/>
      <point x="90" y="-3"/>
      <point x="97" y="-11"/>
      <point x="211" y="-11" type="curve" smooth="yes"/>
      <point x="350" y="-11"/>
      <point x="430" y="1"/>
      <point x="445" y="113" type="curve" smooth="yes"/>
      <point x="455" y="187"/>
      <point x="425" y="219"/>
      <point x="347" y="256" type="curve" smooth="yes"/>
      <point x="219" y="316" type="line" smooth="yes"/>
      <point x="181" y="334"/>
      <point x="158" y="343"/>
      <point x="162" y="376" type="curve" smooth="yes"/>
      <point x="166" y="410"/>
      <point x="194" y="412"/>
      <point x="269" y="412" type="curve" smooth="yes"/>
      <point x="345" y="412"/>
      <point x="403" y="410"/>
      <point x="465" y="408" type="curve"/>
      <point x="478" y="485" type="line"/>
      <point x="423" y="494"/>
      <point x="336" y="501"/>
    </contour>
  </outline>
</glyph>
<glyph name="i-cy" format="2">
  <advance width="260"/>
  <unicode hex="0456"/>
  <outline>
    <contour>
      <point x="211" y="489" type="line"/>
      <point x="104" y="489" type="line"/>
      <point x="36" y="0" type="line"/>
      <point x="143" y="0" type="line"/>
    </contour>
    <contour>
      <point x="210" y="699" type="curve" smooth="yes"/>
      <point x="159" y="699" type="line" smooth="yes"/>
      <point x="138" y="699"/>
      <point x="129" y="689"/>
      <point x="127" y="670" type="curve" smooth="yes"/>
      <point x="119" y="615" type="line" smooth="yes"/>
      <point x="116" y="594"/>
      <point x="127" y="582"/>
      <point x="148" y="582" type="curve" smooth="yes"/>
      <point x="199" y="582" type="line" smooth="yes"/>
      <point x="220" y="582"/>
      <point x="229" y="590"/>
      <point x="232" y="611" type="curve" smooth="yes"/>
      <point x="239" y="666" type="line" smooth="yes"/>
      <point x="242" y="685"/>
      <point x="231" y="699"/>
    </contour>
  </outline>
</glyph>
<glyph name="je-cy" format="2">
  <advance width="260"/>
  <unicode hex="0458"/>
  <outline>
    <contour>
      <point x="211" y="489" type="line"/>
      <point x="104" y="489" type="line"/>
      <point x="35" y="3" type="line" smooth="yes"/>
      <point x="26" y="-59"/>
      <point x="2" y="-104"/>
      <point x="-44" y="-152" type="curve"/>
      <point x="14" y="-202" type="line"/>
      <point x="83" y="-159"/>
      <point x="131" y="-84"/>
      <point x="142" y="-2" type="curve" smooth="yes"/>
    </contour>
    <contour>
      <point x="210" y="699" type="curve" smooth="yes"/>
      <point x="159" y="699" type="line"/>
      <point x="138" y="699"/>
      <point x="129" y="689"/>
      <point x="127" y="670" type="curve" smooth="yes"/>
      <point x="119" y="615" type="line"/>
      <point x="116" y="594"/>
      <point x="127" y="582"/>
      <point x="148" y="582" type="curve" smooth="yes"/>
      <point x="199" y="582" type="line"/>
      <point x="220" y="582"/>
      <point x="229" y="590"/>
      <point x="232" y="611" type="curve" smooth="yes"/>
      <point x="239" y="666" type="line"/>
      <point x="242" y="685"/>
      <point x="231" y="699"/>
    </contour>
  </outline>
</glyph>
<glyph name="lje-cy" format="2">
  <advance width="812"/>
  <unicode hex="0459"/>
  <outline>
    <contour>
      <point x="484" y="489" type="line"/>
      <point x="284" y="489" type="line" smooth="yes"/>
      <point x="211" y="489"/>
      <point x="175" y="454"/>
      <point x="159" y="388" type="curve" smooth="yes"/>
      <point x="123" y="238"/>
      <point x="114" y="185"/>
      <point x="76" y="134" type="curve" smooth="yes"/>
      <point x="53" y="103"/>
      <point x="27" y="84"/>
      <point x="-14" y="80" type="curve"/>
      <point x="-10" y="-4" type="line"/>
      <point x="53" y="-5"/>
      <point x="117" y="11"/>
      <point x="168" y="99" type="curve" smooth="yes"/>
      <point x="206" y="165"/>
      <point x="220" y="223"/>
      <point x="252" y="360" type="curve" smooth="yes"/>
      <point x="260" y="395"/>
      <point x="279" y="408"/>
      <point x="316" y="408" type="curve" smooth="yes"/>
      <point x="473" y="408" type="line"/>
    </contour>
    <contour>
      <point x="492" y="489" type="line"/>
      <point x="395" y="489" type="line"/>
      <point x="345" y="138" type="line" smooth="yes"/>
      <point x="333" y="11"/>
      <point x="429" y="-8"/>
      <point x="552" y="-6" type="curve" smooth="yes"/>
      <point x="676" y="-4"/>
      <point x="736" y="19"/>
      <point x="754" y="147" type="curve" smooth="yes"/>
      <point x="769" y="254"/>
      <point x="735" y="309"/>
      <point x="587" y="309" type="curve" smooth="yes"/>
      <point x="509" y="309"/>
      <point x="470" y="294"/>
      <point x="383" y="259" type="curve"/>
      <point x="372" y="191" type="line"/>
      <point x="446" y="214"/>
      <point x="502" y="231"/>
      <point x="571" y="231" type="curve" smooth="yes"/>
      <point x="636" y="231"/>
      <point x="655" y="216"/>
      <point x="647" y="159" type="curve" smooth="yes"/>
      <point x="638" y="94"/>
      <point x="611" y="78"/>
      <point x="531" y="78" type="curve" smooth="yes"/>
      <point x="468" y="78"/>
      <point x="435" y="88"/>
      <point x="442" y="137" type="curve" smooth="yes"/>
    </contour>
  </outline>
</glyph>
<glyph name="nje-cy" format="2">
  <advance width="819"/>
  <unicode hex="045A"/>
  <outline>
    <contour>
      <point x="503" y="489" type="line"/>
      <point x="402" y="489" type="line"/>
      <point x="352" y="138" type="line" smooth="yes"/>
      <point x="337" y="-10"/>
      <point x="480" y="-6"/>
      <point x="559" y="-6" type="curve" smooth="yes"/>
      <point x="688" y="-6"/>
      <point x="744" y="26"/>
      <point x="761" y="147" type="curve" smooth="yes"/>
      <point x="778" y="269"/>
      <point x="733" y="309"/>
      <point x="577" y="309" type="curve" smooth="yes"/>
      <point x="515" y="309"/>
      <point x="452" y="284"/>
      <point x="390" y="259" type="curve"/>
      <point x="379" y="191" type="line"/>
      <point x="443" y="211"/>
      <point x="508" y="231"/>
      <point x="572" y="231" type="curve" smooth="yes"/>
      <point x="647" y="231"/>
      <point x="662" y="214"/>
      <point x="654" y="159" type="curve" smooth="yes"/>
      <point x="645" y="94"/>
      <point x="616" y="78"/>
      <point x="542" y="78" type="curve" smooth="yes"/>
      <point x="481" y="78"/>
      <point x="446" y="86"/>
      <point x="453" y="137" type="curve" smooth="yes"/>
    </contour>
    <contour>
      <point x="199" y="489" type="line"/>
      <point x="100" y="489" type="line"/>
      <point x="31" y="0" type="line"/>
      <point x="130" y="0" type="line"/>
    </contour>
    <contour>
      <point x="384" y="308" type="line"/>
      <point x="167" y="308" type="line"/>
      <point x="156" y="231" type="line"/>
      <point x="373" y="231" type="line"/>
    </contour>
  </outline>
</glyph>
<glyph name="dzhe-cy" format="2">
  <advance width="575"/>
  <unicode hex="045F"/>
  <outline>
    <contour>
      <point x="300" y="-42" type="line"/>
      <point x="228" y="-42" type="line"/>
      <point x="189" y="-235" type="line"/>
      <point x="282" y="-235" type="line"/>
    </contour>
    <component base="u" xOffset="2"/>
  </outline>
</glyph>
<glyph name="yat-cy" format="2">
  <advance width="514"/>
  <unicode hex="0463"/>
  <outline>
    <contour>
      <point x="254" y="-6" type="curve" smooth="yes"/>
      <point x="383" y="-6"/>
      <point x="439" y="26"/>
      <point x="456" y="147" type="curve" smooth="yes"/>
      <point x="473" y="269"/>
      <point x="428" y="309"/>
      <point x="272" y="309" type="curve" smooth="yes"/>
      <point x="210" y="309"/>
      <point x="147" y="284"/>
      <point x="85" y="259" type="curve"/>
      <point x="74" y="191" type="line"/>
      <point x="138" y="211"/>
      <point x="203" y="231"/>
      <point x="267" y="231" type="curve" smooth="yes"/>
      <point x="342" y="231"/>
      <point x="357" y="214"/>
      <point x="349" y="159" type="curve" smooth="yes"/>
      <point x="340" y="94"/>
      <point x="311" y="78"/>
      <point x="237" y="78" type="curve" smooth="yes"/>
      <point x="179" y="78"/>
      <point x="144" y="86"/>
      <point x="151" y="137" type="curve" smooth="yes"/>
      <point x="229" y="690" type="line"/>
      <point x="125" y="690" type="line"/>
      <point x="47" y="138" type="line" smooth="yes"/>
      <point x="33" y="40"/>
      <point x="86" y="-6"/>
    </contour>
    <contour>
      <point x="7" y="419" type="line"/>
      <point x="367" y="419" type="line"/>
      <point x="376" y="489" type="line"/>
      <point x="16" y="489" type="line"/>
    </contour>
  </outline>
</glyph>
<glyph name="Izhitsa-cy" format="2">
  <advance width="655"/>
  <unicode hex="0474"/>
  <outline>
    <contour>
      <point x="209" y="0" type="curve" smooth="yes"/>
      <point x="316" y="0" type="line" smooth="yes"/>
      <point x="336" y="0"/>
      <point x="353" y="13"/>
      <point x="361" y="31" type="curve" smooth="yes"/>
      <point x="584" y="567" type="line" smooth="yes"/>
      <point x="601" y="608"/>
      <point x="623" y="620"/>
      <point x="666" y="620" type="curve" smooth="yes"/>
      <point x="672" y="620"/>
      <point x="689" y="619"/>
      <point x="696" y="618" type="curve"/>
      <point x="708" y="699" type="line"/>
      <point x="689" y="702"/>
      <point x="671" y="704"/>
      <point x="653" y="704" type="curve" smooth="yes"/>
      <point x="579" y="704"/>
      <point x="513" y="680"/>
      <point x="480" y="592" type="curve" smooth="yes"/>
      <point x="317" y="161" type="line" smooth="yes"/>
      <point x="308" y="136"/>
      <point x="296" y="110"/>
      <point x="287" y="85" type="curve"/>
      <point x="261" y="85" type="line"/>
      <point x="259" y="110"/>
      <point x="257" y="136"/>
      <point x="253" y="161" type="curve" smooth="yes"/>
      <point x="180" y="690" type="line"/>
      <point x="65" y="690" type="line"/>
      <point x="172" y="31" type="line" smooth="yes"/>
      <point x="174" y="13"/>
      <point x="189" y="0"/>
    </contour>
  </outline>
</glyph>
<glyph name="Ertick-cy" format="2">
  <advance width="585"/>
  <unicode hex="048E"/>
  <outline>
    <contour>
      <point x="375" y="699" type="curve" smooth="yes"/>
      <point x="264" y="699"/>
      <point x="213" y="698"/>
      <point x="136" y="690" type="curve"/>
      <point x="141" y="600" type="line"/>
      <point x="169" y="603"/>
      <point x="256" y="604"/>
      <point x="371" y="604" type="curve" smooth="yes"/>
      <point x="454" y="604"/>
      <point x="483" y="582"/>
      <point x="468" y="483" type="curve" smooth="yes"/>
      <point x="453" y="381"/>
      <point x="425" y="353"/>
      <point x="323" y="353" type="curve" smooth="yes"/>
      <point x="250" y="353"/>
      <point x="170" y="353"/>
      <point x="98" y="353" type="curve"/>
      <point x="92" y="287" type="line"/>
      <point x="116" y="276"/>
      <point x="227" y="258"/>
      <point x="327" y="258" type="curve" smooth="yes"/>
      <point x="489" y="258"/>
      <point x="552" y="292"/>
      <point x="578" y="475" type="curve" smooth="yes"/>
      <point x="601" y="637"/>
      <point x="540" y="699"/>
    </contour>
    <contour>
      <point x="247" y="690" type="line"/>
      <point x="136" y="690" type="line"/>
      <point x="39" y="0" type="line"/>
      <point x="150" y="0" type="line"/>
    </contour>
    <contour>
      <point x="309" y="435" type="line"/>
      <point x="548" y="198" type="line"/>
      <point x="590" y="241" type="line"/>
      <point x="351" y="478" type="line"/>
    </contour>
  </outline>
</glyph>
<glyph name="Gheupturn-cy" format="2">
  <advance width="523"/>
  <unicode hex="0490"/>
  <outline>
    <contour>
      <point x="263" y="692" type="curve" smooth="yes"/>
      <point x="182" y="692"/>
      <point x="127" y="643"/>
      <point x="114" y="553" type="curve" smooth="yes"/>
      <point x="37" y="0" type="line"/>
      <point x="148" y="0" type="line"/>
      <point x="222" y="528" type="line" smooth="yes"/>
      <point x="230" y="586"/>
      <point x="248" y="597"/>
      <point x="296" y="597" type="curve" smooth="yes"/>
      <point x="544" y="597" type="line"/>
      <point x="557" y="673" type="line"/>
      <point x="470" y="692"/>
      <point x="364" y="692"/>
    </contour>
    <contour>
      <point x="583" y="841" type="line"/>
      <point x="507" y="841" type="line"/>
      <point x="469" y="658" type="line"/>
      <point x="557" y="673" type="line"/>
    </contour>
  </outline>
</glyph>
<glyph name="ghemiddlehook-cy" format="2">
  <advance width="540"/>
  <unicode hex="0495"/>
  <outline>
    <contour>
      <point x="234" y="493" type="curve" smooth="yes"/>
      <point x="158" y="493"/>
      <point x="115" y="455"/>
      <point x="105" y="382" type="curve" smooth="yes"/>
      <point x="51" y="0" type="line"/>
      <point x="158" y="0" type="line"/>
      <point x="208" y="353" type="line" smooth="yes"/>
      <point x="213" y="391"/>
      <point x="231" y="407"/>
      <point x="268" y="407" type="curve" smooth="yes"/>
      <point x="455" y="407" type="line"/>
      <point x="470" y="483" type="line"/>
      <point x="399" y="493"/>
      <point x="313" y="493"/>
    </contour>
    <contour>
      <point x="210" y="-207" type="line"/>
      <point x="341" y="-185"/>
      <point x="466" y="-132"/>
      <point x="497" y="83" type="curve" smooth="yes"/>
      <point x="521" y="259"/>
      <point x="441" y="291"/>
      <point x="361" y="291" type="curve" smooth="yes"/>
      <point x="304" y="291"/>
      <point x="238" y="275"/>
      <point x="167" y="226" type="curve"/>
      <point x="167" y="157" type="line"/>
      <point x="231" y="191"/>
      <point x="266" y="201"/>
      <point x="316" y="201" type="curve" smooth="yes"/>
      <point x="371" y="201"/>
      <point x="403" y="188"/>
      <point x="388" y="80" type="curve" smooth="yes"/>
      <point x="370" y="-50"/>
      <point x="317" y="-107"/>
      <point x="199" y="-130" type="curve"/>
    </contour>
  </outline>
</glyph>
<glyph name="Kadescender-cy" format="2">
  <advance width="633"/>
  <unicode hex="049A"/>
  <outline>
    <contour>
      <point x="601" y="90" type="line"/>
      <point x="441" y="90" type="line"/>
      <point x="428" y="0" type="line"/>
      <point x="588" y="0" type="line"/>
    </contour>
    <contour>
      <point x="589" y="7" type="line"/>
      <point x="508" y="7" type="line"/>
      <point x="496" y="-151" type="line"/>
      <point x="567" y="-151" type="line"/>
    </contour>
    <component base="Ka-cy"/>
  </outline>
</glyph>
<glyph name="kaverticalstroke-cy" format="2">
  <advance width="544"/>
  <unicode hex="049D"/>
  <anchor x="324" y="553" name="top"/>
  <outline>
    <contour>
      <point x="533" y="489" type="curve"/>
      <point x="423" y="489" type="line"/>
      <point x="359" y="355"/>
      <point x="327" y="295"/>
      <point x="238" y="295" type="curve"/>
      <point x="228" y="213" type="line"/>
      <point x="320" y="214"/>
      <point x="331" y="165"/>
      <point x="367" y="0" type="curve"/>
      <point x="480" y="0" type="line"/>
      <point x="441" y="184"/>
      <point x="429" y="241"/>
      <point x="320" y="253" type="curve"/>
      <point x="321" y="256" type="line"/>
      <point x="426" y="269"/>
      <point x="454" y="329"/>
    </contour>
    <contour>
      <point x="215" y="489" type="line"/>
      <point x="108" y="489" type="line"/>
      <point x="40" y="0" type="line"/>
      <point x="147" y="0" type="line"/>
      <point x="170" y="169" type="line" smooth="yes"/>
      <point x="174" y="195"/>
      <point x="173" y="227"/>
      <point x="168" y="256" type="curve"/>
      <point x="182" y="286"/>
      <point x="191" y="319"/>
      <point x="196" y="351" type="curve" smooth="yes"/>
    </contour>
    <contour>
      <point x="272" y="295" type="line"/>
      <point x="159" y="295" type="line"/>
      <point x="148" y="213" type="line"/>
      <point x="261" y="213" type="line"/>
    </contour>
    <contour>
      <point x="201" y="119" type="line"/>
      <point x="261" y="119" type="line"/>
      <point x="300" y="397" type="line"/>
      <point x="240" y="397" type="line"/>
    </contour>
  </outline>
</glyph>
<glyph name="Kabashkir-cy" format="2">
  <advance width="733"/>
  <unicode hex="04A0"/>
  <outline>
    <contour>
      <point x="362" y="690" type="line"/>
      <point x="46" y="690" type="line"/>
      <point x="32" y="591" type="line"/>
      <point x="348" y="591" type="line"/>
    </contour>
    <component base="Ka-cy" xOffset="134"/>
  </outline>
</glyph>
<glyph name="kabashkir-cy" format="2">
  <advance width="637"/>
  <unicode hex="04A1"/>
  <outline>
    <contour>
      <point x="626" y="489" type="curve"/>
      <point x="516" y="489" type="line"/>
      <point x="452" y="355"/>
      <point x="420" y="295"/>
      <point x="331" y="295" type="curve"/>
      <point x="321" y="213" type="line"/>
      <point x="413" y="214"/>
      <point x="424" y="165"/>
      <point x="460" y="0" type="curve"/>
      <point x="573" y="0" type="line"/>
      <point x="534" y="184"/>
      <point x="522" y="241"/>
      <point x="413" y="253" type="curve"/>
      <point x="414" y="256" type="line"/>
      <point x="519" y="269"/>
      <point x="547" y="329"/>
    </contour>
    <contour>
      <point x="308" y="489" type="line"/>
      <point x="201" y="489" type="line"/>
      <point x="133" y="0" type="line"/>
      <point x="240" y="0" type="line"/>
      <point x="263" y="169" type="line" smooth="yes"/>
      <point x="267" y="195"/>
      <point x="266" y="227"/>
      <point x="261" y="256" type="curve"/>
      <point x="275" y="286"/>
      <point x="284" y="319"/>
      <point x="289" y="351" type="curve" smooth="yes"/>
    </contour>
    <contour>
      <point x="365" y="295" type="line"/>
      <point x="252" y="295" type="line"/>
      <point x="241" y="213" type="line"/>
      <point x="354" y="213" type="line"/>
    </contour>
    <contour>
      <point x="34" y="489" type="line"/>
      <point x="23" y="405" type="line"/>
      <point x="246" y="405" type="line"/>
      <point x="257" y="489" type="line"/>
    </contour>
  </outline>
</glyph>
<glyph name="Haabkhasian-cy" format="2">
  <advance width="859"/>
  <unicode hex="04A8"/>
  <outline>
    <contour>
      <point x="377" y="609" type="curve"/>
      <point x="390" y="703" type="line"/>
      <point x="212" y="703"/>
      <point x="98" y="620"/>
      <point x="66" y="374" type="curve" smooth="yes"/>
      <point x="29" y="91"/>
      <point x="152" y="-12"/>
      <point x="333" y="-12" type="curve" smooth="yes"/>
      <point x="541" y="-12"/>
      <point x="753" y="123"/>
      <point x="792" y="438" type="curve" smooth="yes"/>
      <point x="813" y="607"/>
      <point x="768" y="700"/>
      <point x="622" y="700" type="curve" smooth="yes"/>
      <point x="476" y="700"/>
      <point x="406" y="606"/>
      <point x="377" y="425" type="curve" smooth="yes"/>
      <point x="327" y="114"/>
      <point x="471" y="-12"/>
      <point x="657" y="-12" type="curve" smooth="yes"/>
      <point x="721" y="-12"/>
      <point x="780" y="3"/>
      <point x="808" y="17" type="curve"/>
      <point x="808" y="90" type="line"/>
      <point x="776" y="85"/>
      <point x="716" y="81"/>
      <point x="681" y="81" type="curve" smooth="yes"/>
      <point x="557" y="81"/>
      <point x="447" y="130"/>
      <point x="492" y="416" type="curve" smooth="yes"/>
      <point x="511" y="535"/>
      <point x="541" y="600"/>
      <point x="609" y="600" type="curve" smooth="yes"/>
      <point x="674" y="600"/>
      <point x="689" y="542"/>
      <point x="674" y="424" type="curve" smooth="yes"/>
      <point x="637" y="137"/>
      <point x="498" y="82"/>
      <point x="376" y="82" type="curve" smooth="yes"/>
      <point x="154" y="82"/>
      <point x="171" y="262"/>
      <point x="180" y="344" type="curve" smooth="yes"/>
      <point x="205" y="577"/>
      <point x="296" y="609"/>
    </contour>
  </outline>
</glyph>
<glyph name="haabkhasian-cy" format="2">
  <advance width="696"/>
  <unicode hex="04A9"/>
  <outline>
    <contour>
      <point x="291" y="423" type="curve"/>
      <point x="302" y="502" type="line"/>
      <point x="152" y="502"/>
      <point x="68" y="438"/>
      <point x="43" y="263" type="curve" smooth="yes"/>
      <point x="17" y="77"/>
      <point x="86" y="-9"/>
      <point x="257" y="-9" type="curve" smooth="yes"/>
      <point x="434" y="-9"/>
      <point x="613" y="123"/>
      <point x="637" y="297" type="curve" smooth="yes"/>
      <point x="656" y="434"/>
      <point x="607" y="502"/>
      <point x="492" y="502" type="curve" smooth="yes"/>
      <point x="378" y="502"/>
      <point x="307" y="435"/>
      <point x="288" y="297" type="curve" smooth="yes"/>
      <point x="262" y="113"/>
      <point x="383" y="-9"/>
      <point x="518" y="-9" type="curve" smooth="yes"/>
      <point x="595" y="-9"/>
      <point x="641" y="8"/>
      <point x="668" y="27" type="curve"/>
      <point x="662" y="81" type="line"/>
      <point x="630" y="72"/>
      <point x="590" y="66"/>
      <point x="530" y="66" type="curve" smooth="yes"/>
      <point x="450" y="66"/>
      <point x="371" y="141"/>
      <point x="393" y="297" type="curve" smooth="yes"/>
      <point x="405" y="385"/>
      <point x="431" y="420"/>
      <point x="481" y="420" type="curve" smooth="yes"/>
      <point x="530" y="420"/>
      <point x="549" y="392"/>
      <point x="536" y="297" type="curve" smooth="yes"/>
      <point x="512" y="129"/>
      <point x="389" y="71"/>
      <point x="292" y="71" type="curve" smooth="yes"/>
      <point x="176" y="71"/>
      <point x="133" y="126"/>
      <point x="152" y="263" type="curve" smooth="yes"/>
      <point x="167" y="371"/>
      <point x="212" y="423"/>
    </contour>
  </outline>
</glyph>
<glyph name="Esdescender-cy" format="2">
  <advance width="570"/>
  <unicode hex="04AA"/>
  <outline>
    <contour>
      <point x="338" y="7" type="line"/>
      <point x="252" y="7" type="line"/>
      <point x="235" y="-151" type="line"/>
      <point x="311" y="-151" type="line"/>
    </contour>
    <contour>
      <point x="382" y="702" type="curve" smooth="yes"/>
      <point x="181" y="702"/>
      <point x="99" y="610"/>
      <point x="63" y="349" type="curve" smooth="yes"/>
      <point x="27" y="99"/>
      <point x="93" y="-12"/>
      <point x="294" y="-12" type="curve" smooth="yes"/>
      <point x="384" y="-12"/>
      <point x="440" y="-6"/>
      <point x="502" y="12" type="curve"/>
      <point x="497" y="97" type="line"/>
      <point x="439" y="90"/>
      <point x="386" y="86"/>
      <point x="296" y="87" type="curve" smooth="yes"/>
      <point x="180" y="88"/>
      <point x="151" y="147"/>
      <point x="179" y="341" type="curve" smooth="yes"/>
      <point x="208" y="557"/>
      <point x="261" y="603"/>
      <point x="380" y="603" type="curve" smooth="yes"/>
      <point x="459" y="603"/>
      <point x="499" y="601"/>
      <point x="559" y="596" type="curve"/>
      <point x="576" y="680" type="line"/>
      <point x="519" y="695"/>
      <point x="475" y="702"/>
    </contour>
  </outline>
</glyph>
<glyph name="esdescender-cy" format="2">
  <advance width="488"/>
  <unicode hex="04AB"/>
  <outline>
    <contour>
      <point x="274" y="5" type="line"/>
      <point x="185" y="5" type="line"/>
      <point x="170" y="-164" type="line"/>
      <point x="242" y="-164" type="line"/>
    </contour>
    <component base="c"/>
  </outline>
</glyph>
<glyph name="Tedescender-cy" format="2">
  <advance width="579"/>
  <unicode hex="04AC"/>
  <outline>
    <contour>
      <point x="193" y="0" type="line"/>
      <point x="390" y="0" type="line"/>
      <point x="403" y="90" type="line"/>
      <point x="206" y="90" type="line"/>
    </contour>
    <contour>
      <point x="293" y="-151" type="line"/>
      <point x="369" y="-151" type="line"/>
      <point x="391" y="7" type="line"/>
      <point x="305" y="7" type="line"/>
    </contour>
    <component base="Te-cy"/>
  </outline>
</glyph>
<glyph name="Ustraitstroke-cy" format="2">
  <advance width="586"/>
  <unicode hex="04B0"/>
  <outline>
    <contour>
      <point x="632" y="690" type="line"/>
      <point x="513" y="690" type="line"/>
      <point x="341" y="416" type="line" smooth="yes"/>
      <point x="327" y="391"/>
      <point x="313" y="361"/>
      <point x="302" y="335" type="curve"/>
      <point x="293" y="331" type="line"/>
      <point x="289" y="357"/>
      <point x="284" y="387"/>
      <point x="276" y="412" type="curve" smooth="yes"/>
      <point x="183" y="690" type="line"/>
      <point x="68" y="690" type="line"/>
      <point x="234" y="228" type="line"/>
      <point x="336" y="228" type="line"/>
    </contour>
    <contour>
      <point x="350" y="302" type="line"/>
      <point x="239" y="302" type="line"/>
      <point x="196" y="0" type="line"/>
      <point x="308" y="0" type="line"/>
    </contour>
    <contour>
      <point x="493" y="280" type="line"/>
      <point x="91" y="280" type="line"/>
      <point x="79" y="200" type="line"/>
      <point x="481" y="200" type="line"/>
    </contour>
  </outline>
</glyph>
<glyph name="tetse-cy" format="2">
  <advance width="728"/>
  <unicode hex="04B5"/>
  <outline>
    <contour>
      <point x="511" y="0" type="line"/>
      <point x="619" y="0" type="line"/>
      <point x="687" y="489" type="line"/>
      <point x="579" y="489" type="line"/>
    </contour>
    <contour>
      <point x="155" y="0" type="line"/>
      <point x="262" y="0" type="line"/>
      <point x="330" y="489" type="line"/>
      <point x="223" y="489" type="line"/>
    </contour>
    <contour>
      <point x="256" y="0" type="line"/>
      <point x="688" y="0" type="line"/>
      <point x="700" y="90" type="line"/>
      <point x="268" y="90" type="line"/>
    </contour>
    <contour>
      <point x="592" y="-144" type="line"/>
      <point x="668" y="-144" type="line"/>
      <point x="689" y="7" type="line"/>
      <point x="603" y="7" type="line"/>
    </contour>
    <contour>
      <point x="53" y="406" type="line"/>
      <point x="477" y="406" type="line"/>
      <point x="488" y="489" type="line"/>
      <point x="64" y="489" type="line"/>
    </contour>
  </outline>
</glyph>
<glyph name="Chedescender-cy" format="2">
  <advance width="673"/>
  <unicode hex="04B6"/>
  <outline>
    <contour>
      <point x="221" y="690" type="line"/>
      <point x="110" y="690" type="line"/>
      <point x="70" y="408" type="line" smooth="yes"/>
      <point x="54" y="297"/>
      <point x="107" y="245"/>
      <point x="212" y="245" type="curve" smooth="yes"/>
      <point x="283" y="245"/>
      <point x="385" y="269"/>
      <point x="480" y="328" type="curve"/>
      <point x="475" y="412" type="line"/>
      <point x="389" y="363"/>
      <point x="330" y="342"/>
      <point x="262" y="342" type="curve" smooth="yes"/>
      <point x="190" y="342"/>
      <point x="175" y="366"/>
      <point x="185" y="426" type="curve" smooth="yes"/>
    </contour>
    <contour>
      <point x="617" y="690" type="line"/>
      <point x="506" y="690" type="line"/>
      <point x="409" y="0" type="line"/>
      <point x="520" y="0" type="line"/>
    </contour>
    <contour>
      <point x="618" y="76" type="line"/>
      <point x="471" y="76" type="line"/>
      <point x="461" y="0" type="line"/>
      <point x="608" y="0" type="line"/>
    </contour>
    <contour>
      <point x="513" y="7" type="line"/>
      <point x="500" y="-151" type="line"/>
      <point x="586" y="-151" type="line"/>
      <point x="608" y="0" type="line"/>
    </contour>
  </outline>
</glyph>
<glyph name="Cheabkhasian-cy" format="2">
  <advance width="728"/>
  <unicode hex="04BC"/>
  <outline>
    <contour>
      <point x="162" y="301" type="curve" smooth="yes"/>
      <point x="483" y="301" type="line" smooth="yes"/>
      <point x="625" y="301"/>
      <point x="694" y="345"/>
      <point x="713" y="481" type="curve" smooth="yes"/>
      <point x="735" y="636"/>
      <point x="663" y="703"/>
      <point x="507" y="703" type="curve" smooth="yes"/>
      <point x="294" y="703"/>
      <point x="218" y="620"/>
      <point x="179" y="347" type="curve" smooth="yes"/>
      <point x="144" y="94"/>
      <point x="185" y="-12"/>
      <point x="419" y="-12" type="curve" smooth="yes"/>
      <point x="495" y="-12"/>
      <point x="569" y="-2"/>
      <point x="614" y="14" type="curve"/>
      <point x="618" y="97" type="line"/>
      <point x="548" y="88"/>
      <point x="533" y="87"/>
      <point x="454" y="87" type="curve" smooth="yes"/>
      <point x="314" y="87"/>
      <point x="262" y="109"/>
      <point x="295" y="346" type="curve" smooth="yes"/>
      <point x="324" y="554"/>
      <point x="374" y="606"/>
      <point x="486" y="606" type="curve" smooth="yes"/>
      <point x="575" y="606"/>
      <point x="609" y="572"/>
      <point x="597" y="486" type="curve" smooth="yes"/>
      <point x="586" y="410"/>
      <point x="546" y="390"/>
      <point x="467" y="390" type="curve" smooth="yes"/>
      <point x="172" y="390" type="line" smooth="yes"/>
      <point x="114" y="390"/>
      <point x="98" y="424"/>
      <point x="117" y="487" type="curve"/>
      <point x="29" y="487" type="line"/>
      <point x="-4" y="357"/>
      <point x="41" y="301"/>
    </contour>
  </outline>
</glyph>
<glyph name="cheabkhasian-cy" format="2">
  <advance width="637"/>
  <unicode hex="04BD"/>
  <outline>
    <contour>
      <point x="342" y="-12" type="curve" smooth="yes"/>
      <point x="400" y="-12"/>
      <point x="489" y="-4"/>
      <point x="542" y="19" type="curve"/>
      <point x="542" y="90" type="line"/>
      <point x="486" y="83"/>
      <point x="417" y="78"/>
      <point x="369" y="78" type="curve" smooth="yes"/>
      <point x="265" y="78"/>
      <point x="231" y="102"/>
      <point x="252" y="252" type="curve" smooth="yes"/>
      <point x="270" y="380"/>
      <point x="301" y="412"/>
      <point x="397" y="412" type="curve" smooth="yes"/>
      <point x="477" y="412"/>
      <point x="498" y="390"/>
      <point x="491" y="335" type="curve" smooth="yes"/>
      <point x="487" y="310"/>
      <point x="477" y="275"/>
      <point x="439" y="275" type="curve" smooth="yes"/>
      <point x="162" y="275" type="line" smooth="yes"/>
      <point x="95" y="276"/>
      <point x="80" y="292"/>
      <point x="99" y="374" type="curve"/>
      <point x="21" y="376" type="line"/>
      <point x="-15" y="246"/>
      <point x="30" y="193"/>
      <point x="151" y="193" type="curve" smooth="yes"/>
      <point x="458" y="193" type="line" smooth="yes"/>
      <point x="540" y="193"/>
      <point x="586" y="246"/>
      <point x="599" y="334" type="curve" smooth="yes"/>
      <point x="614" y="444"/>
      <point x="560" y="502"/>
      <point x="405" y="502" type="curve" smooth="yes"/>
      <point x="245" y="502"/>
      <point x="166" y="440"/>
      <point x="139" y="246" type="curve" smooth="yes"/>
      <point x="113" y="57"/>
      <point x="169" y="-12"/>
    </contour>
  </outline>
</glyph>
<glyph name="chedescenderabkhasian-cy" format="2">
  <advance width="637"/>
  <unicode hex="04BF"/>
  <outline>
    <contour>
      <point x="392" y="5" type="line"/>
      <point x="303" y="5" type="line"/>
      <point x="288" y="-164" type="line"/>
      <point x="360" y="-164" type="line"/>
    </contour>
    <component base="cheabkhasian-cy"/>
  </outline>
</glyph>
<glyph name="Palochka-cy" format="2">
  <advance width="274"/>
  <unicode hex="04C0"/>
  <outline>
    <contour>
      <point x="249" y="690" type="line"/>
      <point x="137" y="690" type="line"/>
      <point x="40" y="0" type="line"/>
      <point x="152" y="0" type="line"/>
    </contour>
  </outline>
</glyph>
<glyph name="kahook-cy" format="2">
  <advance width="549"/>
  <unicode hex="04C4"/>
  <outline>
    <contour>
      <point x="224" y="-172" type="line"/>
      <point x="390" y="-165"/>
      <point x="480" y="-81"/>
      <point x="498" y="47" type="curve" smooth="yes"/>
      <point x="520" y="203"/>
      <point x="425" y="243"/>
      <point x="332" y="253" type="curve"/>
      <point x="333" y="256" type="line"/>
      <point x="439" y="269"/>
      <point x="466" y="329"/>
      <point x="545" y="489" type="curve"/>
      <point x="435" y="489" type="line"/>
      <point x="371" y="355"/>
      <point x="339" y="295"/>
      <point x="250" y="295" type="curve"/>
      <point x="240" y="213" type="line"/>
      <point x="332" y="214"/>
      <point x="401" y="158"/>
      <point x="385" y="47" type="curve" smooth="yes"/>
      <point x="375" y="-26"/>
      <point x="351" y="-84"/>
      <point x="235" y="-93" type="curve"/>
    </contour>
    <contour>
      <point x="52" y="0" type="line"/>
      <point x="159" y="0" type="line"/>
      <point x="182" y="169" type="line" smooth="yes"/>
      <point x="186" y="195"/>
      <point x="185" y="227"/>
      <point x="180" y="256" type="curve"/>
      <point x="194" y="286"/>
      <point x="204" y="319"/>
      <point x="208" y="351" type="curve" smooth="yes"/>
      <point x="227" y="489" type="line"/>
      <point x="120" y="489" type="line"/>
    </contour>
    <contour>
      <point x="160" y="213" type="line"/>
      <point x="273" y="213" type="line"/>
      <point x="284" y="295" type="line"/>
      <point x="171" y="295" type="line"/>
    </contour>
  </outline>
</glyph>
<glyph name="Chekhakassian-cy" format="2">
  <advance width="619"/>
  <unicode hex="04CB"/>
  <outline>
    <contour>
      <point x="271" y="90" type="line"/>
      <point x="258" y="0" type="line"/>
      <point x="491" y="0" type="line"/>
      <point x="504" y="90" type="line"/>
    </contour>
    <contour>
      <point x="259" y="7" type="line"/>
      <point x="237" y="-151" type="line"/>
      <point x="313" y="-151" type="line"/>
      <point x="345" y="7" type="line"/>
    </contour>
    <component base="Che-cy" xOffset="-16"/>
  </outline>
</glyph>
<glyph name="Emtail-cy" format="2">
  <advance width="906"/>
  <unicode hex="04CD"/>
  <outline>
    <contour>
      <point x="678" y="90" type="line"/>
      <point x="665" y="0" type="line"/>
      <point x="776" y="0" type="line"/>
      <point x="714" y="-151" type="line"/>
      <point x="790" y="-151" type="line"/>
      <point x="862" y="0" type="line"/>
      <point x="875" y="90" type="line"/>
    </contour>
    <component base="Em-cy"/>
  </outline>
</glyph>
<glyph name="palochka-cy" format="2">
  <advance width="250"/>
  <unicode hex="04CF"/>
  <anchor x="121" y="0" name="ogonek"/>
  <anchor x="155" y="553" name="top"/>
  <outline>
    <contour>
      <point x="234" y="690" type="line"/>
      <point x="128" y="690" type="line"/>
      <point x="31" y="0" type="line"/>
      <point x="137" y="0" type="line"/>
    </contour>
  </outline>
</glyph>
<glyph name="Schwa-cy" format="2">
  <advance width="605"/>
  <unicode hex="04D8"/>
  <anchor x="359" y="735" name="top"/>
  <outline>
    <contour>
      <point x="223" y="-12" type="curve" smooth="yes"/>
      <point x="436" y="-12"/>
      <point x="512" y="71"/>
      <point x="551" y="344" type="curve" smooth="yes"/>
      <point x="586" y="597"/>
      <point x="545" y="703"/>
      <point x="311" y="703" type="curve" smooth="yes"/>
      <point x="235" y="703"/>
      <point x="161" y="693"/>
      <point x="116" y="677" type="curve"/>
      <point x="112" y="594" type="line"/>
      <point x="182" y="603"/>
      <point x="197" y="604"/>
      <point x="276" y="604" type="curve" smooth="yes"/>
      <point x="416" y="604"/>
      <point x="467" y="582"/>
      <point x="434" y="345" type="curve" smooth="yes"/>
      <point x="405" y="137"/>
      <point x="356" y="85"/>
      <point x="244" y="85" type="curve" smooth="yes"/>
      <point x="155" y="85"/>
      <point x="121" y="119"/>
      <point x="133" y="205" type="curve" smooth="yes"/>
      <point x="146" y="297"/>
      <point x="186" y="317"/>
      <point x="265" y="317" type="curve" smooth="yes"/>
      <point x="486" y="317" type="line"/>
      <point x="504" y="406" type="line"/>
      <point x="250" y="406" type="line" smooth="yes"/>
      <point x="108" y="406"/>
      <point x="38" y="362"/>
      <point x="17" y="210" type="curve" smooth="yes"/>
      <point x="-5" y="55"/>
      <point x="67" y="-12"/>
    </contour>
  </outline>
</glyph>
<glyph name="dzeabkhasian-cy" format="2">
  <advance width="493"/>
  <unicode hex="04E1"/>
  <outline>
    <contour>
      <point x="161" y="-209" type="curve" smooth="yes"/>
      <point x="340" y="-209"/>
      <point x="402" y="-145"/>
      <point x="422" y="-1" type="curve" smooth="yes"/>
      <point x="444" y="156"/>
      <point x="373" y="196"/>
      <point x="230" y="196" type="curve" smooth="yes"/>
      <point x="143" y="196" type="line"/>
      <point x="163" y="159" type="line"/>
      <point x="455" y="416" type="line"/>
      <point x="464" y="479" type="line" smooth="yes"/>
      <point x="465" y="485"/>
      <point x="461" y="489"/>
      <point x="455" y="489" type="curve" smooth="yes"/>
      <point x="69" y="489" type="line"/>
      <point x="57" y="401" type="line"/>
      <point x="387" y="401" type="line"/>
      <point x="367" y="437" type="line"/>
      <point x="88" y="190" type="line"/>
      <point x="78" y="120" type="line"/>
      <point x="213" y="120" type="line" smooth="yes"/>
      <point x="303" y="120"/>
      <point x="322" y="90"/>
      <point x="309" y="-4" type="curve" smooth="yes"/>
      <point x="299" y="-75"/>
      <point x="263" y="-118"/>
      <point x="169" y="-118" type="curve" smooth="yes"/>
      <point x="103" y="-118"/>
      <point x="37" y="-111"/>
      <point x="-18" y="-103" type="curve"/>
      <point x="-38" y="-184" type="line"/>
      <point x="22" y="-202"/>
      <point x="97" y="-209"/>
    </contour>
  </outline>
</glyph>
<glyph name="Obarred-cy" format="2">
  <advance width="668"/>
  <unicode hex="04E8"/>
  <anchor x="395" y="732" name="top"/>
  <outline>
    <contour>
      <point x="88" y="302" type="line"/>
      <point x="571" y="302" type="line"/>
      <point x="571" y="378" type="line"/>
      <point x="88" y="378" type="line"/>
    </contour>
    <component base="O-cy"/>
  </outline>
</glyph>
<glyph name="Gedescender-cy" format="2">
  <advance width="499"/>
  <unicode hex="04F6"/>
  <outline>
    <contour>
      <point x="248" y="90" type="line"/>
      <point x="51" y="90" type="line"/>
      <point x="38" y="0" type="line"/>
      <point x="235" y="0" type="line"/>
    </contour>
    <contour>
      <point x="236" y="7" type="line"/>
      <point x="150" y="7" type="line"/>
      <point x="138" y="-151" type="line"/>
      <point x="214" y="-151" type="line"/>
    </contour>
    <component base="Ge-cy"/>
  </outline>
</glyph>
<glyph name="Gestrokehook-cy" format="2">
  <advance width="537"/>
  <unicode hex="04FA"/>
  <anchor x="397" y="732" name="top"/>
  <outline>
    <contour>
      <point x="74" y="0" type="line"/>
      <point x="172" y="0" type="line"/>
      <point x="171" y="-5" type="line" smooth="yes"/>
      <point x="161" y="-57"/>
      <point x="125" y="-77"/>
      <point x="59" y="-77" type="curve"/>
      <point x="47" y="-162" type="line"/>
      <point x="177" y="-162"/>
      <point x="249" y="-98"/>
      <point x="263" y="0" type="curve" smooth="yes"/>
      <point x="276" y="94" type="line"/>
      <point x="88" y="94" type="line"/>
    </contour>
    <component base="Ghestroke-cy"/>
  </outline>
</glyph>
<glyph name="Hastroke-cy" format="2">
  <advance width="616"/>
  <unicode hex="04FE"/>
  <outline>
    <contour>
      <point x="203" y="690" type="line"/>
      <point x="90" y="690" type="line"/>
      <point x="214" y="356" type="line"/>
      <point x="-23" y="0" type="line"/>
      <point x="105" y="0" type="line"/>
      <point x="325" y="345" type="line"/>
    </contour>
    <contour>
      <point x="385" y="400" type="line"/>
      <point x="258" y="400" type="line"/>
      <point x="246" y="315" type="line"/>
      <point x="373" y="315" type="line"/>
    </contour>
    <contour>
      <point x="642" y="690" type="line"/>
      <point x="520" y="690" type="line"/>
      <point x="309" y="369" type="line"/>
      <point x="443" y="0" type="line"/>
      <point x="557" y="0" type="line"/>
      <point x="421" y="356" type="line"/>
    </contour>
    <contour>
      <point x="78" y="319" type="line"/>
      <point x="530" y="319" type="line"/>
      <point x="542" y="399" type="line"/>
      <point x="90" y="399" type="line"/>
    </contour>
  </outline>
</glyph>
<glyph name="Elhook-cy" format="2">
  <advance width="647"/>
  <unicode hex="0512"/>
  <outline>
    <contour>
      <point x="612" y="690" type="line"/>
      <point x="368" y="690" type="line" smooth="yes"/>
      <point x="277" y="690"/>
      <point x="221" y="644"/>
      <point x="200" y="555" type="curve" smooth="yes"/>
      <point x="150" y="327"/>
      <point x="127" y="248"/>
      <point x="83" y="166" type="curve" smooth="yes"/>
      <point x="58" y="118"/>
      <point x="22" y="96"/>
      <point x="-27" y="84" type="curve"/>
      <point x="-30" y="-2" type="line"/>
      <point x="61" y="-7"/>
      <point x="130" y="41"/>
      <point x="184" y="136" type="curve" smooth="yes"/>
      <point x="235" y="225"/>
      <point x="257" y="320"/>
      <point x="306" y="534" type="curve" smooth="yes"/>
      <point x="316" y="579"/>
      <point x="340" y="600"/>
      <point x="384" y="600" type="curve" smooth="yes"/>
      <point x="599" y="600" type="line"/>
    </contour>
    <contour>
      <point x="514" y="690" type="line"/>
      <point x="424" y="50" type="line" smooth="yes"/>
      <point x="410" y="-51"/>
      <point x="377" y="-91"/>
      <point x="271" y="-91" type="curve"/>
      <point x="260" y="-174" type="line"/>
      <point x="404" y="-198"/>
      <point x="513" y="-116"/>
      <point x="536" y="50" type="curve" smooth="yes"/>
      <point x="626" y="690" type="line"/>
    </contour>
  </outline>
</glyph>
<glyph name="elhook-cy" format="2">
  <advance width="569"/>
  <unicode hex="0513"/>
  <outline>
    <contour>
      <point x="531" y="489" type="line"/>
      <point x="325" y="489" type="line" smooth="yes"/>
      <point x="237" y="489"/>
      <point x="191" y="448"/>
      <point x="171" y="367" type="curve" smooth="yes"/>
      <point x="153" y="294"/>
      <point x="127" y="193"/>
      <point x="101" y="138" type="curve" smooth="yes"/>
      <point x="81" y="102"/>
      <point x="64" y="87"/>
      <point x="7" y="77" type="curve"/>
      <point x="6" y="-5" type="line"/>
      <point x="96" y="-9"/>
      <point x="156" y="27"/>
      <point x="192" y="108" type="curve" smooth="yes"/>
      <point x="221" y="172"/>
      <point x="246" y="264"/>
      <point x="269" y="348" type="curve" smooth="yes"/>
      <point x="281" y="393"/>
      <point x="296" y="406"/>
      <point x="335" y="406" type="curve" smooth="yes"/>
      <point x="519" y="406" type="line"/>
    </contour>
    <contour>
      <point x="481" y="40" type="curve" smooth="yes"/>
      <point x="544" y="489" type="line"/>
      <point x="438" y="489" type="line"/>
      <point x="375" y="40" type="line" smooth="yes"/>
      <point x="361" y="-61"/>
      <point x="330" y="-101"/>
      <point x="232" y="-101" type="curve"/>
      <point x="222" y="-174" type="line"/>
      <point x="356" y="-197"/>
      <point x="458" y="-119"/>
    </contour>
  </outline>
</glyph>
<glyph name="pedescender-cy" format="2">
  <advance width="589"/>
  <unicode hex="0525"/>
  <outline>
    <contour>
      <point x="561" y="86" type="line"/>
      <point x="420" y="86" type="line"/>
      <point x="409" y="0" type="line"/>
      <point x="469" y="0" type="line"/>
      <point x="458" y="-144" type="line"/>
      <point x="529" y="-144" type="line"/>
    </contour>
    <component base="pe-cy"/>
  </outline>
</glyph>
<glyph name="EnLeftHook-cy" format="2">
  <advance width="677"/>
  <unicode hex="0528"/>
  <outline>
    <contour>
      <point x="255" y="690" type="line"/>
      <point x="143" y="690" type="line"/>
      <point x="54" y="55" type="line"/>
      <point x="166" y="55" type="line"/>
    </contour>
    <contour>
      <point x="514" y="415" type="line"/>
      <point x="208" y="415" type="line"/>
      <point x="195" y="319" type="line"/>
      <point x="501" y="319" type="line"/>
    </contour>
    <contour>
      <point x="653" y="690" type="line"/>
      <point x="542" y="690" type="line"/>
      <point x="445" y="0" type="line"/>
      <point x="556" y="0" type="line"/>
    </contour>
    <contour>
      <point x="238" y="564" type="line"/>
      <point x="125" y="564" type="line"/>
      <point x="50" y="27" type="line" smooth="yes"/>
      <point x="44" y="-16"/>
      <point x="16" y="-41"/>
      <point x="-32" y="-41" type="curve" smooth="yes"/>
      <point x="-76" y="-41" type="line"/>
      <point x="-97" y="-120" type="line"/>
      <point x="-74" y="-129"/>
      <point x="-25" y="-136"/>
      <point x="7" y="-136" type="curve" smooth="yes"/>
      <point x="92" y="-136"/>
      <point x="147" y="-80"/>
      <point x="162" y="28" type="curve" smooth="yes"/>
    </contour>
  </outline>
</glyph>
<glyph name="Eldescender-cy" format="2">
  <advance width="692"/>
  <unicode hex="052E"/>
  <outline>
    <contour>
      <point x="625" y="90" type="line"/>
      <point x="437" y="90" type="line"/>
      <point x="424" y="0" type="line"/>
      <point x="612" y="0" type="line"/>
    </contour>
    <contour>
      <point x="613" y="7" type="line"/>
      <point x="527" y="7" type="line"/>
      <point x="515" y="-151" type="line"/>
      <point x="591" y="-151" type="line"/>
    </contour>
    <component base="El-cy"/>
  </outline>
</glyph>
<glyph name="eldescender-cy" format="2">
  <advance width="572"/>
  <unicode hex="052F"/>
  <outline>
    <contour>
      <point x="547" y="86" type="line"/>
      <point x="406" y="86" type="line"/>
      <point x="395" y="0" type="line"/>
      <point x="455" y="0" type="line"/>
      <point x="444" y="-144" type="line"/>
      <point x="515" y="-144" type="line"/>
    </contour>
    <component base="el-cy"/>
  </outline>
</glyph>
<glyph name="Germandbls" format="2">
  <advance width="654"/>
  <unicode hex="1E9E"/>
  <outline>
    <contour>
      <point x="273" y="692" type="curve" smooth="yes"/>
      <point x="182" y="692"/>
      <point x="128" y="647"/>
      <point x="115" y="561" type="curve" smooth="yes"/>
      <point x="37" y="0" type="line"/>
      <point x="148" y="0" type="line"/>
      <point x="223" y="534" type="line" smooth="yes"/>
      <point x="230" y="585"/>
      <point x="245" y="597"/>
      <point x="296" y="597" type="curve" smooth="yes"/>
      <point x="620" y="597" type="line"/>
      <point x="636" y="683" type="line"/>
      <point x="520" y="692"/>
      <point x="372" y="692"/>
    </contour>
    <contour>
      <point x="192" y="5" type="line"/>
      <point x="262" y="-11"/>
      <point x="320" y="-15"/>
      <point x="376" y="-13" type="curve" smooth="yes"/>
      <point x="557" y="-7"/>
      <point x="614" y="86"/>
      <point x="634" y="188" type="curve" smooth="yes"/>
      <point x="658" y="310"/>
      <point x="610" y="394"/>
      <point x="486" y="392" type="curve"/>
      <point x="450" y="389.494" type="line"/>
      <point x="450" y="392" type="line"/>
      <point x="470" y="405"/>
      <point x="486" y="420"/>
      <point x="501" y="439" type="curve" smooth="yes"/>
      <point x="620" y="597" type="line"/>
      <point x="492" y="597" type="line"/>
      <point x="328" y="381" type="line"/>
      <point x="317" y="310" type="line"/>
      <point x="439" y="307" type="line" smooth="yes"/>
      <point x="513" y="305"/>
      <point x="535" y="273"/>
      <point x="524" y="209" type="curve" smooth="yes"/>
      <point x="512" y="140"/>
      <point x="469" y="93"/>
      <point x="370" y="86" type="curve" smooth="yes"/>
      <point x="311" y="82"/>
      <point x="267" y="85"/>
      <point x="205" y="92" type="curve"/>
    </contour>
  </outline>
</glyph>
<glyph name="dagger" format="2">
  <advance width="506"/>
  <unicode hex="2020"/>
  <outline>
    <contour>
      <point x="352" y="690" type="curve" smooth="yes"/>
      <point x="280" y="690" type="line" smooth="yes"/>
      <point x="273" y="690"/>
      <point x="269" y="687"/>
      <point x="268" y="680" type="curve" smooth="yes"/>
      <point x="260" y="619" type="line" smooth="yes"/>
      <point x="254" y="576"/>
      <point x="252" y="537"/>
      <point x="254" y="501" type="curve"/>
      <point x="324" y="501" type="line"/>
      <point x="336" y="537"/>
      <point x="346" y="576"/>
      <point x="352" y="619" type="curve" smooth="yes"/>
      <point x="360" y="680" type="line" smooth="yes"/>
      <point x="361" y="687"/>
      <point x="359" y="690"/>
    </contour>
    <contour>
      <point x="65" y="482" type="curve" smooth="yes"/>
      <point x="56" y="414" type="line" smooth="yes"/>
      <point x="55" y="407"/>
      <point x="58" y="404"/>
      <point x="65" y="404" type="curve" smooth="yes"/>
      <point x="106" y="404" type="line" smooth="yes"/>
      <point x="149" y="404"/>
      <point x="178" y="408"/>
      <point x="215" y="415" type="curve"/>
      <point x="224" y="481" type="line"/>
      <point x="189" y="488"/>
      <point x="161" y="492"/>
      <point x="118" y="492" type="curve" smooth="yes"/>
      <point x="77" y="492" type="line" smooth="yes"/>
      <point x="70" y="492"/>
      <point x="66" y="489"/>
    </contour>
    <contour>
      <point x="348" y="481" type="curve"/>
      <point x="339" y="415" type="line"/>
      <point x="374" y="408"/>
      <point x="403" y="404"/>
      <point x="446" y="404" type="curve" smooth="yes"/>
      <point x="487" y="404" type="line" smooth="yes"/>
      <point x="494" y="404"/>
      <point x="497" y="407"/>
      <point x="498" y="414" type="curve" smooth="yes"/>
      <point x="507" y="482" type="line" smooth="yes"/>
      <point x="508" y="489"/>
      <point x="506" y="492"/>
      <point x="499" y="492" type="curve" smooth="yes"/>
      <point x="458" y="492" type="line" smooth="yes"/>
      <point x="415" y="492"/>
      <point x="385" y="488"/>
    </contour>
    <contour>
      <point x="213" y="277" type="curve" smooth="yes"/>
      <point x="182" y="61" type="line"/>
      <point x="164" y="-130" type="line"/>
      <point x="236" y="-130" type="line"/>
      <point x="272" y="61" type="line"/>
      <point x="303" y="277" type="line" smooth="yes"/>
      <point x="309" y="322"/>
      <point x="311" y="360"/>
      <point x="309" y="395" type="curve"/>
      <point x="239" y="395" type="line"/>
      <point x="227" y="360"/>
      <point x="219" y="322"/>
    </contour>
  </outline>
</glyph>
<glyph name="daggerdbl" format="2">
  <advance width="506"/>
  <unicode hex="2021"/>
  <outline>
    <contour>
      <point x="351" y="690" type="curve" smooth="yes"/>
      <point x="281" y="690" type="line" smooth="yes"/>
      <point x="274" y="690"/>
      <point x="270" y="687"/>
      <point x="269" y="680" type="curve" smooth="yes"/>
      <point x="261" y="619" type="line" smooth="yes"/>
      <point x="255" y="576"/>
      <point x="253" y="537"/>
      <point x="255" y="501" type="curve"/>
      <point x="323" y="501" type="line"/>
      <point x="335" y="537"/>
      <point x="345" y="576"/>
      <point x="351" y="619" type="curve" smooth="yes"/>
      <point x="359" y="680" type="line" smooth="yes"/>
      <point x="360" y="687"/>
      <point x="358" y="690"/>
    </contour>
    <contour>
      <point x="65" y="482" type="curve" smooth="yes"/>
      <point x="55" y="414" type="line" smooth="yes"/>
      <point x="54" y="407"/>
      <point x="57" y="404"/>
      <point x="64" y="404" type="curve" smooth="yes"/>
      <point x="105" y="404" type="line" smooth="yes"/>
      <point x="148" y="404"/>
      <point x="177" y="408"/>
      <point x="214" y="415" type="curve"/>
      <point x="224" y="481" type="line"/>
      <point x="189" y="488"/>
      <point x="161" y="492"/>
      <point x="118" y="492" type="curve" smooth="yes"/>
      <point x="77" y="492" type="line" smooth="yes"/>
      <point x="70" y="492"/>
      <point x="66" y="489"/>
    </contour>
    <contour>
      <point x="348" y="481" type="curve"/>
      <point x="338" y="415" type="line"/>
      <point x="373" y="408"/>
      <point x="402" y="404"/>
      <point x="445" y="404" type="curve" smooth="yes"/>
      <point x="486" y="404" type="line" smooth="yes"/>
      <point x="493" y="404"/>
      <point x="496" y="407"/>
      <point x="497" y="414" type="curve" smooth="yes"/>
      <point x="507" y="482" type="line" smooth="yes"/>
      <point x="508" y="489"/>
      <point x="506" y="492"/>
      <point x="499" y="492" type="curve" smooth="yes"/>
      <point x="458" y="492" type="line" smooth="yes"/>
      <point x="415" y="492"/>
      <point x="385" y="488"/>
    </contour>
    <contour>
      <point x="165" y="-130" type="curve" smooth="yes"/>
      <point x="235" y="-130" type="line" smooth="yes"/>
      <point x="242" y="-130"/>
      <point x="246" y="-127"/>
      <point x="247" y="-120" type="curve" smooth="yes"/>
      <point x="255" y="-59" type="line" smooth="yes"/>
      <point x="261" y="-16"/>
      <point x="263" y="23"/>
      <point x="261" y="59" type="curve"/>
      <point x="193" y="59" type="line"/>
      <point x="181" y="23"/>
      <point x="171" y="-16"/>
      <point x="165" y="-59" type="curve" smooth="yes"/>
      <point x="157" y="-120" type="line" smooth="yes"/>
      <point x="156" y="-127"/>
      <point x="158" y="-130"/>
    </contour>
    <contour>
      <point x="451" y="78" type="curve" smooth="yes"/>
      <point x="461" y="146" type="line" smooth="yes"/>
      <point x="462" y="153"/>
      <point x="459" y="156"/>
      <point x="452" y="156" type="curve" smooth="yes"/>
      <point x="411" y="156" type="line" smooth="yes"/>
      <point x="368" y="156"/>
      <point x="339" y="152"/>
      <point x="302" y="145" type="curve"/>
      <point x="292" y="79" type="line"/>
      <point x="327" y="72"/>
      <point x="355" y="68"/>
      <point x="398" y="68" type="curve" smooth="yes"/>
      <point x="439" y="68" type="line" smooth="yes"/>
      <point x="446" y="68"/>
      <point x="450" y="71"/>
    </contour>
    <contour>
      <point x="30" y="156" type="line" smooth="yes"/>
      <point x="23" y="156"/>
      <point x="20" y="153"/>
      <point x="19" y="146" type="curve" smooth="yes"/>
      <point x="9" y="78" type="line" smooth="yes"/>
      <point x="8" y="71"/>
      <point x="10" y="68"/>
      <point x="17" y="68" type="curve" smooth="yes"/>
      <point x="58" y="68" type="line" smooth="yes"/>
      <point x="101" y="68"/>
      <point x="131" y="72"/>
      <point x="168" y="79" type="curve"/>
      <point x="178" y="145" type="line"/>
      <point x="143" y="152"/>
      <point x="114" y="156"/>
      <point x="71" y="156" type="curve" smooth="yes"/>
    </contour>
    <contour>
      <point x="240" y="395" type="line"/>
      <point x="230" y="364"/>
      <point x="224" y="343"/>
      <point x="218" y="305" type="curve"/>
      <point x="210" y="255" type="line"/>
      <point x="207" y="221"/>
      <point x="206" y="193"/>
      <point x="208" y="165" type="curve"/>
      <point x="276" y="165" type="line"/>
      <point x="286" y="194"/>
      <point x="293" y="220"/>
      <point x="298" y="255" type="curve"/>
      <point x="306" y="305" type="line"/>
      <point x="310" y="342"/>
      <point x="310" y="364"/>
      <point x="308" y="395" type="curve"/>
    </contour>
  </outline>
</glyph>
